<svg width="652" height="479" viewBox="0 0 652 479" fill="none" xmlns="http://www.w3.org/2000/svg">
<path d="M480 82.803C480 98.6109 478.807 114.142 476.508 129.306C471.727 160.794 462.171 190.707 448.595 218.294C430.148 255.813 404.269 289.02 372.879 316H270.651L260.701 282.148L241.934 218.294L215.778 129.306H157.717L154.618 118.773L129 31.6053H287.07L296.876 64.9777L315.787 129.306L341.943 218.294L342.289 219.47C342.608 219.082 342.922 218.688 343.226 218.294C363.589 192.687 378.304 162.402 385.502 129.306C388.76 114.323 390.475 98.76 390.475 82.803C390.475 65.2545 388.398 48.1957 384.48 31.8502L385.135 31.6053L468.719 0C471.599 10.3258 473.957 20.8697 475.757 31.6053C478.547 48.2543 480 65.3609 480 82.803Z" fill="#F5B237"/>
<path d="M619.984 413.513C625.505 405.278 632.333 401.164 640.456 401.164C644.312 401.164 647.85 402.1 651.088 403.981L647.335 429.615C643.17 426.695 638.481 425.235 633.269 425.235C628.056 425.235 624.879 427.322 623.11 431.487C622.07 434.089 621.392 436.596 621.074 438.992L618.103 477.439H589.97L585.281 403.354H616.068L619.975 413.513H619.984Z" fill="white"/>
<path d="M518.303 479.002C510.282 479.002 503.661 476.657 498.457 471.969C493.347 467.28 490.797 460.667 490.797 452.123C490.797 443.578 493.717 437.223 499.548 433.367C505.379 429.409 512.412 427.425 520.647 427.425C528.883 427.425 536.019 428.73 542.056 431.332C540.699 422.685 535.229 418.356 525.645 418.356C521.266 418.356 515.855 419.241 509.389 421.01L505.482 406.943C514.859 403.088 524.391 401.164 534.087 401.164C562.014 401.164 575.977 413.041 575.977 436.802C575.977 444.926 575.041 456.185 573.16 470.56L572.379 477.439H546.59L545.654 468.843C538.57 475.618 529.45 479.002 518.303 479.002ZM532.369 459.62C537.058 459.62 541.069 458.314 544.401 455.712L543.464 445.399C540.862 443.63 537.943 442.745 534.714 442.745C531.485 442.745 528.986 443.527 526.899 445.089C524.915 446.652 523.928 448.576 523.928 450.869C523.928 453.162 524.709 455.197 526.272 456.966C527.835 458.735 529.87 459.62 532.369 459.62Z" fill="white"/>
<path d="M397.379 438.672C397.379 431.484 398.366 425.284 400.35 420.071C402.437 414.859 405.142 410.951 408.474 408.349C414.623 403.558 421.45 401.162 428.947 401.162C432.7 401.162 436.135 401.943 439.261 403.506C442.489 404.966 444.731 406.477 445.985 408.04L447.857 410.23L446.612 376H482.25L478.033 477.436H454.589L451.936 467.277C445.684 474.989 437.972 478.845 428.801 478.845C419.732 478.948 412.235 475.564 406.293 468.686C400.35 461.807 397.388 451.803 397.388 438.681L397.379 438.672ZM438.951 422.107C432.803 422.107 429.728 428.358 429.728 440.862C429.728 443.155 429.883 445.345 430.201 447.423C430.518 449.501 431.454 451.691 433.017 453.984C434.58 456.277 436.873 457.419 439.896 457.419C442.919 457.419 445.212 455.753 446.775 452.421C448.441 448.986 449.274 445.13 449.274 440.853C449.274 428.35 445.839 422.098 438.96 422.098L438.951 422.107Z" fill="white"/>
<path d="M362.002 401.164C369.293 401.164 375.545 404.238 380.758 410.387C386.073 416.536 388.727 424.557 388.727 434.458C388.727 444.36 387.525 458.581 385.129 477.439H357.777L354.651 442.427C353.612 431.281 350.59 425.707 345.583 425.707C339.64 425.707 336.463 431.332 336.051 442.591L334.96 477.447H306.2L302.92 403.362H338.241L337.614 416.647C338.138 415.608 339.331 413.994 341.212 411.804C343.084 409.614 344.913 407.845 346.682 406.488C351.268 402.942 356.369 401.173 362.002 401.173V401.164Z" fill="white"/>
<path d="M235.945 479.002C227.925 479.002 221.304 476.657 216.1 471.969C210.999 467.28 208.439 460.667 208.439 452.123C208.439 443.578 211.359 437.223 217.19 433.367C223.021 429.409 230.054 427.425 238.29 427.425C246.525 427.425 253.662 428.73 259.699 431.332C258.342 422.685 252.872 418.356 243.288 418.356C238.908 418.356 233.498 419.241 227.032 421.01L223.124 406.943C232.502 403.088 242.034 401.164 251.729 401.164C279.656 401.164 293.62 413.041 293.62 436.802C293.62 444.926 292.684 456.185 290.803 470.56L290.021 477.439H264.233L263.297 468.843C256.212 475.618 247.092 479.002 235.945 479.002ZM250.012 459.62C254.701 459.62 258.711 458.314 262.043 455.712L261.107 445.399C258.505 443.63 255.585 442.745 252.356 442.745C249.127 442.745 246.628 443.527 244.542 445.089C242.558 446.652 241.57 448.576 241.57 450.869C241.57 453.162 242.352 455.197 243.915 456.966C245.478 458.735 247.513 459.62 250.012 459.62Z" fill="white"/>
<path d="M197.77 418.981C196.516 414.086 194.017 409.912 190.264 406.477C186.511 402.939 181.668 401.162 175.725 401.162C171.973 401.162 168.486 401.685 165.257 402.725C157.545 405.327 152.024 409.964 148.692 416.636L150.255 376L113.199 379.332L117.278 477.436H146.038L147.601 441.334C148.125 430.806 151.457 425.55 157.606 425.55C160.105 425.55 161.874 426.589 162.921 428.676C163.96 430.763 164.793 434.928 165.42 441.18L168.855 477.436H196.207C198.603 458.578 199.805 445.345 199.805 437.736C199.805 430.127 199.127 423.876 197.77 418.981Z" fill="white"/>
<g clip-path="url(#clip0_66_6340)">
<path d="M105.627 394.262C105.627 426.512 92.8588 455.788 72.0914 477.337H27.8472L0 382.821H40.2679L58.9858 443.573C59.1775 443.334 59.3655 443.095 59.5536 442.853C68.7609 428.907 74.1195 412.209 74.1195 394.262C74.1195 390.448 73.8764 386.689 73.408 383.003L104.82 380.297C104.918 381.136 105.627 390.402 105.627 394.262Z" fill="white"/>
</g>
<defs>
<clipPath id="clip0_66_6340">
<rect width="105.627" height="97.0397" fill="white" transform="translate(0 380.297)"/>
</clipPath>
</defs>
</svg>
