<svg width="500" height="500" viewBox="0 0 500 500" fill="none" xmlns="http://www.w3.org/2000/svg">
<g clip-path="url(#clip0_860_3102)">
<path d="M500 0H0V500H500V0Z" fill="white"/>
<path d="M18 162H34V146H26C23.8783 146 21.8434 146.843 20.3431 148.343C18.8428 149.843 18 151.878 18 154" fill="#043121"/>
<path d="M34 162H18V178H34V162Z" fill="#043121"/>
<path d="M34 194V178H18L18 186C18 188.122 18.8429 190.157 20.3431 191.657C21.8434 193.157 23.8783 194 26 194" fill="#043121"/>
<path d="M34 226V210H26C23.8783 210 21.8434 210.843 20.3431 212.343C18.8429 213.843 18 215.878 18 218C18 220.122 18.8429 222.157 20.3431 223.657C21.8434 225.157 23.8783 226 26 226" fill="#043121"/>
<path d="M34 274V258H26C23.8783 258 21.8434 258.843 20.3431 260.343C18.8429 261.843 18 263.878 18 266C18 268.122 18.8429 270.157 20.3431 271.657C21.8434 273.157 23.8783 274 26 274" fill="#043121"/>
<path d="M34 322V306H26C23.8783 306 21.8434 306.843 20.3431 308.343C18.8429 309.843 18 311.878 18 314C18 316.122 18.8429 318.157 20.3431 319.657C21.8434 321.157 23.8783 322 26 322" fill="#043121"/>
<path d="M34 354V338H26C23.8783 338 21.8434 338.843 20.3431 340.343C18.8429 341.843 18 343.878 18 346C18 348.122 18.8429 350.157 20.3431 351.657C21.8434 353.157 23.8783 354 26 354" fill="#043121"/>
<path d="M50 146H34V162H50V146Z" fill="#043121"/>
<path d="M34 178V194H42C44.1217 194 46.1566 193.157 47.6569 191.657C49.1571 190.157 50 188.122 50 186C50 183.878 49.1571 181.843 47.6569 180.343C46.1566 178.843 44.1217 178 42 178" fill="#043121"/>
<path d="M34 210V226H42C44.1217 226 46.1566 225.157 47.6569 223.657C49.1571 222.157 50 220.122 50 218C50 215.878 49.1571 213.843 47.6569 212.343C46.1566 210.843 44.1217 210 42 210" fill="#043121"/>
<path d="M34 258H50V242H42C39.8783 242 37.8434 242.843 36.3431 244.343C34.8428 245.843 34 247.878 34 250" fill="#043121"/>
<path d="M50 258H34V274H50V258Z" fill="#043121"/>
<path d="M50 274H34V290H50V274Z" fill="#043121"/>
<path d="M50 290H34V306H50V290Z" fill="#043121"/>
<path d="M50 306H34V322H50V306Z" fill="#043121"/>
<path d="M50 322H34V338H50V322Z" fill="#043121"/>
<path d="M50 338H34V354H50V338Z" fill="#043121"/>
<path d="M66 146H50V162H66V146Z" fill="#043121"/>
<path d="M50 242H66V226H58C55.8783 226 53.8434 226.843 52.3431 228.343C50.8428 229.843 50 231.878 50 234" fill="#043121"/>
<path d="M66 242H50V258H66V242Z" fill="#043121"/>
<path d="M66 258H50V274H66V258Z" fill="#043121"/>
<path d="M50 306V322H66V314C66 311.878 65.1571 309.843 63.6569 308.343C62.1566 306.843 60.1217 306 58 306" fill="#043121"/>
<path d="M66 322H50V338H66V322Z" fill="#043121"/>
<path d="M66 338H50V354H66V338Z" fill="#043121"/>
<path d="M82 146H66V162H82V146Z" fill="#043121"/>
<path d="M82 162H66V178H82V162Z" fill="#043121"/>
<path d="M82 178H66V194H82V178Z" fill="#043121"/>
<path d="M82 194H66V210H82V194Z" fill="#043121"/>
<path d="M82 210H66V226H82V210Z" fill="#043121"/>
<path d="M82 226H66V242H74C76.1217 242 78.1566 241.157 79.6569 239.657C81.1572 238.157 82 236.122 82 234" fill="#043121"/>
<path d="M82 258H66V274H82V258Z" fill="#043121"/>
<path d="M66 338V354H74C76.1217 354 78.1566 353.157 79.6569 351.657C81.1571 350.157 82 348.122 82 346C82 343.878 81.1571 341.843 79.6569 340.343C78.1566 338.843 76.1217 338 74 338" fill="#043121"/>
<path d="M82 146V162H98V154C98 151.878 97.1571 149.843 95.6569 148.343C94.1566 146.843 92.1217 146 90 146" fill="#043121"/>
<path d="M98 162H82V178H98V162Z" fill="#043121"/>
<path d="M98 178H82V194H90C92.1217 194 94.1566 193.157 95.6569 191.657C97.1572 190.157 98 188.122 98 186" fill="#043121"/>
<path d="M98 210H82V226H98V210Z" fill="#043121"/>
<path d="M98 258H82V274H98V258Z" fill="#043121"/>
<path d="M82 306H98V298C98 295.878 97.1572 293.843 95.6569 292.343C94.1566 290.843 92.1217 290 90 290C87.8783 290 85.8434 290.843 84.3431 292.343C82.8428 293.843 82 295.878 82 298" fill="#043121"/>
<path d="M98 306H82V322H98V306Z" fill="#043121"/>
<path d="M98 338V322H82V330C82 332.122 82.8429 334.157 84.3431 335.657C85.8434 337.157 87.8783 338 90 338" fill="#043121"/>
<path d="M98 210H114V202C114 199.878 113.157 197.843 111.657 196.343C110.157 194.843 108.122 194 106 194C103.878 194 101.843 194.843 100.343 196.343C98.8428 197.843 98 199.878 98 202" fill="#043121"/>
<path d="M114 210H98V226H114V210Z" fill="#043121"/>
<path d="M98 258H114V242H106C103.878 242 101.843 242.843 100.343 244.343C98.8428 245.843 98 247.878 98 250" fill="#043121"/>
<path d="M114 258H98V274H106C108.122 274 110.157 273.157 111.657 271.657C113.157 270.157 114 268.122 114 266" fill="#043121"/>
<path d="M114 306H98V322H114V306Z" fill="#043121"/>
<path d="M114 322H98V338H114V322Z" fill="#043121"/>
<path d="M114 354V338H98V346C98 348.122 98.8429 350.157 100.343 351.657C101.843 353.157 103.878 354 106 354" fill="#043121"/>
<path d="M130 162V146H122C119.878 146 117.843 146.843 116.343 148.343C114.843 149.843 114 151.878 114 154C114 156.122 114.843 158.157 116.343 159.657C117.843 161.157 119.878 162 122 162" fill="#043121"/>
<path d="M122 194C126.418 194 130 190.418 130 186C130 181.582 126.418 178 122 178C117.582 178 114 181.582 114 186C114 190.418 117.582 194 122 194Z" fill="#043121"/>
<path d="M130 210H114V226H130V210Z" fill="#043121"/>
<path d="M130 242H114V258H130V242Z" fill="#043121"/>
<path d="M130 290V274H122C119.878 274 117.843 274.843 116.343 276.343C114.843 277.843 114 279.878 114 282C114 284.122 114.843 286.157 116.343 287.657C117.843 289.157 119.878 290 122 290" fill="#043121"/>
<path d="M114 306V322H122C124.122 322 126.157 321.157 127.657 319.657C129.157 318.157 130 316.122 130 314C130 311.878 129.157 309.843 127.657 308.343C126.157 306.843 124.122 306 122 306" fill="#043121"/>
<path d="M114 338V354H122C124.122 354 126.157 353.157 127.657 351.657C129.157 350.157 130 348.122 130 346C130 343.878 129.157 341.843 127.657 340.343C126.157 338.843 124.122 338 122 338" fill="#043121"/>
<path d="M130 146V162H146V154C146 151.878 145.157 149.843 143.657 148.343C142.157 146.843 140.122 146 138 146" fill="#043121"/>
<path d="M146 162H130V170C130 172.122 130.843 174.157 132.343 175.657C133.843 177.157 135.878 178 138 178C140.122 178 142.157 177.157 143.657 175.657C145.157 174.157 146 172.122 146 170" fill="#043121"/>
<path d="M130 210H146V202C146 199.878 145.157 197.843 143.657 196.343C142.157 194.843 140.122 194 138 194C135.878 194 133.843 194.843 132.343 196.343C130.843 197.843 130 199.878 130 202" fill="#043121"/>
<path d="M146 210H130V226H146V210Z" fill="#043121"/>
<path d="M130 242V258H146V250C146 247.878 145.157 245.843 143.657 244.343C142.157 242.843 140.122 242 138 242" fill="#043121"/>
<path d="M146 258H130V274H146V258Z" fill="#043121"/>
<path d="M146 274H130V290H146V274Z" fill="#043121"/>
<path d="M146 338V322H138C135.878 322 133.843 322.843 132.343 324.343C130.843 325.843 130 327.878 130 330C130 332.122 130.843 334.157 132.343 335.657C133.843 337.157 135.878 338 138 338" fill="#043121"/>
<path d="M146 50H162V42C162 39.8783 161.157 37.8434 159.657 36.3431C158.157 34.8428 156.122 34 154 34C151.878 34 149.843 34.8428 148.343 36.3431C146.843 37.8434 146 39.8783 146 42" fill="#043121"/>
<path d="M162 50H146V58C146 60.1217 146.843 62.1566 148.343 63.6569C149.843 65.1572 151.878 66 154 66C156.122 66 158.157 65.1572 159.657 63.6569C161.157 62.1566 162 60.1217 162 58" fill="#043121"/>
<path d="M154 98C158.418 98 162 94.4183 162 90C162 85.5817 158.418 82 154 82C149.582 82 146 85.5817 146 90C146 94.4183 149.582 98 154 98Z" fill="#043121"/>
<path d="M146 130H162V122C162 119.878 161.157 117.843 159.657 116.343C158.157 114.843 156.122 114 154 114C151.878 114 149.843 114.843 148.343 116.343C146.843 117.843 146 119.878 146 122" fill="#043121"/>
<path d="M162 146V130H146V138C146 140.122 146.843 142.157 148.343 143.657C149.843 145.157 151.878 146 154 146" fill="#043121"/>
<path d="M154 194C158.418 194 162 190.418 162 186C162 181.582 158.418 178 154 178C149.582 178 146 181.582 146 186C146 190.418 149.582 194 154 194Z" fill="#043121"/>
<path d="M146 210V226H162V218C162 215.878 161.157 213.843 159.657 212.343C158.157 210.843 156.122 210 154 210" fill="#043121"/>
<path d="M162 226H146V234C146 236.122 146.843 238.157 148.343 239.657C149.843 241.157 151.878 242 154 242C156.122 242 158.157 241.157 159.657 239.657C161.157 238.157 162 236.122 162 234" fill="#043121"/>
<path d="M146 274V290H154C156.122 290 158.157 289.157 159.657 287.657C161.157 286.157 162 284.122 162 282C162 279.878 161.157 277.843 159.657 276.343C158.157 274.843 156.122 274 154 274" fill="#043121"/>
<path d="M146 322V338H162V330C162 327.878 161.157 325.843 159.657 324.343C158.157 322.843 156.122 322 154 322" fill="#043121"/>
<path d="M162 354V338H146V346C146 348.122 146.843 350.157 148.343 351.657C149.843 353.157 151.878 354 154 354" fill="#043121"/>
<path d="M162 386V370H154C151.878 370 149.843 370.843 148.343 372.343C146.843 373.843 146 375.878 146 378C146 380.122 146.843 382.157 148.343 383.657C149.843 385.157 151.878 386 154 386" fill="#043121"/>
<path d="M146 418H162V410C162 407.878 161.157 405.843 159.657 404.343C158.157 402.843 156.122 402 154 402C151.878 402 149.843 402.843 148.343 404.343C146.843 405.843 146 407.878 146 410" fill="#043121"/>
<path d="M162 418H146V434H162V418Z" fill="#043121"/>
<path d="M162 434H146V450H162V434Z" fill="#043121"/>
<path d="M162 450H146V466H162V450Z" fill="#043121"/>
<path d="M162 482V466H146V474C146 476.122 146.843 478.157 148.343 479.657C149.843 481.157 151.878 482 154 482" fill="#043121"/>
<path d="M170 82C174.418 82 178 78.4183 178 74C178 69.5817 174.418 66 170 66C165.582 66 162 69.5817 162 74C162 78.4183 165.582 82 170 82Z" fill="#043121"/>
<path d="M170 114C174.418 114 178 110.418 178 106C178 101.582 174.418 98 170 98C165.582 98 162 101.582 162 106C162 110.418 165.582 114 170 114Z" fill="#043121"/>
<path d="M178 130H162V146H178V130Z" fill="#043121"/>
<path d="M178 146H162V154C162 156.122 162.843 158.157 164.343 159.657C165.843 161.157 167.878 162 170 162C172.122 162 174.157 161.157 175.657 159.657C177.157 158.157 178 156.122 178 154" fill="#043121"/>
<path d="M170 210C174.418 210 178 206.418 178 202C178 197.582 174.418 194 170 194C165.582 194 162 197.582 162 202C162 206.418 165.582 210 170 210Z" fill="#043121"/>
<path d="M178 338H162V354H178V338Z" fill="#043121"/>
<path d="M178 354H162V370H178V354Z" fill="#043121"/>
<path d="M178 370H162V386H178V370Z" fill="#043121"/>
<path d="M178 386H162V394C162 396.122 162.843 398.157 164.343 399.657C165.843 401.157 167.878 402 170 402C172.122 402 174.157 401.157 175.657 399.657C177.157 398.157 178 396.122 178 394" fill="#043121"/>
<path d="M178 418H162V434H178V418Z" fill="#043121"/>
<path d="M178 466H162V482H178V466Z" fill="#043121"/>
<path d="M178 50H194V42C194 39.8783 193.157 37.8434 191.657 36.3431C190.157 34.8428 188.122 34 186 34C183.878 34 181.843 34.8428 180.343 36.3431C178.843 37.8434 178 39.8783 178 42" fill="#043121"/>
<path d="M194 50H178V58C178 60.1217 178.843 62.1566 180.343 63.6569C181.843 65.1572 183.878 66 186 66C188.122 66 190.157 65.1572 191.657 63.6569C193.157 62.1566 194 60.1217 194 58" fill="#043121"/>
<path d="M194 98V82H186C183.878 82 181.843 82.8429 180.343 84.3431C178.843 85.8434 178 87.8783 178 90C178 92.1217 178.843 94.1566 180.343 95.6569C181.843 97.1571 183.878 98 186 98" fill="#043121"/>
<path d="M178 130H194V122C194 119.878 193.157 117.843 191.657 116.343C190.157 114.843 188.122 114 186 114C183.878 114 181.843 114.843 180.343 116.343C178.843 117.843 178 119.878 178 122" fill="#043121"/>
<path d="M194 130H178V146H194V130Z" fill="#043121"/>
<path d="M194 178V162H186C183.878 162 181.843 162.843 180.343 164.343C178.843 165.843 178 167.878 178 170C178 172.122 178.843 174.157 180.343 175.657C181.843 177.157 183.878 178 186 178" fill="#043121"/>
<path d="M194 242V226H186C183.878 226 181.843 226.843 180.343 228.343C178.843 229.843 178 231.878 178 234C178 236.122 178.843 238.157 180.343 239.657C181.843 241.157 183.878 242 186 242" fill="#043121"/>
<path d="M178 290H194V282C194 279.878 193.157 277.843 191.657 276.343C190.157 274.843 188.122 274 186 274C183.878 274 181.843 274.843 180.343 276.343C178.843 277.843 178 279.878 178 282" fill="#043121"/>
<path d="M194 306V290H178V298C178 300.122 178.843 302.157 180.343 303.657C181.843 305.157 183.878 306 186 306" fill="#043121"/>
<path d="M194 338H178V354H194V338Z" fill="#043121"/>
<path d="M178 418V434H194V426C194 423.878 193.157 421.843 191.657 420.343C190.157 418.843 188.122 418 186 418" fill="#043121"/>
<path d="M194 434H178V450H194V434Z" fill="#043121"/>
<path d="M194 450H178V466H194V450Z" fill="#043121"/>
<path d="M194 466H178V482H186C188.122 482 190.157 481.157 191.657 479.657C193.157 478.157 194 476.122 194 474" fill="#043121"/>
<path d="M210 82H194V98H210V82Z" fill="#043121"/>
<path d="M194 130V146H202C204.122 146 206.157 145.157 207.657 143.657C209.157 142.157 210 140.122 210 138C210 135.878 209.157 133.843 207.657 132.343C206.157 130.843 204.122 130 202 130" fill="#043121"/>
<path d="M194 162V178H202C204.122 178 206.157 177.157 207.657 175.657C209.157 174.157 210 172.122 210 170C210 167.878 209.157 165.843 207.657 164.343C206.157 162.843 204.122 162 202 162" fill="#043121"/>
<path d="M210 226H194V242H210V226Z" fill="#043121"/>
<path d="M210 242H194V258H210V242Z" fill="#043121"/>
<path d="M210 258H194V266C194 268.122 194.843 270.157 196.343 271.657C197.843 273.157 199.878 274 202 274C204.122 274 206.157 273.157 207.657 271.657C209.157 270.157 210 268.122 210 266" fill="#043121"/>
<path d="M210 290H194V306H210V290Z" fill="#043121"/>
<path d="M210 338H194V354H210V338Z" fill="#043121"/>
<path d="M210 354H194V370H210V354Z" fill="#043121"/>
<path d="M210 370H194V386H210V370Z" fill="#043121"/>
<path d="M210 402V386H194V394C194 396.122 194.843 398.157 196.343 399.657C197.843 401.157 199.878 402 202 402" fill="#043121"/>
<path d="M194 450V466H202C204.122 466 206.157 465.157 207.657 463.657C209.157 462.157 210 460.122 210 458C210 455.878 209.157 453.843 207.657 452.343C206.157 450.843 204.122 450 202 450" fill="#043121"/>
<path d="M226 50V34H218C215.878 34 213.843 34.8429 212.343 36.3431C210.843 37.8434 210 39.8783 210 42C210 44.1217 210.843 46.1566 212.343 47.6569C213.843 49.1571 215.878 50 218 50" fill="#043121"/>
<path d="M210 82H226V74C226 71.8783 225.157 69.8434 223.657 68.3431C222.157 66.8428 220.122 66 218 66C215.878 66 213.843 66.8428 212.343 68.3431C210.843 69.8434 210 71.8783 210 74" fill="#043121"/>
<path d="M226 82H210V98H226V82Z" fill="#043121"/>
<path d="M226 98H210V114H226V98Z" fill="#043121"/>
<path d="M226 114H210V122C210 124.122 210.843 126.157 212.343 127.657C213.843 129.157 215.878 130 218 130C220.122 130 222.157 129.157 223.657 127.657C225.157 126.157 226 124.122 226 122" fill="#043121"/>
<path d="M226 162V146H218C215.878 146 213.843 146.843 212.343 148.343C210.843 149.843 210 151.878 210 154C210 156.122 210.843 158.157 212.343 159.657C213.843 161.157 215.878 162 218 162" fill="#043121"/>
<path d="M218 194C222.418 194 226 190.418 226 186C226 181.582 222.418 178 218 178C213.582 178 210 181.582 210 186C210 190.418 213.582 194 218 194Z" fill="#043121"/>
<path d="M210 226H226V210H218C215.878 210 213.843 210.843 212.343 212.343C210.843 213.843 210 215.878 210 218" fill="#043121"/>
<path d="M226 226H210V242H226V226Z" fill="#043121"/>
<path d="M226 242H210V258H218C220.122 258 222.157 257.157 223.657 255.657C225.157 254.157 226 252.122 226 250" fill="#043121"/>
<path d="M226 290H210V306H226V290Z" fill="#043121"/>
<path d="M210 338H226V330C226 327.878 225.157 325.843 223.657 324.343C222.157 322.843 220.122 322 218 322C215.878 322 213.843 322.843 212.343 324.343C210.843 325.843 210 327.878 210 330" fill="#043121"/>
<path d="M226 338H210V354H226V338Z" fill="#043121"/>
<path d="M226 370H210V386H226V370Z" fill="#043121"/>
<path d="M226 386H210V402H226V386Z" fill="#043121"/>
<path d="M226 34H242V26C242 23.8783 241.157 21.8434 239.657 20.3431C238.157 18.8428 236.122 18 234 18C231.878 18 229.843 18.8428 228.343 20.3431C226.843 21.8434 226 23.8783 226 26" fill="#043121"/>
<path d="M242 34H226V50H242V34Z" fill="#043121"/>
<path d="M242 66V50H226V58C226 60.1217 226.843 62.1566 228.343 63.6569C229.843 65.1571 231.878 66 234 66" fill="#043121"/>
<path d="M242 82H226V98H242V82Z" fill="#043121"/>
<path d="M226 146H242V130H234C231.878 130 229.843 130.843 228.343 132.343C226.843 133.843 226 135.878 226 138" fill="#043121"/>
<path d="M242 146H226V162H234C236.122 162 238.157 161.157 239.657 159.657C241.157 158.157 242 156.122 242 154" fill="#043121"/>
<path d="M226 210V226H234C236.122 226 238.157 225.157 239.657 223.657C241.157 222.157 242 220.122 242 218C242 215.878 241.157 213.843 239.657 212.343C238.157 210.843 236.122 210 234 210" fill="#043121"/>
<path d="M226 290H242V282C242 279.878 241.157 277.843 239.657 276.343C238.157 274.843 236.122 274 234 274C231.878 274 229.843 274.843 228.343 276.343C226.843 277.843 226 279.878 226 282" fill="#043121"/>
<path d="M242 290H226V306H234C236.122 306 238.157 305.157 239.657 303.657C241.157 302.157 242 300.122 242 298" fill="#043121"/>
<path d="M242 338H226V354H242V338Z" fill="#043121"/>
<path d="M242 354H226V370H242V354Z" fill="#043121"/>
<path d="M242 370H226V386H242V370Z" fill="#043121"/>
<path d="M242 386H226V402H242V386Z" fill="#043121"/>
<path d="M226 466H242V450H234C231.878 450 229.843 450.843 228.343 452.343C226.843 453.843 226 455.878 226 458" fill="#043121"/>
<path d="M242 482V466H226V474C226 476.122 226.843 478.157 228.343 479.657C229.843 481.157 231.878 482 234 482" fill="#043121"/>
<path d="M258 34H242V50H258V34Z" fill="#043121"/>
<path d="M258 50H242V66H258V50Z" fill="#043121"/>
<path d="M258 66H242V82H258V66Z" fill="#043121"/>
<path d="M258 82H242V98H250C252.122 98 254.157 97.1572 255.657 95.6569C257.157 94.1566 258 92.1217 258 90" fill="#043121"/>
<path d="M242 130H258V122C258 119.878 257.157 117.843 255.657 116.343C254.157 114.843 252.122 114 250 114C247.878 114 245.843 114.843 244.343 116.343C242.843 117.843 242 119.878 242 122" fill="#043121"/>
<path d="M258 130H242V146H258V130Z" fill="#043121"/>
<path d="M258 322V306H250C247.878 306 245.843 306.843 244.343 308.343C242.843 309.843 242 311.878 242 314C242 316.122 242.843 318.157 244.343 319.657C245.843 321.157 247.878 322 250 322" fill="#043121"/>
<path d="M242 338V354H258V346C258 343.878 257.157 341.843 255.657 340.343C254.157 338.843 252.122 338 250 338" fill="#043121"/>
<path d="M258 354H242V370H250C252.122 370 254.157 369.157 255.657 367.657C257.157 366.157 258 364.122 258 362" fill="#043121"/>
<path d="M258 386H242V402H258V386Z" fill="#043121"/>
<path d="M242 450H258V442C258 439.878 257.157 437.843 255.657 436.343C254.157 434.843 252.122 434 250 434C247.878 434 245.843 434.843 244.343 436.343C242.843 437.843 242 439.878 242 442" fill="#043121"/>
<path d="M258 450H242V466H258V450Z" fill="#043121"/>
<path d="M258 466H242V482H250C252.122 482 254.157 481.157 255.657 479.657C257.157 478.157 258 476.122 258 474" fill="#043121"/>
<path d="M258 34H274V26C274 23.8783 273.157 21.8434 271.657 20.3431C270.157 18.8428 268.122 18 266 18C263.878 18 261.843 18.8428 260.343 20.3431C258.843 21.8434 258 23.8783 258 26" fill="#043121"/>
<path d="M274 34H258V50H266C268.122 50 270.157 49.1572 271.657 47.6569C273.157 46.1566 274 44.1217 274 42" fill="#043121"/>
<path d="M274 114V98H266C263.878 98 261.843 98.8429 260.343 100.343C258.843 101.843 258 103.878 258 106C258 108.122 258.843 110.157 260.343 111.657C261.843 113.157 263.878 114 266 114" fill="#043121"/>
<path d="M274 130H258V146H274V130Z" fill="#043121"/>
<path d="M274 146H258V162H274V146Z" fill="#043121"/>
<path d="M274 162H258V178H274V162Z" fill="#043121"/>
<path d="M274 178H258V194H274V178Z" fill="#043121"/>
<path d="M274 194H258V210H274V194Z" fill="#043121"/>
<path d="M274 210H258V226H274V210Z" fill="#043121"/>
<path d="M274 242V226H258V234C258 236.122 258.843 238.157 260.343 239.657C261.843 241.157 263.878 242 266 242" fill="#043121"/>
<path d="M258 290H274V274H266C263.878 274 261.843 274.843 260.343 276.343C258.843 277.843 258 279.878 258 282" fill="#043121"/>
<path d="M274 290H258V306H274V290Z" fill="#043121"/>
<path d="M274 306H258V322H274V306Z" fill="#043121"/>
<path d="M274 386H258V402H274V386Z" fill="#043121"/>
<path d="M258 450V466H266C268.122 466 270.157 465.157 271.657 463.657C273.157 462.157 274 460.122 274 458C274 455.878 273.157 453.843 271.657 452.343C270.157 450.843 268.122 450 266 450" fill="#043121"/>
<path d="M274 98V114H290V106C290 103.878 289.157 101.843 287.657 100.343C286.157 98.8429 284.122 98 282 98" fill="#043121"/>
<path d="M290 114H274V130H290V114Z" fill="#043121"/>
<path d="M290 130H274V146H290V130Z" fill="#043121"/>
<path d="M290 146H274V162H282C284.122 162 286.157 161.157 287.657 159.657C289.157 158.157 290 156.122 290 154" fill="#043121"/>
<path d="M290 178H274V194H290V178Z" fill="#043121"/>
<path d="M290 210H274V226H290V210Z" fill="#043121"/>
<path d="M290 226H274V242H290V226Z" fill="#043121"/>
<path d="M290 242H274V250C274 252.122 274.843 254.157 276.343 255.657C277.843 257.157 279.878 258 282 258C284.122 258 286.157 257.157 287.657 255.657C289.157 254.157 290 252.122 290 250" fill="#043121"/>
<path d="M290 274H274V290H290V274Z" fill="#043121"/>
<path d="M290 306H274V322H290V306Z" fill="#043121"/>
<path d="M274 354H290V338H282C279.878 338 277.843 338.843 276.343 340.343C274.843 341.843 274 343.878 274 346" fill="#043121"/>
<path d="M290 354H274V370H290V354Z" fill="#043121"/>
<path d="M290 370H274V386H290V370Z" fill="#043121"/>
<path d="M290 386H274V402H282C284.122 402 286.157 401.157 287.657 399.657C289.157 398.157 290 396.122 290 394" fill="#043121"/>
<path d="M282 434C286.418 434 290 430.418 290 426C290 421.582 286.418 418 282 418C277.582 418 274 421.582 274 426C274 430.418 277.582 434 282 434Z" fill="#043121"/>
<path d="M290 66H306V58C306 55.8783 305.157 53.8434 303.657 52.3431C302.157 50.8428 300.122 50 298 50C295.878 50 293.843 50.8428 292.343 52.3431C290.843 53.8434 290 55.8783 290 58" fill="#043121"/>
<path d="M306 66H290V82H306V66Z" fill="#043121"/>
<path d="M306 82H290V90C290 92.1217 290.843 94.1566 292.343 95.6569C293.843 97.1572 295.878 98 298 98C300.122 98 302.157 97.1572 303.657 95.6569C305.157 94.1566 306 92.1217 306 90" fill="#043121"/>
<path d="M290 130V146H298C300.122 146 302.157 145.157 303.657 143.657C305.157 142.157 306 140.122 306 138C306 135.878 305.157 133.843 303.657 132.343C302.157 130.843 300.122 130 298 130" fill="#043121"/>
<path d="M290 178V194H298C300.122 194 302.157 193.157 303.657 191.657C305.157 190.157 306 188.122 306 186C306 183.878 305.157 181.843 303.657 180.343C302.157 178.843 300.122 178 298 178" fill="#043121"/>
<path d="M290 210V226H306V218C306 215.878 305.157 213.843 303.657 212.343C302.157 210.843 300.122 210 298 210" fill="#043121"/>
<path d="M306 226H290V242H298C300.122 242 302.157 241.157 303.657 239.657C305.157 238.157 306 236.122 306 234" fill="#043121"/>
<path d="M290 274H306V258H298C295.878 258 293.843 258.843 292.343 260.343C290.843 261.843 290 263.878 290 266" fill="#043121"/>
<path d="M306 274H290V290H306V274Z" fill="#043121"/>
<path d="M290 306V322H298C300.122 322 302.157 321.157 303.657 319.657C305.157 318.157 306 316.122 306 314C306 311.878 305.157 309.843 303.657 308.343C302.157 306.843 300.122 306 298 306" fill="#043121"/>
<path d="M290 338V354H306V346C306 343.878 305.157 341.843 303.657 340.343C302.157 338.843 300.122 338 298 338" fill="#043121"/>
<path d="M306 354H290V370H306V354Z" fill="#043121"/>
<path d="M306 370H290V386H298C300.122 386 302.157 385.157 303.657 383.657C305.157 382.157 306 380.122 306 378" fill="#043121"/>
<path d="M290 450H306V442C306 439.878 305.157 437.843 303.657 436.343C302.157 434.843 300.122 434 298 434C295.878 434 293.843 434.843 292.343 436.343C290.843 437.843 290 439.878 290 442" fill="#043121"/>
<path d="M306 450H290V466H306V450Z" fill="#043121"/>
<path d="M306 482V466H290V474C290 476.122 290.843 478.157 292.343 479.657C293.843 481.157 295.878 482 298 482" fill="#043121"/>
<path d="M314 34C318.418 34 322 30.4183 322 26C322 21.5817 318.418 18 314 18C309.582 18 306 21.5817 306 26C306 30.4183 309.582 34 314 34Z" fill="#043121"/>
<path d="M306 114H322V106C322 103.878 321.157 101.843 319.657 100.343C318.157 98.8428 316.122 98 314 98C311.878 98 309.843 98.8428 308.343 100.343C306.843 101.843 306 103.878 306 106" fill="#043121"/>
<path d="M322 114H306V122C306 124.122 306.843 126.157 308.343 127.657C309.843 129.157 311.878 130 314 130C316.122 130 318.157 129.157 319.657 127.657C321.157 126.157 322 124.122 322 122" fill="#043121"/>
<path d="M314 178C318.418 178 322 174.418 322 170C322 165.582 318.418 162 314 162C309.582 162 306 165.582 306 170C306 174.418 309.582 178 314 178Z" fill="#043121"/>
<path d="M306 258V274H322V266C322 263.878 321.157 261.843 319.657 260.343C318.157 258.843 316.122 258 314 258" fill="#043121"/>
<path d="M322 274H306V290H322V274Z" fill="#043121"/>
<path d="M306 354V370H314C316.122 370 318.157 369.157 319.657 367.657C321.157 366.157 322 364.122 322 362C322 359.878 321.157 357.843 319.657 356.343C318.157 354.843 316.122 354 314 354" fill="#043121"/>
<path d="M306 402H322V386H314C311.878 386 309.843 386.843 308.343 388.343C306.843 389.843 306 391.878 306 394" fill="#043121"/>
<path d="M322 402H306V410C306 412.122 306.843 414.157 308.343 415.657C309.843 417.157 311.878 418 314 418C316.122 418 318.157 417.157 319.657 415.657C321.157 414.157 322 412.122 322 410" fill="#043121"/>
<path d="M306 450V466H322V458C322 455.878 321.157 453.843 319.657 452.343C318.157 450.843 316.122 450 314 450" fill="#043121"/>
<path d="M322 466H306V482H322V466Z" fill="#043121"/>
<path d="M330 50C334.418 50 338 46.4183 338 42C338 37.5817 334.418 34 330 34C325.582 34 322 37.5817 322 42C322 46.4183 325.582 50 330 50Z" fill="#043121"/>
<path d="M338 82V66H330C327.878 66 325.843 66.8429 324.343 68.3431C322.843 69.8434 322 71.8783 322 74C322 76.1217 322.843 78.1566 324.343 79.6569C325.843 81.1571 327.878 82 330 82" fill="#043121"/>
<path d="M322 146H338V138C338 135.878 337.157 133.843 335.657 132.343C334.157 130.843 332.122 130 330 130C327.878 130 325.843 130.843 324.343 132.343C322.843 133.843 322 135.878 322 138" fill="#043121"/>
<path d="M338 162V146H322V154C322 156.122 322.843 158.157 324.343 159.657C325.843 161.157 327.878 162 330 162" fill="#043121"/>
<path d="M322 210H338V194H330C327.878 194 325.843 194.843 324.343 196.343C322.843 197.843 322 199.878 322 202" fill="#043121"/>
<path d="M338 210H322V226H338V210Z" fill="#043121"/>
<path d="M338 242V226H322V234C322 236.122 322.843 238.157 324.343 239.657C325.843 241.157 327.878 242 330 242" fill="#043121"/>
<path d="M322 274V290H338V282C338 279.878 337.157 277.843 335.657 276.343C334.157 274.843 332.122 274 330 274" fill="#043121"/>
<path d="M338 306V290H322V298C322 300.122 322.843 302.157 324.343 303.657C325.843 305.157 327.878 306 330 306" fill="#043121"/>
<path d="M338 338V322H330C327.878 322 325.843 322.843 324.343 324.343C322.843 325.843 322 327.878 322 330C322 332.122 322.843 334.157 324.343 335.657C325.843 337.157 327.878 338 330 338" fill="#043121"/>
<path d="M322 386H338V370H330C327.878 370 325.843 370.843 324.343 372.343C322.843 373.843 322 375.878 322 378" fill="#043121"/>
<path d="M338 386H322V402H338V386Z" fill="#043121"/>
<path d="M322 466V482H330C332.122 482 334.157 481.157 335.657 479.657C337.157 478.157 338 476.122 338 474C338 471.878 337.157 469.843 335.657 468.343C334.157 466.843 332.122 466 330 466" fill="#043121"/>
<path d="M346 34C350.418 34 354 30.4183 354 26C354 21.5817 350.418 18 346 18C341.582 18 338 21.5817 338 26C338 30.4183 341.582 34 346 34Z" fill="#043121"/>
<path d="M338 66V82H346C348.122 82 350.157 81.1571 351.657 79.6569C353.157 78.1566 354 76.1217 354 74C354 71.8783 353.157 69.8434 351.657 68.3431C350.157 66.8429 348.122 66 346 66" fill="#043121"/>
<path d="M338 114H354V106C354 103.878 353.157 101.843 351.657 100.343C350.157 98.8428 348.122 98 346 98C343.878 98 341.843 98.8428 340.343 100.343C338.843 101.843 338 103.878 338 106" fill="#043121"/>
<path d="M354 114H338V122C338 124.122 338.843 126.157 340.343 127.657C341.843 129.157 343.878 130 346 130C348.122 130 350.157 129.157 351.657 127.657C353.157 126.157 354 124.122 354 122" fill="#043121"/>
<path d="M354 146H338V162H354V146Z" fill="#043121"/>
<path d="M338 194V210H354V202C354 199.878 353.157 197.843 351.657 196.343C350.157 194.843 348.122 194 346 194" fill="#043121"/>
<path d="M354 210H338V226H354V210Z" fill="#043121"/>
<path d="M354 226H338V242H346C348.122 242 350.157 241.157 351.657 239.657C353.157 238.157 354 236.122 354 234" fill="#043121"/>
<path d="M346 274C350.418 274 354 270.418 354 266C354 261.582 350.418 258 346 258C341.582 258 338 261.582 338 266C338 270.418 341.582 274 346 274Z" fill="#043121"/>
<path d="M338 290V306H346C348.122 306 350.157 305.157 351.657 303.657C353.157 302.157 354 300.122 354 298C354 295.878 353.157 293.843 351.657 292.343C350.157 290.843 348.122 290 346 290" fill="#043121"/>
<path d="M354 322H338V338H354V322Z" fill="#043121"/>
<path d="M354 338H338V354H354V338Z" fill="#043121"/>
<path d="M354 354H338V370H354V354Z" fill="#043121"/>
<path d="M354 370H338V386H354V370Z" fill="#043121"/>
<path d="M354 386H338V402H354V386Z" fill="#043121"/>
<path d="M354 418V402H338V410C338 412.122 338.843 414.157 340.343 415.657C341.843 417.157 343.878 418 346 418" fill="#043121"/>
<path d="M370 146H354V162H370V146Z" fill="#043121"/>
<path d="M370 178V162H354V170C354 172.122 354.843 174.157 356.343 175.657C357.843 177.157 359.878 178 362 178" fill="#043121"/>
<path d="M370 210H354V226H370V210Z" fill="#043121"/>
<path d="M362 290C366.418 290 370 286.418 370 282C370 277.582 366.418 274 362 274C357.582 274 354 277.582 354 282C354 286.418 357.582 290 362 290Z" fill="#043121"/>
<path d="M354 322H370V314C370 311.878 369.157 309.843 367.657 308.343C366.157 306.843 364.122 306 362 306C359.878 306 357.843 306.843 356.343 308.343C354.843 309.843 354 311.878 354 314" fill="#043121"/>
<path d="M370 322H354V338H370V322Z" fill="#043121"/>
<path d="M370 338H354V354H370V338Z" fill="#043121"/>
<path d="M370 402H354V418H370V402Z" fill="#043121"/>
<path d="M354 466H370V450H362C359.878 450 357.843 450.843 356.343 452.343C354.843 453.843 354 455.878 354 458" fill="#043121"/>
<path d="M370 482V466H354V474C354 476.122 354.843 478.157 356.343 479.657C357.843 481.157 359.878 482 362 482" fill="#043121"/>
<path d="M370 146V162H386V154C386 151.878 385.157 149.843 383.657 148.343C382.157 146.843 380.122 146 378 146" fill="#043121"/>
<path d="M386 162H370V178H386V162Z" fill="#043121"/>
<path d="M386 178H370V186C370 188.122 370.843 190.157 372.343 191.657C373.843 193.157 375.878 194 378 194C380.122 194 382.157 193.157 383.657 191.657C385.157 190.157 386 188.122 386 186" fill="#043121"/>
<path d="M370 210V226H378C380.122 226 382.157 225.157 383.657 223.657C385.157 222.157 386 220.122 386 218C386 215.878 385.157 213.843 383.657 212.343C382.157 210.843 380.122 210 378 210" fill="#043121"/>
<path d="M386 258V242H378C375.878 242 373.843 242.843 372.343 244.343C370.843 245.843 370 247.878 370 250C370 252.122 370.843 254.157 372.343 255.657C373.843 257.157 375.878 258 378 258" fill="#043121"/>
<path d="M378 306C382.418 306 386 302.418 386 298C386 293.582 382.418 290 378 290C373.582 290 370 293.582 370 298C370 302.418 373.582 306 378 306Z" fill="#043121"/>
<path d="M370 322V338H386V330C386 327.878 385.157 325.843 383.657 324.343C382.157 322.843 380.122 322 378 322" fill="#043121"/>
<path d="M386 338H370V354H386V338Z" fill="#043121"/>
<path d="M378 386C382.418 386 386 382.418 386 378C386 373.582 382.418 370 378 370C373.582 370 370 373.582 370 378C370 382.418 373.582 386 378 386Z" fill="#043121"/>
<path d="M386 402H370V418H386V402Z" fill="#043121"/>
<path d="M370 450H386V442C386 439.878 385.157 437.843 383.657 436.343C382.157 434.843 380.122 434 378 434C375.878 434 373.843 434.843 372.343 436.343C370.843 437.843 370 439.878 370 442" fill="#043121"/>
<path d="M386 450H370V466H386V450Z" fill="#043121"/>
<path d="M386 466H370V482H386V466Z" fill="#043121"/>
<path d="M394 210C398.418 210 402 206.418 402 202C402 197.582 398.418 194 394 194C389.582 194 386 197.582 386 202C386 206.418 389.582 210 394 210Z" fill="#043121"/>
<path d="M386 242V258H394C396.122 258 398.157 257.157 399.657 255.657C401.157 254.157 402 252.122 402 250C402 247.878 401.157 245.843 399.657 244.343C398.157 242.843 396.122 242 394 242" fill="#043121"/>
<path d="M394 290C398.418 290 402 286.418 402 282C402 277.582 398.418 274 394 274C389.582 274 386 277.582 386 282C386 286.418 389.582 290 394 290Z" fill="#043121"/>
<path d="M402 338H386V354H402V338Z" fill="#043121"/>
<path d="M402 402H386V418H402V402Z" fill="#043121"/>
<path d="M402 450H386V466H402V450Z" fill="#043121"/>
<path d="M402 466H386V482H402V466Z" fill="#043121"/>
<path d="M402 162H418V154C418 151.878 417.157 149.843 415.657 148.343C414.157 146.843 412.122 146 410 146C407.878 146 405.843 146.843 404.343 148.343C402.843 149.843 402 151.878 402 154" fill="#043121"/>
<path d="M418 162H402V178H418V162Z" fill="#043121"/>
<path d="M418 178H402V186C402 188.122 402.843 190.157 404.343 191.657C405.843 193.157 407.878 194 410 194C412.122 194 414.157 193.157 415.657 191.657C417.157 190.157 418 188.122 418 186" fill="#043121"/>
<path d="M418 242V226H410C407.878 226 405.843 226.843 404.343 228.343C402.843 229.843 402 231.878 402 234C402 236.122 402.843 238.157 404.343 239.657C405.843 241.157 407.878 242 410 242" fill="#043121"/>
<path d="M418 274V258H410C407.878 258 405.843 258.843 404.343 260.343C402.843 261.843 402 263.878 402 266C402 268.122 402.843 270.157 404.343 271.657C405.843 273.157 407.878 274 410 274" fill="#043121"/>
<path d="M418 338H402V354H418V338Z" fill="#043121"/>
<path d="M418 354H402V370H418V354Z" fill="#043121"/>
<path d="M418 370H402V386H418V370Z" fill="#043121"/>
<path d="M418 386H402V402H418V386Z" fill="#043121"/>
<path d="M418 402H402V418H418V402Z" fill="#043121"/>
<path d="M418 418H402V426C402 428.122 402.843 430.157 404.343 431.657C405.843 433.157 407.878 434 410 434C412.122 434 414.157 433.157 415.657 431.657C417.157 430.157 418 428.122 418 426" fill="#043121"/>
<path d="M402 450V466H418V458C418 455.878 417.157 453.843 415.657 452.343C414.157 450.843 412.122 450 410 450" fill="#043121"/>
<path d="M418 466H402V482H410C412.122 482 414.157 481.157 415.657 479.657C417.157 478.157 418 476.122 418 474" fill="#043121"/>
<path d="M418 226H434V210H426C423.878 210 421.843 210.843 420.343 212.343C418.843 213.843 418 215.878 418 218" fill="#043121"/>
<path d="M434 226H418V242H434V226Z" fill="#043121"/>
<path d="M434 242H418V258H434V242Z" fill="#043121"/>
<path d="M434 258H418V274H426C428.122 274 430.157 273.157 431.657 271.657C433.157 270.157 434 268.122 434 266" fill="#043121"/>
<path d="M418 338V354H434V346C434 343.878 433.157 341.843 431.657 340.343C430.157 338.843 428.122 338 426 338" fill="#043121"/>
<path d="M434 354H418V370H426C428.122 370 430.157 369.157 431.657 367.657C433.157 366.157 434 364.122 434 362" fill="#043121"/>
<path d="M434 402H418V418H434V402Z" fill="#043121"/>
<path d="M450 162V146H442C439.878 146 437.843 146.843 436.343 148.343C434.843 149.843 434 151.878 434 154C434 156.122 434.843 158.157 436.343 159.657C437.843 161.157 439.878 162 442 162" fill="#043121"/>
<path d="M434 210V226H442C444.122 226 446.157 225.157 447.657 223.657C449.157 222.157 450 220.122 450 218C450 215.878 449.157 213.843 447.657 212.343C446.157 210.843 444.122 210 442 210" fill="#043121"/>
<path d="M434 242V258H442C444.122 258 446.157 257.157 447.657 255.657C449.157 254.157 450 252.122 450 250C450 247.878 449.157 245.843 447.657 244.343C446.157 242.843 444.122 242 442 242" fill="#043121"/>
<path d="M434 322H450V306H442C439.878 306 437.843 306.843 436.343 308.343C434.843 309.843 434 311.878 434 314" fill="#043121"/>
<path d="M450 338V322H434V330C434 332.122 434.843 334.157 436.343 335.657C437.843 337.157 439.878 338 442 338" fill="#043121"/>
<path d="M434 402H450V386H442C439.878 386 437.843 386.843 436.343 388.343C434.843 389.843 434 391.878 434 394" fill="#043121"/>
<path d="M450 402H434V418H442C444.122 418 446.157 417.157 447.657 415.657C449.157 414.157 450 412.122 450 410" fill="#043121"/>
<path d="M442 450C446.418 450 450 446.418 450 442C450 437.582 446.418 434 442 434C437.582 434 434 437.582 434 442C434 446.418 437.582 450 442 450Z" fill="#043121"/>
<path d="M442 482C446.418 482 450 478.418 450 474C450 469.582 446.418 466 442 466C437.582 466 434 469.582 434 474C434 478.418 437.582 482 442 482Z" fill="#043121"/>
<path d="M450 146V162H466V154C466 151.878 465.157 149.843 463.657 148.343C462.157 146.843 460.122 146 458 146" fill="#043121"/>
<path d="M466 162H450V178H466V162Z" fill="#043121"/>
<path d="M466 178H450V194H466V178Z" fill="#043121"/>
<path d="M466 210V194H450V202C450 204.122 450.843 206.157 452.343 207.657C453.843 209.157 455.878 210 458 210" fill="#043121"/>
<path d="M458 242C462.418 242 466 238.418 466 234C466 229.582 462.418 226 458 226C453.582 226 450 229.582 450 234C450 238.418 453.582 242 458 242Z" fill="#043121"/>
<path d="M458 274C462.418 274 466 270.418 466 266C466 261.582 462.418 258 458 258C453.582 258 450 261.582 450 266C450 270.418 453.582 274 458 274Z" fill="#043121"/>
<path d="M450 306H466V290H458C455.878 290 453.843 290.843 452.343 292.343C450.843 293.843 450 295.878 450 298" fill="#043121"/>
<path d="M466 306H450V322H466V306Z" fill="#043121"/>
<path d="M466 322H450V338H466V322Z" fill="#043121"/>
<path d="M466 354V338H450V346C450 348.122 450.843 350.157 452.343 351.657C453.843 353.157 455.878 354 458 354" fill="#043121"/>
<path d="M450 386H466V370H458C455.878 370 453.843 370.843 452.343 372.343C450.843 373.843 450 375.878 450 378" fill="#043121"/>
<path d="M466 386H450V402H458C460.122 402 462.157 401.157 463.657 399.657C465.157 398.157 466 396.122 466 394" fill="#043121"/>
<path d="M466 466V450H458C455.878 450 453.843 450.843 452.343 452.343C450.843 453.843 450 455.878 450 458C450 460.122 450.843 462.157 452.343 463.657C453.843 465.157 455.878 466 458 466" fill="#043121"/>
<path d="M466 162V178H482V170C482 167.878 481.157 165.843 479.657 164.343C478.157 162.843 476.122 162 474 162" fill="#043121"/>
<path d="M482 178H466V194H482V178Z" fill="#043121"/>
<path d="M482 194H466V210H474C476.122 210 478.157 209.157 479.657 207.657C481.157 206.157 482 204.122 482 202" fill="#043121"/>
<path d="M466 290H482V282C482 279.878 481.157 277.843 479.657 276.343C478.157 274.843 476.122 274 474 274C471.878 274 469.843 274.843 468.343 276.343C466.843 277.843 466 279.878 466 282" fill="#043121"/>
<path d="M482 290H466V306H482V290Z" fill="#043121"/>
<path d="M482 306H466V322H482V306Z" fill="#043121"/>
<path d="M482 322H466V338H482V322Z" fill="#043121"/>
<path d="M482 338H466V354H474C476.122 354 478.157 353.157 479.657 351.657C481.157 350.157 482 348.122 482 346" fill="#043121"/>
<path d="M466 370V386H474C476.122 386 478.157 385.157 479.657 383.657C481.157 382.157 482 380.122 482 378C482 375.878 481.157 373.843 479.657 372.343C478.157 370.843 476.122 370 474 370" fill="#043121"/>
<path d="M474 418C478.418 418 482 414.418 482 410C482 405.582 478.418 402 474 402C469.582 402 466 405.582 466 410C466 414.418 469.582 418 474 418Z" fill="#043121"/>
<path d="M466 450V466H482V458C482 455.878 481.157 453.843 479.657 452.343C478.157 450.843 476.122 450 474 450" fill="#043121"/>
<path d="M482 466H466V474C466 476.122 466.843 478.157 468.343 479.657C469.843 481.157 471.878 482 474 482C476.122 482 478.157 481.157 479.657 479.657C481.157 478.157 482 476.122 482 474" fill="#043121"/>
<path fill-rule="evenodd" clip-rule="evenodd" d="M18 58V90C18 100.609 22.2143 110.783 29.7157 118.284C33.4301 121.999 37.8396 124.945 42.6927 126.955C47.5457 128.965 52.7471 130 58 130H90C100.609 130 110.783 125.786 118.284 118.284C125.786 110.783 130 100.609 130 90V58C130 52.7471 128.965 47.5457 126.955 42.6927C124.945 37.8396 121.999 33.4301 118.284 29.7157C114.57 26.0014 110.16 23.055 105.307 21.0448C100.454 19.0346 95.2529 18 90 18H58C52.7471 18 47.5457 19.0346 42.6927 21.0448C37.8396 23.055 33.4301 26.0014 29.7157 29.7157C22.2143 37.2172 18 47.3913 18 58ZM58 34H90C96.3652 34 102.47 36.5286 106.971 41.0294C111.471 45.5303 114 51.6348 114 58V90C114 96.3652 111.471 102.47 106.971 106.971C102.47 111.471 96.3652 114 90 114H58C51.6348 114 45.5303 111.471 41.0294 106.971C36.5286 102.47 34 96.3652 34 90V58C34 51.6348 36.5286 45.5303 41.0294 41.0294C45.5303 36.5286 51.6348 34 58 34Z" fill="#0A754E"/>
<path d="M74 98C87.2548 98 98 87.2548 98 74C98 60.7452 87.2548 50 74 50C60.7452 50 50 60.7452 50 74C50 87.2548 60.7452 98 74 98Z" fill="#F5B237"/>
<path fill-rule="evenodd" clip-rule="evenodd" d="M442 18H410C399.391 18 389.217 22.2143 381.716 29.7157C374.214 37.2172 370 47.3913 370 58V90C370 100.609 374.214 110.783 381.716 118.284C389.217 125.786 399.391 130 410 130H442C447.253 130 452.454 128.965 457.307 126.955C462.16 124.945 466.57 121.999 470.284 118.284C473.999 114.57 476.945 110.16 478.955 105.307C480.965 100.454 482 95.2529 482 90V58C482 47.3913 477.786 37.2172 470.284 29.7157C462.783 22.2143 452.609 18 442 18ZM466 58V90C466 96.3652 463.471 102.47 458.971 106.971C454.47 111.471 448.365 114 442 114H410C403.635 114 397.53 111.471 393.029 106.971C388.529 102.47 386 96.3652 386 90V58C386 51.6348 388.529 45.5303 393.029 41.0294C397.53 36.5286 403.635 34 410 34H442C448.365 34 454.47 36.5286 458.971 41.0294C463.471 45.5303 466 51.6348 466 58Z" fill="#0A754E"/>
<path d="M402 74C402 87.2548 412.745 98 426 98C439.255 98 450 87.2548 450 74C450 60.7452 439.255 50 426 50C412.745 50 402 60.7452 402 74Z" fill="#06402B"/>
<path fill-rule="evenodd" clip-rule="evenodd" d="M58 482H90C100.609 482 110.783 477.786 118.284 470.284C121.999 466.57 124.945 462.16 126.955 457.307C128.965 452.454 130 447.253 130 442V410C130 399.391 125.786 389.217 118.284 381.716C110.783 374.214 100.609 370 90 370H58C47.3913 370 37.2172 374.214 29.7157 381.716C22.2143 389.217 18 399.391 18 410V442C18 447.253 19.0346 452.454 21.0448 457.307C23.055 462.16 26.0014 466.57 29.7157 470.284C37.2172 477.786 47.3913 482 58 482ZM34 442V410C34 403.635 36.5286 397.53 41.0294 393.029C45.5303 388.529 51.6348 386 58 386H90C96.3652 386 102.47 388.529 106.971 393.029C111.471 397.53 114 403.635 114 410V442C114 448.365 111.471 454.47 106.971 458.971C102.47 463.471 96.3652 466 90 466H58C51.6348 466 45.5303 463.471 41.0294 458.971C36.5286 454.47 34 448.365 34 442Z" fill="#0A754E"/>
<path d="M98 426C98 412.745 87.2548 402 74 402C60.7452 402 50 412.745 50 426C50 439.255 60.7452 450 74 450C87.2548 450 98 439.255 98 426Z" fill="#06402B"/>
</g>
<defs>
<clipPath id="clip0_860_3102">
<rect width="500" height="500" fill="white"/>
</clipPath>
</defs>
</svg>
