<?xml version="1.0" encoding="UTF-8"?>
<svg id="Layer_2" data-name="Layer 2" xmlns="http://www.w3.org/2000/svg" viewBox="0 0 119.66 40">
  <defs>
    <style>
      .cls-1 {
        fill: #a6a6a6;
      }

      .cls-1, .cls-2, .cls-3, .cls-4 {
        stroke-width: 0px;
      }

      .cls-2 {
        fill: none;
      }

      .cls-3 {
        fill: #000;
      }

      .cls-4 {
        fill: #fff;
      }
    </style>
  </defs>
  <g id="Layer_1-2" data-name="Layer 1">
    <g>
      <rect class="cls-2" y="0" width="119.66" height="40"/>
      <path class="cls-1" d="M110.13,0H9.53C9.17,0,8.81,0,8.44,0c-.31,0-.61,0-.92.01-.67,0-1.34.07-2,.18-.66.11-1.3.32-1.9.63-.6.31-1.14.7-1.62,1.18-.48.47-.88,1.02-1.18,1.62-.3.6-.51,1.24-.62,1.9C.08,6.18.02,6.85.02,7.52c0,.31-.01.61-.02.92v23.11c0,.31,0,.61.02.92,0,.67.07,1.34.18,2,.11.66.32,1.31.62,1.9.3.6.7,1.14,1.18,1.61.47.48,1.02.88,1.62,1.18.6.3,1.24.52,1.9.63.66.11,1.33.17,2,.18.31,0,.61.01.92.01.37,0,.73,0,1.09,0h100.6c.36,0,.72,0,1.08,0,.3,0,.62,0,.92-.01.67,0,1.34-.07,2-.18.66-.11,1.31-.33,1.91-.63.6-.3,1.15-.7,1.62-1.18.48-.47.88-1.02,1.18-1.61.3-.6.51-1.24.62-1.9.11-.66.17-1.33.19-2,0-.31,0-.61,0-.92,0-.36,0-.72,0-1.09V9.54c0-.37,0-.73,0-1.09,0-.31,0-.61,0-.92-.01-.67-.07-1.34-.19-2-.11-.66-.32-1.3-.62-1.9-.62-1.2-1.6-2.18-2.8-2.8-.6-.3-1.24-.51-1.91-.63-.66-.11-1.33-.17-2-.18-.31,0-.62-.01-.92-.01-.36,0-.72,0-1.08,0h0Z"/>
      <path class="cls-3" d="M8.44,39.12c-.3,0-.6,0-.9-.01-.63,0-1.25-.06-1.87-.16-.58-.1-1.13-.28-1.66-.55-.52-.26-.99-.6-1.4-1.02-.41-.41-.76-.88-1.02-1.4-.26-.52-.45-1.08-.54-1.66-.1-.62-.16-1.25-.17-1.88,0-.21-.01-.91-.01-.91V8.44s0-.69.01-.89c0-.63.06-1.25.17-1.87.1-.58.28-1.14.54-1.66.26-.52.6-.99,1.02-1.4.41-.41.88-.76,1.4-1.02.52-.26,1.08-.45,1.65-.54.62-.1,1.25-.16,1.88-.16h.9s102.77-.01,102.77-.01h.91c.62.02,1.24.07,1.86.18.58.1,1.14.28,1.67.55,1.04.53,1.88,1.38,2.42,2.42.26.52.44,1.08.53,1.65.1.62.16,1.25.17,1.89,0,.28,0,.59,0,.89,0,.38,0,.73,0,1.09v20.93c0,.36,0,.72,0,1.08,0,.33,0,.62,0,.93-.01.62-.07,1.24-.17,1.85-.09.58-.27,1.14-.54,1.67-.26.51-.61.98-1.01,1.39-.41.41-.88.76-1.4,1.02-.53.27-1.09.45-1.67.55-.62.1-1.24.16-1.87.16-.29,0-.6.01-.9.01h-1.08s-101.69,0-101.69,0Z"/>
      <g>
        <path class="cls-4" d="M24.87,19.34c.01-.83.23-1.65.64-2.38.41-.73,1-1.34,1.71-1.77-.45-.65-1.05-1.18-1.74-1.55-.69-.37-1.46-.58-2.25-.61-1.68-.18-3.31,1-4.16,1s-2.19-.99-3.61-.96c-.92.03-1.81.3-2.6.77-.78.48-1.43,1.15-1.88,1.95-1.93,3.35-.49,8.27,1.36,10.98.93,1.33,2.01,2.81,3.43,2.75,1.39-.06,1.91-.88,3.58-.88s2.14.88,3.59.85c1.49-.02,2.43-1.33,3.32-2.67.67-.94,1.18-1.99,1.52-3.09-.86-.37-1.6-.98-2.12-1.76-.52-.78-.8-1.7-.8-2.64Z"/>
        <path class="cls-4" d="M22.14,11.25c.81-.97,1.21-2.23,1.11-3.49-1.24.13-2.39.72-3.21,1.66-.4.46-.71.99-.91,1.57-.2.58-.28,1.19-.24,1.79.62,0,1.23-.13,1.79-.39.56-.27,1.05-.65,1.44-1.14Z"/>
        <path class="cls-4" d="M42.4,26.18h-4.73l-1.14,3.36h-2l4.48-12.42h2.08l4.48,12.42h-2.04l-1.14-3.36ZM38.16,24.63h3.75l-1.85-5.45h-.05l-1.85,5.45Z"/>
        <path class="cls-4" d="M55.26,25.01c0,2.81-1.51,4.62-3.78,4.62-.58.03-1.15-.1-1.65-.38-.5-.28-.92-.7-1.2-1.2h-.04v4.48h-1.86v-12.05h1.8v1.51h.03c.29-.5.71-.92,1.22-1.2.51-.28,1.08-.42,1.66-.4,2.3,0,3.81,1.82,3.81,4.62ZM53.35,25.01c0-1.83-.95-3.04-2.39-3.04s-2.38,1.23-2.38,3.04.96,3.05,2.38,3.05,2.39-1.2,2.39-3.05Z"/>
        <path class="cls-4" d="M65.23,25.01c0,2.81-1.51,4.62-3.78,4.62-.58.03-1.15-.1-1.65-.38s-.92-.7-1.2-1.2h-.04v4.48h-1.86v-12.05h1.8v1.51h.03c.29-.5.71-.92,1.22-1.2.51-.28,1.08-.42,1.66-.4,2.3,0,3.81,1.82,3.81,4.62ZM63.32,25.01c0-1.83-.95-3.04-2.39-3.04s-2.38,1.23-2.38,3.04.96,3.05,2.38,3.05,2.39-1.2,2.39-3.05h0Z"/>
        <path class="cls-4" d="M71.81,26.07c.14,1.23,1.33,2.04,2.97,2.04s2.69-.81,2.69-1.92c0-.96-.68-1.54-2.29-1.94l-1.61-.39c-2.28-.55-3.34-1.62-3.34-3.35,0-2.14,1.87-3.61,4.52-3.61s4.42,1.47,4.48,3.61h-1.88c-.11-1.24-1.14-1.99-2.63-1.99s-2.52.76-2.52,1.86c0,.88.65,1.39,2.25,1.79l1.37.34c2.55.6,3.61,1.63,3.61,3.44,0,2.32-1.85,3.78-4.79,3.78-2.75,0-4.61-1.42-4.73-3.67h1.9Z"/>
        <path class="cls-4" d="M83.45,18.34v2.14h1.72v1.47h-1.72v4.99c0,.78.34,1.14,1.1,1.14.2,0,.41-.02.61-.04v1.46c-.34.06-.69.09-1.03.09-1.83,0-2.55-.69-2.55-2.44v-5.19h-1.32v-1.47h1.32v-2.14h1.87Z"/>
        <path class="cls-4" d="M86.17,25.01c0-2.85,1.68-4.64,4.29-4.64s4.29,1.79,4.29,4.64-1.66,4.64-4.29,4.64-4.29-1.78-4.29-4.64ZM92.86,25.01c0-1.95-.9-3.11-2.4-3.11s-2.4,1.16-2.4,3.11.89,3.11,2.4,3.11,2.4-1.14,2.4-3.11h0Z"/>
        <path class="cls-4" d="M96.29,20.48h1.77v1.54h.04c.12-.48.4-.91.8-1.2.4-.3.88-.45,1.38-.43.21,0,.43.02.64.07v1.74c-.27-.08-.55-.12-.83-.11-.27-.01-.54.04-.79.14-.25.1-.47.26-.66.46-.18.2-.32.43-.41.69-.08.26-.11.53-.08.8v5.37h-1.86v-9.05Z"/>
        <path class="cls-4" d="M109.49,26.87c-.25,1.64-1.85,2.77-3.9,2.77-2.63,0-4.27-1.76-4.27-4.6s1.64-4.68,4.19-4.68,4.08,1.72,4.08,4.47v.64h-6.4v.11c-.03.33.01.67.12.98s.29.6.52.85c.23.24.51.43.82.56.31.13.64.19.98.17.44.04.88-.06,1.26-.29.38-.23.67-.57.83-.98h1.76ZM103.2,24.17h4.53c.02-.3-.03-.6-.13-.88-.1-.28-.27-.54-.47-.75-.21-.22-.46-.39-.74-.5-.28-.11-.57-.17-.88-.16-.3,0-.6.06-.88.17-.28.11-.53.28-.75.5-.21.21-.38.47-.5.75-.12.28-.18.58-.17.88h0Z"/>
        <path class="cls-4" d="M37.93,7.77c.39-.03.78.03,1.14.17.36.14.69.36.96.65.27.28.47.62.59.99.12.37.16.76.11,1.15,0,1.91-1.03,3-2.81,3h-2.16v-5.97h2.16ZM36.7,12.89h1.12c.28.02.56-.03.82-.13.26-.1.49-.27.68-.47.19-.21.33-.45.41-.72.08-.27.1-.55.06-.82.04-.27.01-.55-.07-.82-.08-.26-.22-.51-.41-.71-.19-.2-.42-.36-.68-.47-.26-.1-.53-.15-.81-.13h-1.12v4.28Z"/>
        <path class="cls-4" d="M41.78,11.48c-.03-.3,0-.59.1-.88.09-.28.25-.54.45-.76.2-.22.44-.4.72-.52.27-.12.57-.18.86-.18s.59.06.86.18c.27.12.52.3.72.52.2.22.35.48.45.76.09.28.13.58.1.88.03.3,0,.6-.1.88-.09.28-.25.54-.45.76-.2.22-.44.4-.72.52-.27.12-.57.18-.86.18s-.59-.06-.86-.18c-.27-.12-.52-.3-.72-.52-.2-.22-.35-.48-.45-.76-.09-.28-.13-.58-.1-.88ZM45.12,11.48c0-.98-.44-1.55-1.21-1.55s-1.21.57-1.21,1.55.43,1.55,1.21,1.55,1.21-.57,1.21-1.55h0Z"/>
        <path class="cls-4" d="M51.68,13.73h-.92l-.93-3.32h-.07l-.93,3.32h-.91l-1.24-4.5h.9l.81,3.44h.07l.93-3.44h.85l.93,3.44h.07l.8-3.44h.89l-1.24,4.5Z"/>
        <path class="cls-4" d="M53.96,9.23h.86v.72h.07c.11-.26.3-.47.54-.62.24-.14.52-.21.8-.19.22-.02.44.02.64.1s.39.21.54.37c.15.16.26.35.33.56.07.21.08.43.05.65v2.91h-.89v-2.69c0-.72-.31-1.08-.97-1.08-.15,0-.3.02-.44.07-.14.06-.26.14-.36.25-.1.11-.18.24-.23.38-.05.14-.06.29-.05.44v2.63h-.89v-4.5Z"/>
        <path class="cls-4" d="M59.2,7.47h.89v6.26h-.89v-6.26Z"/>
        <path class="cls-4" d="M61.32,11.48c-.03-.3,0-.59.1-.88.09-.28.25-.54.45-.76.2-.22.44-.4.72-.52.27-.12.57-.18.86-.18s.59.06.86.18c.27.12.52.3.72.52.2.22.35.48.45.76.09.28.13.58.1.88.03.3,0,.6-.1.88-.09.28-.25.54-.45.76-.2.22-.44.4-.72.52-.27.12-.57.18-.86.18s-.59-.06-.86-.18c-.27-.12-.52-.3-.72-.52s-.35-.48-.45-.76c-.09-.28-.13-.58-.1-.88ZM64.65,11.48c0-.98-.44-1.55-1.21-1.55s-1.21.57-1.21,1.55.43,1.55,1.21,1.55,1.21-.57,1.21-1.55h0Z"/>
        <path class="cls-4" d="M66.5,12.46c0-.81.6-1.28,1.67-1.34l1.22-.07v-.39c0-.48-.31-.74-.92-.74-.5,0-.84.18-.94.5h-.86c.09-.77.82-1.27,1.84-1.27,1.13,0,1.77.56,1.77,1.51v3.08h-.86v-.63h-.07c-.14.23-.34.41-.58.54s-.5.18-.77.17c-.19.02-.38,0-.56-.06-.18-.06-.35-.15-.49-.28-.14-.13-.25-.28-.33-.46-.08-.17-.12-.36-.12-.55ZM69.4,12.08v-.38l-1.1.07c-.62.04-.9.25-.9.65s.35.64.84.64c.14.01.28,0,.42-.04.14-.04.26-.11.37-.2.11-.09.2-.2.26-.33.06-.13.1-.27.11-.41Z"/>
        <path class="cls-4" d="M71.45,11.48c0-1.42.73-2.32,1.87-2.32.28-.01.56.05.81.19.24.14.44.35.58.6h.07v-2.47h.89v6.26h-.85v-.71h-.07c-.14.25-.35.45-.6.59-.25.14-.53.21-.82.2-1.15,0-1.87-.9-1.87-2.33ZM72.37,11.48c0,.95.45,1.53,1.2,1.53s1.21-.58,1.21-1.53-.47-1.53-1.21-1.53-1.2.58-1.2,1.53h0Z"/>
        <path class="cls-4" d="M79.33,11.48c-.03-.3,0-.59.1-.88.09-.28.25-.54.45-.76.2-.22.44-.4.72-.52.27-.12.57-.18.86-.18s.59.06.86.18c.27.12.52.3.72.52.2.22.35.48.45.76.09.28.13.58.1.88.03.3,0,.6-.1.88-.09.28-.25.54-.45.76-.2.22-.44.4-.72.52-.27.12-.57.18-.86.18s-.59-.06-.86-.18c-.27-.12-.52-.3-.72-.52-.2-.22-.35-.48-.45-.76-.09-.28-.13-.58-.1-.88ZM82.67,11.48c0-.98-.44-1.55-1.21-1.55s-1.21.57-1.21,1.55.43,1.55,1.21,1.55,1.21-.57,1.21-1.55Z"/>
        <path class="cls-4" d="M84.77,9.23h.86v.72h.07c.11-.26.3-.47.54-.62.24-.14.52-.21.8-.19.22-.02.44.02.64.1.2.08.39.21.54.37.15.16.26.35.33.56.07.21.08.43.05.65v2.91h-.89v-2.69c0-.72-.31-1.08-.97-1.08-.15,0-.3.02-.44.07-.14.06-.26.14-.36.25-.1.11-.18.24-.23.38-.05.14-.06.29-.05.44v2.63h-.89v-4.5Z"/>
        <path class="cls-4" d="M93.62,8.11v1.14h.98v.75h-.98v2.32c0,.47.19.68.64.68.11,0,.23,0,.34-.02v.74c-.16.03-.32.04-.48.05-.99,0-1.38-.35-1.38-1.22v-2.54h-.71v-.75h.71v-1.14h.89Z"/>
        <path class="cls-4" d="M95.81,7.47h.88v2.48h.07c.12-.26.31-.48.56-.62.25-.14.53-.21.81-.19.22-.01.44.02.64.11.2.08.38.21.53.37.15.16.26.35.32.56.07.21.08.43.06.64v2.91h-.89v-2.69c0-.72-.33-1.08-.96-1.08-.15-.01-.31,0-.45.06-.14.05-.27.14-.38.25-.11.11-.19.24-.24.38-.05.14-.07.3-.06.45v2.63h-.89v-6.26Z"/>
        <path class="cls-4" d="M104.86,12.52c-.12.41-.38.77-.74,1.01-.36.24-.79.34-1.21.3-.3,0-.59-.05-.86-.17-.27-.12-.52-.29-.71-.51-.2-.22-.34-.48-.43-.77-.09-.28-.11-.58-.07-.88-.04-.29-.01-.59.07-.88.09-.28.23-.55.43-.77.2-.22.44-.4.71-.52.27-.12.57-.18.86-.18,1.25,0,2.01.86,2.01,2.27v.31h-3.18v.05c-.01.17,0,.33.06.49.05.16.14.3.25.42.11.12.25.22.4.28.15.07.32.1.48.1.21.03.43-.01.62-.11.19-.1.35-.25.45-.44h.85ZM101.74,11.07h2.28c.01-.15-.01-.3-.06-.45-.05-.14-.13-.27-.24-.38-.11-.11-.23-.2-.37-.25s-.29-.09-.44-.08c-.15,0-.31.03-.45.08-.14.06-.27.14-.38.25-.11.11-.19.24-.25.38-.06.14-.09.29-.09.45h0Z"/>
      </g>
    </g>
  </g>
</svg>