<svg width="44" height="44" viewBox="0 0 44 44" fill="none" xmlns="http://www.w3.org/2000/svg">
<g clip-path="url(#clip0_727_8615)">
<path d="M40 8H22C18 8 18 4 14 4H4C2.93913 4 1.92172 4.42143 1.17157 5.17157C0.421427 5.92172 0 6.93913 0 8L0 36C0 37.0609 0.421427 38.0783 1.17157 38.8284C1.92172 39.5786 2.93913 40 4 40H40C41.0609 40 42.0783 39.5786 42.8284 38.8284C43.5786 38.0783 44 37.0609 44 36V12C44 10.9391 43.5786 9.92172 42.8284 9.17157C42.0783 8.42143 41.0609 8 40 8ZM42 36C42 36.5304 41.7893 37.0391 41.4142 37.4142C41.0391 37.7893 40.5304 38 40 38H4C3.46957 38 2.96086 37.7893 2.58579 37.4142C2.21071 37.0391 2 36.5304 2 36V16L42 14V36ZM42 14L2 16V8C2 7.46957 2.21071 6.96086 2.58579 6.58579C2.96086 6.21071 3.46957 6 4 6H14C17 6 17 10 22 10H40C40.5304 10 41.0391 10.2107 41.4142 10.5858C41.7893 10.9609 42 11.4696 42 12V14Z" fill="#E7F1ED"/>
<path d="M30 19.9305C30 20.6809 29.9422 21.4181 29.8309 22.1379C29.5993 23.6326 29.1365 25.0526 28.4789 26.3621C27.5855 28.143 26.3321 29.7193 24.8118 31H19.8606L19.3787 29.3931L18.4698 26.3621L17.2029 22.1379H14.3908L14.2408 21.6379L13 17.5003H20.6558L21.1308 19.0844L22.0466 22.1379L23.3135 26.3621L23.3302 26.4179C23.3457 26.3994 23.3609 26.3807 23.3756 26.3621C24.3619 25.1465 25.0746 23.7089 25.4232 22.1379C25.581 21.4267 25.664 20.688 25.664 19.9305C25.664 19.0975 25.5634 18.2878 25.3737 17.5119L25.4054 17.5003L29.4536 16C29.5931 16.4901 29.7073 16.9907 29.7945 17.5003C29.9296 18.2906 30 19.1026 30 19.9305Z" fill="#F5B237"/>
</g>
<defs>
<clipPath id="clip0_727_8615">
<rect width="44" height="36" fill="white" transform="translate(0 4)"/>
</clipPath>
</defs>
</svg>
