<?xml version="1.0" encoding="UTF-8"?>
<svg id="Layer_2" data-name="Layer 2" xmlns="http://www.w3.org/2000/svg" viewBox="0 0 289.74 88.58">
  <defs>
    <style>
      .cls-1 {
        fill: #080b10;
      }

      .cls-1, .cls-2 {
        stroke-width: 0px;
      }

      .cls-3 {
        fill: #cf2027;
      }

      .cls-2 {
        fill: #fff;
        fill-rule: evenodd;
      }
    </style>
  </defs>
  <g id="Layer_1-2" data-name="Layer 1">
    <g>
      <path class="cls-3" d="M177.15,80.1c0,4.68-4.32,8.47-8.99,8.47H7.94c-4.68,0-7.94-3.79-7.94-8.47V8.47C0,3.79,3.27,0,7.94,0h160.21c4.68,0,8.99,3.79,8.99,8.47v71.63Z"/>
      <g>
        <path class="cls-1" d="M202.47,27.24c-4.02,0-7.18,1.65-9.43,4.94h-.13v-3.96h-10.68v45.68h11.21v-15.16h.13c2.31,3.1,5.61,4.68,9.76,4.68,9.69,0,14.44-8.44,14.44-17.33,0-9.69-4.55-18.85-15.29-18.85ZM199.84,54.86c-5.08,0-6.79-3.89-6.79-9.89,0-7.12,3.89-9.16,6.85-9.16,5.01,0,6.66,4.81,6.66,9.16,0,4.68-1.78,9.89-6.72,9.89Z"/>
        <path class="cls-1" d="M252.83,38.71c0-9.69-7.84-11.47-15.95-11.47-3.96,0-7.78.59-10.88,2.37-3.1,1.78-5.14,4.68-5.34,9.16h10.48c.53-2.83,2.37-4.29,5.6-4.29,2.31,0,5.41.99,5.41,3.56,0,2.11-1.06,2.7-2.97,3.16-7.78,1.58-19.91.79-19.91,11.87,0,7.05,5.07,10.35,11.67,10.35,4.15,0,8.37-1.12,11.27-4.22.2,1.12.2,2.18.66,3.23h11.27c-1.32-2.7-1.32-5.87-1.32-8.77v-14.97ZM235.17,56.51c-2.57,0-4.68-1.06-4.68-3.89s2.04-3.76,4.62-4.35c2.44-.72,5.34-.86,6.92-1.84.26,7.12-1.51,10.08-6.85,10.08Z"/>
        <path class="cls-1" d="M278.27,28.23l-6.46,22.28h-.13l-6.46-22.28h-11.87l8.83,23.8c.66,1.85,2.84,7.12,2.84,8.97,0,2.37-1.91,3.82-4.48,3.82h-3.89v9.1h5.27c7.51,0,11.67-.92,14.3-8.44l13.51-37.24h-11.47Z"/>
      </g>
      <g>
        <path class="cls-2" d="M149.19,44.82c-.86-2.96-2.19-5.46-3.99-7.5-1.81-2.03-4.12-3.58-6.93-4.64-2.82-1.06-6.16-1.58-10.03-1.58-3.11,0-5.94.54-8.48,1.62-2.54,1.08-4.71,2.56-6.52,4.45-1.31,1.36-2.4,2.89-3.28,4.57-.18-1.19-.48-2.27-.9-3.25-.73-1.66-1.72-3.03-2.98-4.11-1.26-1.08-2.69-1.9-4.3-2.45-1.61-.55-3.29-.83-5.05-.83-3.01,0-5.54.5-7.57,1.51-2.04,1-3.76,2.49-5.16,4.45h-.15v-4.97h-14.4v8.87c-.72-1.31-1.58-2.52-2.6-3.63-1.73-1.89-3.94-3.39-6.63-4.52-2.69-1.13-5.87-1.7-9.53-1.7s-6.85.57-9.53,1.7c-2.12.89-3.94,2.02-5.46,3.38v-4.1h-7.84c-.1-1.81.19-3.04.87-3.69.68-.65,1.92-.98,3.73-.98.6,0,1.21.06,1.81.19.6.13,1.2.24,1.81.34v-10.25c-1.16-.05-2.27-.11-3.35-.19-1.08-.08-2.2-.11-3.36-.11-3.01,0-5.54.21-7.57.64-2.03.43-3.86,1.45-5.46,3.05-1.46,1.46-2.36,3.18-2.71,5.16-.35,1.99-.48,3.93-.38,5.84h-6.1v9.19h6.1v29.92h14.92v-29.92h3.59c-.43.82-.79,1.67-1.1,2.56-.86,2.46-1.28,5.05-1.28,7.76s.43,5.31,1.28,7.8c.85,2.49,2.15,4.67,3.88,6.56,1.73,1.88,3.94,3.39,6.63,4.52,2.69,1.13,5.87,1.7,9.53,1.7s6.85-.57,9.53-1.7c2.69-1.13,4.9-2.64,6.63-4.52,1.02-1.11,1.88-2.33,2.6-3.64v8.88h14.92v-20.65c0-1.55.19-2.83.57-3.81.38-.98.85-1.75,1.43-2.3.58-.55,1.22-.93,1.92-1.13.7-.2,1.38-.3,2.04-.3,1.1,0,1.97.19,2.6.57.63.38,1.12.9,1.47,1.58.35.68.58,1.5.68,2.45.1.96.15,1.99.15,3.09v20.5h14.92v-8.92c.99,1.75,2.22,3.28,3.69,4.59,1.96,1.73,4.28,3.05,6.97,3.96,2.69.9,5.59,1.36,8.71,1.36,2.21,0,4.36-.25,6.45-.75,2.08-.5,4.02-1.26,5.8-2.26,1.78-1,3.35-2.28,4.71-3.84,1.36-1.56,2.41-3.39,3.16-5.5h-13.87c-.61.95-1.51,1.66-2.69,2.11-1.19.45-2.39.68-3.6.68-2.37,0-4.19-.7-5.45-2.11-1.26-1.41-2-3.24-2.2-5.5h28.64c0-3.82-.43-7.21-1.28-10.18ZM56.91,54.88c-.13,1.13-.41,2.17-.87,3.13-.45.96-1.11,1.75-1.96,2.37-.86.63-1.99.94-3.39.94s-2.54-.31-3.39-.94c-.86-.63-1.51-1.42-1.96-2.37-.45-.95-.74-2-.87-3.13-.13-1.13-.19-2.22-.19-3.28s.06-2.15.19-3.28c.13-1.13.41-2.16.87-3.09.45-.93,1.1-1.71,1.96-2.34.85-.63,1.99-.94,3.39-.94s2.54.31,3.39.94c.85.63,1.51,1.41,1.96,2.34.45.93.74,1.96.87,3.09.13,1.13.19,2.22.19,3.28s-.06,2.15-.19,3.28ZM121.91,47.23c.35-2.11,1.15-3.73,2.41-4.86,1.26-1.13,3.02-1.69,5.28-1.69,1.91,0,3.48.64,4.71,1.92,1.23,1.28,1.85,2.83,1.85,4.64h-14.24Z"/>
        <path class="cls-2" d="M143.41,16.22c-.13,1.74-.26,3.48-.39,5.2,9.43,1.56,14.82,6.99,16.35,16.36,1.76-.14,3.51-.28,5.33-.42-.84-12.81-12.26-21.21-21.29-21.14Z"/>
        <path class="cls-2" d="M144.11,26.32c-.14,1.74-.28,3.49-.42,5.34,3.18.54,4.89,2.45,5.49,5.45,1.85-.15,3.6-.29,5.34-.43-.03-5.17-5.56-10.67-10.41-10.36Z"/>
      </g>
    </g>
  </g>
</svg>