<?xml version="1.0" encoding="UTF-8"?>
<svg id="Layer_2" data-name="Layer 2" xmlns="http://www.w3.org/2000/svg" viewBox="0 0 119.66 40">
  <defs>
    <style>
      .cls-1 {
        fill: #a6a6a6;
      }

      .cls-1, .cls-2, .cls-3, .cls-4, .cls-5, .cls-6, .cls-7, .cls-8 {
        stroke-width: 0px;
      }

      .cls-2 {
        fill: none;
      }

      .cls-3 {
        fill: #f6b60b;
      }

      .cls-9 {
        stroke: #fff;
        stroke-miterlimit: 10;
        stroke-width: .27px;
      }

      .cls-9, .cls-8 {
        fill: #fff;
      }

      .cls-4 {
        fill: #000;
      }

      .cls-5 {
        fill: #3bad49;
      }

      .cls-6 {
        fill: #5778c5;
      }

      .cls-7 {
        fill: #eb3131;
      }
    </style>
  </defs>
  <g id="Layer_1-2" data-name="Layer 1">
    <g>
      <rect class="cls-2" y="0" width="119.66" height="40"/>
      <path class="cls-1" d="M110.13,0H9.53C9.17,0,8.81,0,8.44,0c-.31,0-.61,0-.92.01-.67,0-1.34.07-2,.18-.66.11-1.3.32-1.9.63-.6.31-1.14.7-1.62,1.18-.48.47-.88,1.02-1.18,1.62-.3.6-.51,1.24-.62,1.9C.08,6.18.02,6.85.02,7.52c0,.31-.01.61-.02.92v23.11c0,.31,0,.61.02.92,0,.67.07,1.34.18,2,.11.66.32,1.31.62,1.9.3.6.7,1.14,1.18,1.61.47.48,1.02.88,1.62,1.18.6.3,1.24.52,1.9.63.66.11,1.33.17,2,.18.31,0,.61.01.92.01.37,0,.73,0,1.09,0h100.6c.36,0,.72,0,1.08,0,.3,0,.62,0,.92-.01.67,0,1.34-.07,2-.18.66-.11,1.31-.33,1.91-.63.6-.3,1.15-.7,1.62-1.18.48-.47.88-1.02,1.18-1.61.3-.6.51-1.24.62-1.9.11-.66.17-1.33.19-2,0-.31,0-.61,0-.92,0-.36,0-.72,0-1.09V9.54c0-.37,0-.73,0-1.09,0-.31,0-.61,0-.92-.01-.67-.07-1.34-.19-2-.11-.66-.32-1.3-.62-1.9-.62-1.2-1.6-2.18-2.8-2.8-.6-.3-1.24-.51-1.91-.63-.66-.11-1.33-.17-2-.18-.31,0-.62-.01-.92-.01-.36,0-.72,0-1.08,0h0Z"/>
      <path class="cls-4" d="M8.44,39.12c-.3,0-.6,0-.9-.01-.63,0-1.25-.06-1.87-.16-.58-.1-1.13-.28-1.66-.55-.52-.26-.99-.6-1.4-1.02-.41-.41-.76-.88-1.02-1.4-.26-.52-.45-1.08-.54-1.66-.1-.62-.16-1.25-.17-1.88,0-.21-.01-.91-.01-.91V8.44s0-.69.01-.89c0-.63.06-1.25.17-1.87.1-.58.28-1.14.54-1.66.26-.52.6-.99,1.02-1.4.41-.41.88-.76,1.4-1.02.52-.26,1.08-.45,1.65-.54.62-.1,1.25-.16,1.88-.16h.9s102.77-.01,102.77-.01h.91c.62.02,1.24.07,1.86.18.58.1,1.14.28,1.67.55,1.04.53,1.88,1.38,2.42,2.42.26.52.44,1.08.53,1.65.1.62.16,1.25.17,1.89,0,.28,0,.59,0,.89,0,.38,0,.73,0,1.09v20.93c0,.36,0,.72,0,1.08,0,.33,0,.62,0,.93-.01.62-.07,1.24-.17,1.85-.09.58-.27,1.14-.54,1.67-.26.51-.61.98-1.01,1.39-.41.41-.88.76-1.4,1.02-.53.27-1.09.45-1.67.55-.62.1-1.24.16-1.87.16-.29,0-.6.01-.9.01h-1.08s-101.69,0-101.69,0Z"/>
      <g>
        <path id="path35" class="cls-8" d="M94.04,28.36h1.63v-10.95h-1.63v10.95ZM108.77,21.35l-1.87,4.75h-.06l-1.95-4.75h-1.76l2.92,6.64-1.66,3.69h1.71l4.5-10.33h-1.82ZM99.49,27.11c-.53,0-1.28-.27-1.28-.93,0-.85.93-1.17,1.73-1.17.72,0,1.06.15,1.49.37-.13,1.01-1,1.73-1.95,1.73h0ZM99.69,21.11c-1.18,0-2.41.52-2.92,1.68l1.45.61c.31-.61.89-.8,1.49-.8.85,0,1.71.51,1.72,1.41v.11c-.3-.17-.93-.42-1.71-.42-1.56,0-3.16.86-3.16,2.47,0,1.47,1.28,2.41,2.72,2.41,1.1,0,1.71-.49,2.09-1.07h.06v.85h1.58v-4.2c0-1.94-1.45-3.03-3.33-3.03h0ZM89.59,22.68h-2.33v-3.75h2.33c1.22,0,1.92,1.01,1.92,1.88s-.69,1.88-1.92,1.88ZM89.54,17.4h-3.92v10.95h1.63v-4.15h2.28c1.81,0,3.59-1.31,3.59-3.4s-1.78-3.4-3.59-3.4h0ZM68.18,27.12c-1.13,0-2.07-.95-2.07-2.24s.95-2.27,2.07-2.27,1.99.96,1.99,2.27-.88,2.24-1.99,2.24ZM70.06,21.96h-.06c-.37-.44-1.07-.83-1.96-.83-1.86,0-3.57,1.64-3.57,3.74s1.71,3.71,3.57,3.71c.89,0,1.59-.4,1.96-.85h.06v.54c0,1.43-.76,2.19-1.99,2.19-1,0-1.62-.72-1.88-1.33l-1.43.59c.41.99,1.5,2.2,3.3,2.2,1.92,0,3.54-1.13,3.54-3.88v-6.69h-1.55v.61ZM72.74,28.36h1.64v-10.95h-1.64v10.95ZM76.79,24.74c-.04-1.44,1.12-2.17,1.95-2.17.65,0,1.2.32,1.38.79l-3.33,1.38ZM81.87,23.5c-.31-.83-1.26-2.37-3.19-2.37s-3.51,1.51-3.51,3.73c0,2.09,1.58,3.73,3.7,3.73,1.71,0,2.7-1.04,3.11-1.65l-1.27-.85c-.42.62-1,1.03-1.84,1.03s-1.43-.38-1.81-1.13l4.98-2.06-.17-.42ZM42.18,22.27v1.58h3.78c-.11.89-.41,1.54-.86,1.99-.55.55-1.41,1.16-2.92,1.16-2.33,0-4.15-1.88-4.15-4.21s1.82-4.21,4.15-4.21c1.26,0,2.17.49,2.85,1.13l1.12-1.12c-.95-.9-2.2-1.59-3.97-1.59-3.19,0-5.87,2.6-5.87,5.79s2.68,5.79,5.87,5.79c1.72,0,3.02-.56,4.04-1.62,1.04-1.04,1.37-2.51,1.37-3.7,0-.37-.03-.71-.08-.99h-5.32ZM51.88,27.12c-1.13,0-2.1-.93-2.1-2.26s.97-2.26,2.1-2.26,2.1.92,2.1,2.26-.97,2.26-2.1,2.26ZM51.88,21.13c-2.06,0-3.74,1.57-3.74,3.73s1.68,3.73,3.74,3.73,3.74-1.58,3.74-3.73-1.68-3.73-3.74-3.73ZM60.04,27.12c-1.13,0-2.1-.93-2.1-2.26s.97-2.26,2.1-2.26,2.1.92,2.1,2.26-.97,2.26-2.1,2.26ZM60.04,21.13c-2.06,0-3.74,1.57-3.74,3.73s1.68,3.73,3.74,3.73,3.74-1.58,3.74-3.73-1.68-3.73-3.74-3.73"/>
        <path id="path37" class="cls-7" d="M18.49,19.09l-9.33,9.9s0,0,0,0c.29,1.08,1.27,1.87,2.43,1.87.47,0,.9-.13,1.28-.35l.03-.02,10.5-6.06-4.91-5.35"/>
        <path id="path39" class="cls-3" d="M27.93,17.41h0s-4.53-2.63-4.53-2.63l-5.11,4.54,5.12,5.12,4.51-2.6c.79-.43,1.33-1.26,1.33-2.22s-.53-1.78-1.31-2.21"/>
        <path id="path41" class="cls-6" d="M9.17,10.2c-.06.21-.09.42-.09.65v17.5c0,.22.03.44.09.65l9.65-9.65-9.65-9.14"/>
        <path id="path43" class="cls-5" d="M18.56,19.6l4.83-4.83-10.49-6.08c-.38-.23-.83-.36-1.3-.36-1.17,0-2.15.79-2.43,1.87,0,0,0,0,0,0l9.4,9.4"/>
        <path id="path33" class="cls-9" d="M41.87,10.64h-2.56v.63h1.92c-.05.52-.26.92-.6,1.22-.35.29-.79.44-1.31.44-.57,0-1.06-.2-1.46-.6-.39-.41-.59-.91-.59-1.51s.2-1.1.59-1.51c.4-.4.88-.6,1.46-.6.29,0,.58.05.83.16.26.11.46.27.63.46l.49-.49c-.22-.25-.5-.44-.85-.58-.35-.14-.71-.21-1.1-.21-.77,0-1.41.27-1.94.8-.53.53-.8,1.19-.8,1.96s.27,1.43.8,1.96c.53.53,1.18.8,1.94.8.8,0,1.44-.26,1.94-.78.43-.44.66-1.02.66-1.76,0-.12-.02-.26-.04-.4h0ZM42.86,8.19v5.27h3.08v-.65h-2.4v-1.67h2.17v-.63h-2.17v-1.67h2.4v-.65h-3.08ZM50.26,8.84v-.65h-3.62v.65h1.47v4.62h.68v-4.62h1.47ZM53.54,8.19h-.68v5.27h.68v-5.27ZM58.01,8.84v-.65h-3.62v.65h1.47v4.62h.68v-4.62h1.47ZM64.85,8.87c-.52-.54-1.16-.8-1.93-.8s-1.41.27-1.93.8c-.52.52-.78,1.18-.78,1.96s.26,1.44.78,1.96c.52.53,1.16.8,1.93.8s1.41-.27,1.93-.8c.52-.52.78-1.18.78-1.96s-.26-1.43-.78-1.95ZM61.48,9.32c.39-.4.87-.6,1.44-.6s1.05.2,1.44.6c.39.39.58.9.58,1.51s-.19,1.12-.58,1.51c-.38.4-.86.6-1.44.6s-1.05-.2-1.44-.6c-.38-.4-.57-.9-.57-1.51s.19-1.11.57-1.51ZM67.24,10.18l-.03-1.02h.03l2.68,4.3h.71v-5.27h-.68v3.09l.03,1.02h-.03l-2.56-4.1h-.83v5.27h.68v-3.28Z"/>
      </g>
    </g>
  </g>
</svg>