<?xml version="1.0" standalone="no"?>
<svg xmlns="http://www.w3.org/2000/svg" version="1.1" width="231" height="231">
	<!-- Created with https://api.qrserver.com (QR Code API, see goQR.me/api for information) -->
	<title>QR Code</title>
	<desc>{
  &quot;eSewa_id&quot; : &quot;9844740360&quot;,
  &quot;name&quot; : &quot;SUBARNA BHANDARI&quot;
}</desc>
	<rect style="fill:rgb(255, 255, 255);fill-opacity:1" x="0" y="0" width="231" height="231" />
	<g id="elements">
		<path style="fill:rgb(0, 0, 0)" d="M 0,0 l 7,0 0,7 -7,0 z M 7,0 l 7,0 0,7 -7,0 z M 14,0 l 7,0 0,7 -7,0 z M 21,0 l 7,0 0,7 -7,0 z M 28,0 l 7,0 0,7 -7,0 z M 35,0 l 7,0 0,7 -7,0 z M 42,0 l 7,0 0,7 -7,0 z M 63,0 l 7,0 0,7 -7,0 z M 105,0 l 7,0 0,7 -7,0 z M 112,0 l 7,0 0,7 -7,0 z M 126,0 l 7,0 0,7 -7,0 z M 133,0 l 7,0 0,7 -7,0 z M 147,0 l 7,0 0,7 -7,0 z M 182,0 l 7,0 0,7 -7,0 z M 189,0 l 7,0 0,7 -7,0 z M 196,0 l 7,0 0,7 -7,0 z M 203,0 l 7,0 0,7 -7,0 z M 210,0 l 7,0 0,7 -7,0 z M 217,0 l 7,0 0,7 -7,0 z M 224,0 l 7,0 0,7 -7,0 z M 0,7 l 7,0 0,7 -7,0 z M 42,7 l 7,0 0,7 -7,0 z M 56,7 l 7,0 0,7 -7,0 z M 63,7 l 7,0 0,7 -7,0 z M 77,7 l 7,0 0,7 -7,0 z M 84,7 l 7,0 0,7 -7,0 z M 119,7 l 7,0 0,7 -7,0 z M 126,7 l 7,0 0,7 -7,0 z M 133,7 l 7,0 0,7 -7,0 z M 147,7 l 7,0 0,7 -7,0 z M 161,7 l 7,0 0,7 -7,0 z M 168,7 l 7,0 0,7 -7,0 z M 182,7 l 7,0 0,7 -7,0 z M 224,7 l 7,0 0,7 -7,0 z M 0,14 l 7,0 0,7 -7,0 z M 14,14 l 7,0 0,7 -7,0 z M 21,14 l 7,0 0,7 -7,0 z M 28,14 l 7,0 0,7 -7,0 z M 42,14 l 7,0 0,7 -7,0 z M 63,14 l 7,0 0,7 -7,0 z M 70,14 l 7,0 0,7 -7,0 z M 77,14 l 7,0 0,7 -7,0 z M 98,14 l 7,0 0,7 -7,0 z M 112,14 l 7,0 0,7 -7,0 z M 119,14 l 7,0 0,7 -7,0 z M 161,14 l 7,0 0,7 -7,0 z M 168,14 l 7,0 0,7 -7,0 z M 182,14 l 7,0 0,7 -7,0 z M 196,14 l 7,0 0,7 -7,0 z M 203,14 l 7,0 0,7 -7,0 z M 210,14 l 7,0 0,7 -7,0 z M 224,14 l 7,0 0,7 -7,0 z M 0,21 l 7,0 0,7 -7,0 z M 14,21 l 7,0 0,7 -7,0 z M 21,21 l 7,0 0,7 -7,0 z M 28,21 l 7,0 0,7 -7,0 z M 42,21 l 7,0 0,7 -7,0 z M 56,21 l 7,0 0,7 -7,0 z M 63,21 l 7,0 0,7 -7,0 z M 77,21 l 7,0 0,7 -7,0 z M 119,21 l 7,0 0,7 -7,0 z M 140,21 l 7,0 0,7 -7,0 z M 168,21 l 7,0 0,7 -7,0 z M 182,21 l 7,0 0,7 -7,0 z M 196,21 l 7,0 0,7 -7,0 z M 203,21 l 7,0 0,7 -7,0 z M 210,21 l 7,0 0,7 -7,0 z M 224,21 l 7,0 0,7 -7,0 z M 0,28 l 7,0 0,7 -7,0 z M 14,28 l 7,0 0,7 -7,0 z M 21,28 l 7,0 0,7 -7,0 z M 28,28 l 7,0 0,7 -7,0 z M 42,28 l 7,0 0,7 -7,0 z M 70,28 l 7,0 0,7 -7,0 z M 84,28 l 7,0 0,7 -7,0 z M 91,28 l 7,0 0,7 -7,0 z M 98,28 l 7,0 0,7 -7,0 z M 105,28 l 7,0 0,7 -7,0 z M 140,28 l 7,0 0,7 -7,0 z M 147,28 l 7,0 0,7 -7,0 z M 161,28 l 7,0 0,7 -7,0 z M 168,28 l 7,0 0,7 -7,0 z M 182,28 l 7,0 0,7 -7,0 z M 196,28 l 7,0 0,7 -7,0 z M 203,28 l 7,0 0,7 -7,0 z M 210,28 l 7,0 0,7 -7,0 z M 224,28 l 7,0 0,7 -7,0 z M 0,35 l 7,0 0,7 -7,0 z M 42,35 l 7,0 0,7 -7,0 z M 56,35 l 7,0 0,7 -7,0 z M 70,35 l 7,0 0,7 -7,0 z M 91,35 l 7,0 0,7 -7,0 z M 98,35 l 7,0 0,7 -7,0 z M 105,35 l 7,0 0,7 -7,0 z M 119,35 l 7,0 0,7 -7,0 z M 126,35 l 7,0 0,7 -7,0 z M 168,35 l 7,0 0,7 -7,0 z M 182,35 l 7,0 0,7 -7,0 z M 224,35 l 7,0 0,7 -7,0 z M 0,42 l 7,0 0,7 -7,0 z M 7,42 l 7,0 0,7 -7,0 z M 14,42 l 7,0 0,7 -7,0 z M 21,42 l 7,0 0,7 -7,0 z M 28,42 l 7,0 0,7 -7,0 z M 35,42 l 7,0 0,7 -7,0 z M 42,42 l 7,0 0,7 -7,0 z M 56,42 l 7,0 0,7 -7,0 z M 70,42 l 7,0 0,7 -7,0 z M 84,42 l 7,0 0,7 -7,0 z M 98,42 l 7,0 0,7 -7,0 z M 112,42 l 7,0 0,7 -7,0 z M 126,42 l 7,0 0,7 -7,0 z M 140,42 l 7,0 0,7 -7,0 z M 154,42 l 7,0 0,7 -7,0 z M 168,42 l 7,0 0,7 -7,0 z M 182,42 l 7,0 0,7 -7,0 z M 189,42 l 7,0 0,7 -7,0 z M 196,42 l 7,0 0,7 -7,0 z M 203,42 l 7,0 0,7 -7,0 z M 210,42 l 7,0 0,7 -7,0 z M 217,42 l 7,0 0,7 -7,0 z M 224,42 l 7,0 0,7 -7,0 z M 84,49 l 7,0 0,7 -7,0 z M 91,49 l 7,0 0,7 -7,0 z M 105,49 l 7,0 0,7 -7,0 z M 147,49 l 7,0 0,7 -7,0 z M 161,49 l 7,0 0,7 -7,0 z M 168,49 l 7,0 0,7 -7,0 z M 0,56 l 7,0 0,7 -7,0 z M 7,56 l 7,0 0,7 -7,0 z M 14,56 l 7,0 0,7 -7,0 z M 21,56 l 7,0 0,7 -7,0 z M 28,56 l 7,0 0,7 -7,0 z M 42,56 l 7,0 0,7 -7,0 z M 49,56 l 7,0 0,7 -7,0 z M 56,56 l 7,0 0,7 -7,0 z M 63,56 l 7,0 0,7 -7,0 z M 70,56 l 7,0 0,7 -7,0 z M 84,56 l 7,0 0,7 -7,0 z M 98,56 l 7,0 0,7 -7,0 z M 119,56 l 7,0 0,7 -7,0 z M 126,56 l 7,0 0,7 -7,0 z M 133,56 l 7,0 0,7 -7,0 z M 147,56 l 7,0 0,7 -7,0 z M 175,56 l 7,0 0,7 -7,0 z M 189,56 l 7,0 0,7 -7,0 z M 203,56 l 7,0 0,7 -7,0 z M 217,56 l 7,0 0,7 -7,0 z M 7,63 l 7,0 0,7 -7,0 z M 21,63 l 7,0 0,7 -7,0 z M 28,63 l 7,0 0,7 -7,0 z M 49,63 l 7,0 0,7 -7,0 z M 56,63 l 7,0 0,7 -7,0 z M 63,63 l 7,0 0,7 -7,0 z M 112,63 l 7,0 0,7 -7,0 z M 147,63 l 7,0 0,7 -7,0 z M 161,63 l 7,0 0,7 -7,0 z M 175,63 l 7,0 0,7 -7,0 z M 182,63 l 7,0 0,7 -7,0 z M 189,63 l 7,0 0,7 -7,0 z M 210,63 l 7,0 0,7 -7,0 z M 224,63 l 7,0 0,7 -7,0 z M 42,70 l 7,0 0,7 -7,0 z M 56,70 l 7,0 0,7 -7,0 z M 63,70 l 7,0 0,7 -7,0 z M 77,70 l 7,0 0,7 -7,0 z M 84,70 l 7,0 0,7 -7,0 z M 112,70 l 7,0 0,7 -7,0 z M 161,70 l 7,0 0,7 -7,0 z M 168,70 l 7,0 0,7 -7,0 z M 182,70 l 7,0 0,7 -7,0 z M 189,70 l 7,0 0,7 -7,0 z M 7,77 l 7,0 0,7 -7,0 z M 63,77 l 7,0 0,7 -7,0 z M 70,77 l 7,0 0,7 -7,0 z M 77,77 l 7,0 0,7 -7,0 z M 98,77 l 7,0 0,7 -7,0 z M 119,77 l 7,0 0,7 -7,0 z M 133,77 l 7,0 0,7 -7,0 z M 147,77 l 7,0 0,7 -7,0 z M 168,77 l 7,0 0,7 -7,0 z M 182,77 l 7,0 0,7 -7,0 z M 189,77 l 7,0 0,7 -7,0 z M 203,77 l 7,0 0,7 -7,0 z M 210,77 l 7,0 0,7 -7,0 z M 28,84 l 7,0 0,7 -7,0 z M 42,84 l 7,0 0,7 -7,0 z M 63,84 l 7,0 0,7 -7,0 z M 77,84 l 7,0 0,7 -7,0 z M 105,84 l 7,0 0,7 -7,0 z M 112,84 l 7,0 0,7 -7,0 z M 126,84 l 7,0 0,7 -7,0 z M 147,84 l 7,0 0,7 -7,0 z M 168,84 l 7,0 0,7 -7,0 z M 189,84 l 7,0 0,7 -7,0 z M 196,84 l 7,0 0,7 -7,0 z M 7,91 l 7,0 0,7 -7,0 z M 49,91 l 7,0 0,7 -7,0 z M 63,91 l 7,0 0,7 -7,0 z M 70,91 l 7,0 0,7 -7,0 z M 84,91 l 7,0 0,7 -7,0 z M 91,91 l 7,0 0,7 -7,0 z M 98,91 l 7,0 0,7 -7,0 z M 105,91 l 7,0 0,7 -7,0 z M 112,91 l 7,0 0,7 -7,0 z M 119,91 l 7,0 0,7 -7,0 z M 126,91 l 7,0 0,7 -7,0 z M 133,91 l 7,0 0,7 -7,0 z M 147,91 l 7,0 0,7 -7,0 z M 182,91 l 7,0 0,7 -7,0 z M 189,91 l 7,0 0,7 -7,0 z M 203,91 l 7,0 0,7 -7,0 z M 210,91 l 7,0 0,7 -7,0 z M 224,91 l 7,0 0,7 -7,0 z M 7,98 l 7,0 0,7 -7,0 z M 21,98 l 7,0 0,7 -7,0 z M 28,98 l 7,0 0,7 -7,0 z M 35,98 l 7,0 0,7 -7,0 z M 42,98 l 7,0 0,7 -7,0 z M 49,98 l 7,0 0,7 -7,0 z M 91,98 l 7,0 0,7 -7,0 z M 98,98 l 7,0 0,7 -7,0 z M 105,98 l 7,0 0,7 -7,0 z M 119,98 l 7,0 0,7 -7,0 z M 168,98 l 7,0 0,7 -7,0 z M 189,98 l 7,0 0,7 -7,0 z M 196,98 l 7,0 0,7 -7,0 z M 203,98 l 7,0 0,7 -7,0 z M 210,98 l 7,0 0,7 -7,0 z M 7,105 l 7,0 0,7 -7,0 z M 21,105 l 7,0 0,7 -7,0 z M 84,105 l 7,0 0,7 -7,0 z M 91,105 l 7,0 0,7 -7,0 z M 105,105 l 7,0 0,7 -7,0 z M 133,105 l 7,0 0,7 -7,0 z M 147,105 l 7,0 0,7 -7,0 z M 168,105 l 7,0 0,7 -7,0 z M 189,105 l 7,0 0,7 -7,0 z M 203,105 l 7,0 0,7 -7,0 z M 210,105 l 7,0 0,7 -7,0 z M 14,112 l 7,0 0,7 -7,0 z M 21,112 l 7,0 0,7 -7,0 z M 35,112 l 7,0 0,7 -7,0 z M 42,112 l 7,0 0,7 -7,0 z M 49,112 l 7,0 0,7 -7,0 z M 63,112 l 7,0 0,7 -7,0 z M 84,112 l 7,0 0,7 -7,0 z M 98,112 l 7,0 0,7 -7,0 z M 105,112 l 7,0 0,7 -7,0 z M 112,112 l 7,0 0,7 -7,0 z M 119,112 l 7,0 0,7 -7,0 z M 126,112 l 7,0 0,7 -7,0 z M 168,112 l 7,0 0,7 -7,0 z M 189,112 l 7,0 0,7 -7,0 z M 196,112 l 7,0 0,7 -7,0 z M 203,112 l 7,0 0,7 -7,0 z M 210,112 l 7,0 0,7 -7,0 z M 0,119 l 7,0 0,7 -7,0 z M 7,119 l 7,0 0,7 -7,0 z M 14,119 l 7,0 0,7 -7,0 z M 28,119 l 7,0 0,7 -7,0 z M 105,119 l 7,0 0,7 -7,0 z M 147,119 l 7,0 0,7 -7,0 z M 182,119 l 7,0 0,7 -7,0 z M 189,119 l 7,0 0,7 -7,0 z M 210,119 l 7,0 0,7 -7,0 z M 224,119 l 7,0 0,7 -7,0 z M 0,126 l 7,0 0,7 -7,0 z M 14,126 l 7,0 0,7 -7,0 z M 21,126 l 7,0 0,7 -7,0 z M 28,126 l 7,0 0,7 -7,0 z M 35,126 l 7,0 0,7 -7,0 z M 42,126 l 7,0 0,7 -7,0 z M 77,126 l 7,0 0,7 -7,0 z M 84,126 l 7,0 0,7 -7,0 z M 105,126 l 7,0 0,7 -7,0 z M 112,126 l 7,0 0,7 -7,0 z M 119,126 l 7,0 0,7 -7,0 z M 126,126 l 7,0 0,7 -7,0 z M 154,126 l 7,0 0,7 -7,0 z M 168,126 l 7,0 0,7 -7,0 z M 189,126 l 7,0 0,7 -7,0 z M 203,126 l 7,0 0,7 -7,0 z M 14,133 l 7,0 0,7 -7,0 z M 35,133 l 7,0 0,7 -7,0 z M 49,133 l 7,0 0,7 -7,0 z M 70,133 l 7,0 0,7 -7,0 z M 77,133 l 7,0 0,7 -7,0 z M 98,133 l 7,0 0,7 -7,0 z M 105,133 l 7,0 0,7 -7,0 z M 126,133 l 7,0 0,7 -7,0 z M 133,133 l 7,0 0,7 -7,0 z M 161,133 l 7,0 0,7 -7,0 z M 168,133 l 7,0 0,7 -7,0 z M 182,133 l 7,0 0,7 -7,0 z M 203,133 l 7,0 0,7 -7,0 z M 210,133 l 7,0 0,7 -7,0 z M 224,133 l 7,0 0,7 -7,0 z M 0,140 l 7,0 0,7 -7,0 z M 14,140 l 7,0 0,7 -7,0 z M 21,140 l 7,0 0,7 -7,0 z M 42,140 l 7,0 0,7 -7,0 z M 56,140 l 7,0 0,7 -7,0 z M 70,140 l 7,0 0,7 -7,0 z M 77,140 l 7,0 0,7 -7,0 z M 112,140 l 7,0 0,7 -7,0 z M 126,140 l 7,0 0,7 -7,0 z M 154,140 l 7,0 0,7 -7,0 z M 168,140 l 7,0 0,7 -7,0 z M 189,140 l 7,0 0,7 -7,0 z M 196,140 l 7,0 0,7 -7,0 z M 224,140 l 7,0 0,7 -7,0 z M 0,147 l 7,0 0,7 -7,0 z M 7,147 l 7,0 0,7 -7,0 z M 14,147 l 7,0 0,7 -7,0 z M 21,147 l 7,0 0,7 -7,0 z M 35,147 l 7,0 0,7 -7,0 z M 63,147 l 7,0 0,7 -7,0 z M 84,147 l 7,0 0,7 -7,0 z M 91,147 l 7,0 0,7 -7,0 z M 98,147 l 7,0 0,7 -7,0 z M 105,147 l 7,0 0,7 -7,0 z M 126,147 l 7,0 0,7 -7,0 z M 133,147 l 7,0 0,7 -7,0 z M 147,147 l 7,0 0,7 -7,0 z M 168,147 l 7,0 0,7 -7,0 z M 175,147 l 7,0 0,7 -7,0 z M 203,147 l 7,0 0,7 -7,0 z M 210,147 l 7,0 0,7 -7,0 z M 0,154 l 7,0 0,7 -7,0 z M 21,154 l 7,0 0,7 -7,0 z M 28,154 l 7,0 0,7 -7,0 z M 35,154 l 7,0 0,7 -7,0 z M 42,154 l 7,0 0,7 -7,0 z M 49,154 l 7,0 0,7 -7,0 z M 91,154 l 7,0 0,7 -7,0 z M 98,154 l 7,0 0,7 -7,0 z M 105,154 l 7,0 0,7 -7,0 z M 126,154 l 7,0 0,7 -7,0 z M 133,154 l 7,0 0,7 -7,0 z M 140,154 l 7,0 0,7 -7,0 z M 154,154 l 7,0 0,7 -7,0 z M 161,154 l 7,0 0,7 -7,0 z M 168,154 l 7,0 0,7 -7,0 z M 203,154 l 7,0 0,7 -7,0 z M 210,154 l 7,0 0,7 -7,0 z M 0,161 l 7,0 0,7 -7,0 z M 35,161 l 7,0 0,7 -7,0 z M 56,161 l 7,0 0,7 -7,0 z M 84,161 l 7,0 0,7 -7,0 z M 91,161 l 7,0 0,7 -7,0 z M 105,161 l 7,0 0,7 -7,0 z M 126,161 l 7,0 0,7 -7,0 z M 133,161 l 7,0 0,7 -7,0 z M 147,161 l 7,0 0,7 -7,0 z M 161,161 l 7,0 0,7 -7,0 z M 189,161 l 7,0 0,7 -7,0 z M 196,161 l 7,0 0,7 -7,0 z M 203,161 l 7,0 0,7 -7,0 z M 210,161 l 7,0 0,7 -7,0 z M 217,161 l 7,0 0,7 -7,0 z M 224,161 l 7,0 0,7 -7,0 z M 0,168 l 7,0 0,7 -7,0 z M 21,168 l 7,0 0,7 -7,0 z M 42,168 l 7,0 0,7 -7,0 z M 56,168 l 7,0 0,7 -7,0 z M 70,168 l 7,0 0,7 -7,0 z M 84,168 l 7,0 0,7 -7,0 z M 98,168 l 7,0 0,7 -7,0 z M 105,168 l 7,0 0,7 -7,0 z M 119,168 l 7,0 0,7 -7,0 z M 126,168 l 7,0 0,7 -7,0 z M 147,168 l 7,0 0,7 -7,0 z M 168,168 l 7,0 0,7 -7,0 z M 175,168 l 7,0 0,7 -7,0 z M 182,168 l 7,0 0,7 -7,0 z M 189,168 l 7,0 0,7 -7,0 z M 196,168 l 7,0 0,7 -7,0 z M 203,168 l 7,0 0,7 -7,0 z M 224,168 l 7,0 0,7 -7,0 z M 56,175 l 7,0 0,7 -7,0 z M 63,175 l 7,0 0,7 -7,0 z M 70,175 l 7,0 0,7 -7,0 z M 119,175 l 7,0 0,7 -7,0 z M 147,175 l 7,0 0,7 -7,0 z M 154,175 l 7,0 0,7 -7,0 z M 161,175 l 7,0 0,7 -7,0 z M 168,175 l 7,0 0,7 -7,0 z M 196,175 l 7,0 0,7 -7,0 z M 203,175 l 7,0 0,7 -7,0 z M 210,175 l 7,0 0,7 -7,0 z M 217,175 l 7,0 0,7 -7,0 z M 224,175 l 7,0 0,7 -7,0 z M 0,182 l 7,0 0,7 -7,0 z M 7,182 l 7,0 0,7 -7,0 z M 14,182 l 7,0 0,7 -7,0 z M 21,182 l 7,0 0,7 -7,0 z M 28,182 l 7,0 0,7 -7,0 z M 35,182 l 7,0 0,7 -7,0 z M 42,182 l 7,0 0,7 -7,0 z M 56,182 l 7,0 0,7 -7,0 z M 70,182 l 7,0 0,7 -7,0 z M 77,182 l 7,0 0,7 -7,0 z M 84,182 l 7,0 0,7 -7,0 z M 119,182 l 7,0 0,7 -7,0 z M 126,182 l 7,0 0,7 -7,0 z M 154,182 l 7,0 0,7 -7,0 z M 161,182 l 7,0 0,7 -7,0 z M 168,182 l 7,0 0,7 -7,0 z M 182,182 l 7,0 0,7 -7,0 z M 196,182 l 7,0 0,7 -7,0 z M 203,182 l 7,0 0,7 -7,0 z M 217,182 l 7,0 0,7 -7,0 z M 0,189 l 7,0 0,7 -7,0 z M 42,189 l 7,0 0,7 -7,0 z M 77,189 l 7,0 0,7 -7,0 z M 98,189 l 7,0 0,7 -7,0 z M 105,189 l 7,0 0,7 -7,0 z M 133,189 l 7,0 0,7 -7,0 z M 161,189 l 7,0 0,7 -7,0 z M 168,189 l 7,0 0,7 -7,0 z M 196,189 l 7,0 0,7 -7,0 z M 203,189 l 7,0 0,7 -7,0 z M 210,189 l 7,0 0,7 -7,0 z M 224,189 l 7,0 0,7 -7,0 z M 0,196 l 7,0 0,7 -7,0 z M 14,196 l 7,0 0,7 -7,0 z M 21,196 l 7,0 0,7 -7,0 z M 28,196 l 7,0 0,7 -7,0 z M 42,196 l 7,0 0,7 -7,0 z M 56,196 l 7,0 0,7 -7,0 z M 70,196 l 7,0 0,7 -7,0 z M 77,196 l 7,0 0,7 -7,0 z M 119,196 l 7,0 0,7 -7,0 z M 126,196 l 7,0 0,7 -7,0 z M 147,196 l 7,0 0,7 -7,0 z M 154,196 l 7,0 0,7 -7,0 z M 168,196 l 7,0 0,7 -7,0 z M 175,196 l 7,0 0,7 -7,0 z M 182,196 l 7,0 0,7 -7,0 z M 189,196 l 7,0 0,7 -7,0 z M 196,196 l 7,0 0,7 -7,0 z M 0,203 l 7,0 0,7 -7,0 z M 14,203 l 7,0 0,7 -7,0 z M 21,203 l 7,0 0,7 -7,0 z M 28,203 l 7,0 0,7 -7,0 z M 42,203 l 7,0 0,7 -7,0 z M 56,203 l 7,0 0,7 -7,0 z M 84,203 l 7,0 0,7 -7,0 z M 91,203 l 7,0 0,7 -7,0 z M 98,203 l 7,0 0,7 -7,0 z M 112,203 l 7,0 0,7 -7,0 z M 119,203 l 7,0 0,7 -7,0 z M 126,203 l 7,0 0,7 -7,0 z M 133,203 l 7,0 0,7 -7,0 z M 147,203 l 7,0 0,7 -7,0 z M 154,203 l 7,0 0,7 -7,0 z M 168,203 l 7,0 0,7 -7,0 z M 189,203 l 7,0 0,7 -7,0 z M 196,203 l 7,0 0,7 -7,0 z M 210,203 l 7,0 0,7 -7,0 z M 217,203 l 7,0 0,7 -7,0 z M 0,210 l 7,0 0,7 -7,0 z M 14,210 l 7,0 0,7 -7,0 z M 21,210 l 7,0 0,7 -7,0 z M 28,210 l 7,0 0,7 -7,0 z M 42,210 l 7,0 0,7 -7,0 z M 56,210 l 7,0 0,7 -7,0 z M 63,210 l 7,0 0,7 -7,0 z M 70,210 l 7,0 0,7 -7,0 z M 91,210 l 7,0 0,7 -7,0 z M 98,210 l 7,0 0,7 -7,0 z M 105,210 l 7,0 0,7 -7,0 z M 126,210 l 7,0 0,7 -7,0 z M 154,210 l 7,0 0,7 -7,0 z M 182,210 l 7,0 0,7 -7,0 z M 203,210 l 7,0 0,7 -7,0 z M 210,210 l 7,0 0,7 -7,0 z M 0,217 l 7,0 0,7 -7,0 z M 42,217 l 7,0 0,7 -7,0 z M 56,217 l 7,0 0,7 -7,0 z M 70,217 l 7,0 0,7 -7,0 z M 84,217 l 7,0 0,7 -7,0 z M 91,217 l 7,0 0,7 -7,0 z M 112,217 l 7,0 0,7 -7,0 z M 133,217 l 7,0 0,7 -7,0 z M 147,217 l 7,0 0,7 -7,0 z M 161,217 l 7,0 0,7 -7,0 z M 168,217 l 7,0 0,7 -7,0 z M 182,217 l 7,0 0,7 -7,0 z M 196,217 l 7,0 0,7 -7,0 z M 203,217 l 7,0 0,7 -7,0 z M 210,217 l 7,0 0,7 -7,0 z M 0,224 l 7,0 0,7 -7,0 z M 7,224 l 7,0 0,7 -7,0 z M 14,224 l 7,0 0,7 -7,0 z M 21,224 l 7,0 0,7 -7,0 z M 28,224 l 7,0 0,7 -7,0 z M 35,224 l 7,0 0,7 -7,0 z M 42,224 l 7,0 0,7 -7,0 z M 56,224 l 7,0 0,7 -7,0 z M 63,224 l 7,0 0,7 -7,0 z M 70,224 l 7,0 0,7 -7,0 z M 84,224 l 7,0 0,7 -7,0 z M 98,224 l 7,0 0,7 -7,0 z M 140,224 l 7,0 0,7 -7,0 z M 147,224 l 7,0 0,7 -7,0 z M 154,224 l 7,0 0,7 -7,0 z M 161,224 l 7,0 0,7 -7,0 z M 175,224 l 7,0 0,7 -7,0 z M 182,224 l 7,0 0,7 -7,0 z M 196,224 l 7,0 0,7 -7,0 z M 203,224 l 7,0 0,7 -7,0 z M 210,224 l 7,0 0,7 -7,0 z M 217,224 l 7,0 0,7 -7,0 z " />
	</g>
</svg>
