<svg width="500" height="500" viewBox="0 0 500 500" fill="none" xmlns="http://www.w3.org/2000/svg">
<g clip-path="url(#clip0_758_3102)">
<path d="M500 0H0V500H500V0Z" fill="white"/>
<mask id="mask0_758_3102" style="mask-type:luminance" maskUnits="userSpaceOnUse" x="19" y="19" width="462" height="462">
<path d="M19 159H33V152C33 150.143 32.2625 148.363 30.9498 147.05C29.637 145.737 27.8565 145 26 145C24.1435 145 22.363 145.737 21.0502 147.05C19.7375 148.363 19 150.143 19 152" fill="white"/>
<path d="M33 173V159H19V166C19 166.919 19.1811 167.83 19.5328 168.679C19.8846 169.528 20.4002 170.3 21.0503 170.95C21.7003 171.6 22.4719 172.115 23.3212 172.467C24.1705 172.819 25.0807 173 26 173" fill="white"/>
<path d="M19 201H33V187H26C25.0807 187 24.1705 187.181 23.3212 187.533C22.4719 187.885 21.7003 188.4 21.0502 189.05C20.4002 189.7 19.8846 190.472 19.5328 191.321C19.1811 192.17 19 193.081 19 194" fill="white"/>
<path d="M33 201H19V215H33V201Z" fill="white"/>
<path d="M33 215H19V229H33V215Z" fill="white"/>
<path d="M33 243V229H19V236C19 236.919 19.1811 237.83 19.5328 238.679C19.8846 239.528 20.4002 240.3 21.0503 240.95C21.7003 241.6 22.4719 242.115 23.3212 242.467C24.1705 242.819 25.0807 243 26 243" fill="white"/>
<path d="M26 285C29.866 285 33 281.866 33 278C33 274.134 29.866 271 26 271C22.134 271 19 274.134 19 278C19 281.866 22.134 285 26 285Z" fill="white"/>
<path d="M26 313C29.866 313 33 309.866 33 306C33 302.134 29.866 299 26 299C22.134 299 19 302.134 19 306C19 309.866 22.134 313 26 313Z" fill="white"/>
<path d="M33 355V341H26C24.1435 341 22.363 341.738 21.0503 343.05C19.7375 344.363 19 346.143 19 348C19 349.857 19.7375 351.637 21.0503 352.95C22.363 354.262 24.1435 355 26 355" fill="white"/>
<path d="M47 145V131H40C38.1435 131 36.363 131.737 35.0503 133.05C33.7375 134.363 33 136.143 33 138C33 139.857 33.7375 141.637 35.0503 142.95C36.363 144.263 38.1435 145 40 145" fill="white"/>
<path d="M33 159V173H40C41.8565 173 43.637 172.263 44.9497 170.95C46.2625 169.637 47 167.857 47 166C47 164.143 46.2625 162.363 44.9497 161.05C43.637 159.737 41.8565 159 40 159" fill="white"/>
<path d="M33 187V201H40C41.8565 201 43.637 200.263 44.9497 198.95C46.2625 197.637 47 195.857 47 194C47 192.143 46.2625 190.363 44.9497 189.05C43.637 187.737 41.8565 187 40 187" fill="white"/>
<path d="M47 229H33V243H47V229Z" fill="white"/>
<path d="M40 271C43.866 271 47 267.866 47 264C47 260.134 43.866 257 40 257C36.134 257 33 260.134 33 264C33 267.866 36.134 271 40 271Z" fill="white"/>
<path d="M47 341H33V355H47V341Z" fill="white"/>
<path d="M47 369V355H33V362C33 363.857 33.7375 365.637 35.0503 366.95C36.363 368.262 38.1435 369 40 369" fill="white"/>
<path d="M47 131V145H54C55.8565 145 57.637 144.263 58.9497 142.95C60.2625 141.637 61 139.857 61 138C61 136.143 60.2625 134.363 58.9497 133.05C57.637 131.737 55.8565 131 54 131" fill="white"/>
<path d="M54 187C57.866 187 61 183.866 61 180C61 176.134 57.866 173 54 173C50.134 173 47 176.134 47 180C47 183.866 50.134 187 54 187Z" fill="white"/>
<path d="M47 229H61V222C61 220.143 60.2625 218.363 58.9498 217.05C57.637 215.737 55.8565 215 54 215C52.1435 215 50.363 215.737 49.0502 217.05C47.7375 218.363 47 220.143 47 222" fill="white"/>
<path d="M61 229H47V243H54C55.8565 243 57.637 242.263 58.9498 240.95C60.2625 239.637 61 237.857 61 236" fill="white"/>
<path d="M61 285V271H54C52.1435 271 50.363 271.738 49.0503 273.05C47.7375 274.363 47 276.143 47 278C47 279.857 47.7375 281.637 49.0503 282.95C50.363 284.262 52.1435 285 54 285" fill="white"/>
<path d="M47 341V355H61V348C61 346.143 60.2625 344.363 58.9497 343.05C57.637 341.738 55.8565 341 54 341" fill="white"/>
<path d="M61 355H47V369H61V355Z" fill="white"/>
<path d="M68 159C71.866 159 75 155.866 75 152C75 148.134 71.866 145 68 145C64.134 145 61 148.134 61 152C61 155.866 64.134 159 68 159Z" fill="white"/>
<path d="M75 215V201H68C66.1435 201 64.363 201.737 63.0503 203.05C61.7375 204.363 61 206.143 61 208C61 209.857 61.7375 211.637 63.0503 212.95C64.363 214.263 66.1435 215 68 215" fill="white"/>
<path d="M68 257C71.866 257 75 253.866 75 250C75 246.134 71.866 243 68 243C64.134 243 61 246.134 61 250C61 253.866 64.134 257 68 257Z" fill="white"/>
<path d="M75 271H61V285H75V271Z" fill="white"/>
<path d="M68 341C71.866 341 75 337.866 75 334C75 330.134 71.866 327 68 327C64.134 327 61 330.134 61 334C61 337.866 64.134 341 68 341Z" fill="white"/>
<path d="M75 355H61V369H75V355Z" fill="white"/>
<path d="M75 201H89V187H82C80.1435 187 78.363 187.738 77.0502 189.05C75.7375 190.363 75 192.143 75 194" fill="white"/>
<path d="M89 201H75V215H89V201Z" fill="white"/>
<path d="M89 215H75V229H89V215Z" fill="white"/>
<path d="M89 229H75V236C75 237.857 75.7375 239.637 77.0502 240.95C78.363 242.262 80.1435 243 82 243C83.8565 243 85.637 242.262 86.9498 240.95C88.2625 239.637 89 237.857 89 236" fill="white"/>
<path d="M89 271H75V285H89V271Z" fill="white"/>
<path d="M75 355V369H82C83.8565 369 85.637 368.262 86.9497 366.95C88.2625 365.637 89 363.857 89 362C89 360.143 88.2625 358.363 86.9497 357.05C85.637 355.738 83.8565 355 82 355" fill="white"/>
<path d="M96 159C99.866 159 103 155.866 103 152C103 148.134 99.866 145 96 145C92.134 145 89 148.134 89 152C89 155.866 92.134 159 96 159Z" fill="white"/>
<path d="M103 187H89V201H103V187Z" fill="white"/>
<path d="M103 215H89V229H103V215Z" fill="white"/>
<path d="M103 271H89V285H103V271Z" fill="white"/>
<path d="M110 145C113.866 145 117 141.866 117 138C117 134.134 113.866 131 110 131C106.134 131 103 134.134 103 138C103 141.866 106.134 145 110 145Z" fill="white"/>
<path d="M110 173C113.866 173 117 169.866 117 166C117 162.134 113.866 159 110 159C106.134 159 103 162.134 103 166C103 169.866 106.134 173 110 173Z" fill="white"/>
<path d="M117 187H103V201H117V187Z" fill="white"/>
<path d="M103 215V229H110C111.857 229 113.637 228.263 114.95 226.95C116.262 225.637 117 223.857 117 222C117 220.143 116.262 218.363 114.95 217.05C113.637 215.737 111.857 215 110 215" fill="white"/>
<path d="M110 257C113.866 257 117 253.866 117 250C117 246.134 113.866 243 110 243C106.134 243 103 246.134 103 250C103 253.866 106.134 257 110 257Z" fill="white"/>
<path d="M117 271H103V285H117V271Z" fill="white"/>
<path d="M110 313C113.866 313 117 309.866 117 306C117 302.134 113.866 299 110 299C106.134 299 103 302.134 103 306C103 309.866 106.134 313 110 313Z" fill="white"/>
<path d="M117 341V327H110C108.143 327 106.363 327.738 105.05 329.05C103.738 330.363 103 332.143 103 334C103 335.857 103.738 337.637 105.05 338.95C106.363 340.262 108.143 341 110 341" fill="white"/>
<path d="M117 369V355H110C108.143 355 106.363 355.738 105.05 357.05C103.738 358.363 103 360.143 103 362C103 363.857 103.738 365.637 105.05 366.95C106.363 368.262 108.143 369 110 369" fill="white"/>
<path d="M124 159C127.866 159 131 155.866 131 152C131 148.134 127.866 145 124 145C120.134 145 117 148.134 117 152C117 155.866 120.134 159 124 159Z" fill="white"/>
<path d="M117 187V201H124C125.857 201 127.637 200.263 128.95 198.95C130.263 197.637 131 195.857 131 194C131 192.143 130.263 190.363 128.95 189.05C127.637 187.737 125.857 187 124 187" fill="white"/>
<path d="M131 243V229H124C122.143 229 120.363 229.737 119.05 231.05C117.737 232.363 117 234.143 117 236C117 237.857 117.737 239.637 119.05 240.95C120.363 242.263 122.143 243 124 243" fill="white"/>
<path d="M117 271H131V264C131 262.143 130.262 260.363 128.95 259.05C127.637 257.737 125.857 257 124 257C122.143 257 120.363 257.737 119.05 259.05C117.738 260.363 117 262.143 117 264" fill="white"/>
<path d="M131 271H117V285H131V271Z" fill="white"/>
<path d="M131 285H117V292C117 293.857 117.738 295.637 119.05 296.95C120.363 298.263 122.143 299 124 299C125.857 299 127.637 298.263 128.95 296.95C130.262 295.637 131 293.857 131 292" fill="white"/>
<path d="M131 327H117V341H131V327Z" fill="white"/>
<path d="M117 355V369H124C125.857 369 127.637 368.262 128.95 366.95C130.263 365.637 131 363.857 131 362C131 360.143 130.263 358.363 128.95 357.05C127.637 355.738 125.857 355 124 355" fill="white"/>
<path d="M131 47H145V33H138C136.143 33 134.363 33.7375 133.05 35.0502C131.737 36.363 131 38.1435 131 40" fill="white"/>
<path d="M145 47H131V61H145V47Z" fill="white"/>
<path d="M145 75V61H131V68C131 69.8565 131.737 71.637 133.05 72.9497C134.363 74.2625 136.143 75 138 75" fill="white"/>
<path d="M131 103H145V89H138C136.143 89 134.363 89.7375 133.05 91.0502C131.738 92.363 131 94.1435 131 96" fill="white"/>
<path d="M145 103H131V110C131 111.857 131.738 113.637 133.05 114.95C134.363 116.263 136.143 117 138 117C139.857 117 141.637 116.263 142.95 114.95C144.262 113.637 145 111.857 145 110" fill="white"/>
<path d="M145 187V173H138C136.143 173 134.363 173.737 133.05 175.05C131.737 176.363 131 178.143 131 180C131 181.857 131.737 183.637 133.05 184.95C134.363 186.263 136.143 187 138 187" fill="white"/>
<path d="M131 215H145V201H138C136.143 201 134.363 201.737 133.05 203.05C131.737 204.363 131 206.143 131 208" fill="white"/>
<path d="M145 215H131V229H145V215Z" fill="white"/>
<path d="M145 229H131V243H138C139.857 243 141.637 242.263 142.95 240.95C144.263 239.637 145 237.857 145 236" fill="white"/>
<path d="M145 271H131V285H145V271Z" fill="white"/>
<path d="M131 313H145V299H138C136.143 299 134.363 299.737 133.05 301.05C131.738 302.363 131 304.143 131 306" fill="white"/>
<path d="M145 313H131V327H145V313Z" fill="white"/>
<path d="M145 327H131V341H138C139.857 341 141.637 340.263 142.95 338.95C144.262 337.637 145 335.857 145 334" fill="white"/>
<path d="M131 453H145V439H138C136.143 439 134.363 439.737 133.05 441.05C131.738 442.363 131 444.143 131 446" fill="white"/>
<path d="M145 467V453H131V460C131 461.857 131.737 463.637 133.05 464.95C134.363 466.262 136.143 467 138 467" fill="white"/>
<path d="M145 33H159V19H152C150.143 19 148.363 19.7375 147.05 21.0502C145.737 22.363 145 24.1435 145 26" fill="white"/>
<path d="M159 33H145V47H159V33Z" fill="white"/>
<path d="M159 47H145V61H159V47Z" fill="white"/>
<path d="M159 61H145V75H159V61Z" fill="white"/>
<path d="M145 89V103H152C153.857 103 155.637 102.262 156.95 100.95C158.263 99.637 159 97.8565 159 96C159 94.1435 158.263 92.363 156.95 91.0503C155.637 89.7375 153.857 89 152 89" fill="white"/>
<path d="M159 131V117H152C150.143 117 148.363 117.737 147.05 119.05C145.737 120.363 145 122.143 145 124C145 125.857 145.737 127.637 147.05 128.95C148.363 130.262 150.143 131 152 131" fill="white"/>
<path d="M152 159C155.866 159 159 155.866 159 152C159 148.134 155.866 145 152 145C148.134 145 145 148.134 145 152C145 155.866 148.134 159 152 159Z" fill="white"/>
<path d="M159 173H145V187H159V173Z" fill="white"/>
<path d="M159 201H145V215H159V201Z" fill="white"/>
<path d="M159 215H145V229H152C153.857 229 155.637 228.263 156.95 226.95C158.263 225.637 159 223.857 159 222" fill="white"/>
<path d="M145 257H159V250C159 248.143 158.263 246.363 156.95 245.05C155.637 243.737 153.857 243 152 243C150.143 243 148.363 243.737 147.05 245.05C145.737 246.363 145 248.143 145 250" fill="white"/>
<path d="M159 257H145V271H159V257Z" fill="white"/>
<path d="M159 271H145V285H159V271Z" fill="white"/>
<path d="M159 285H145V299H159V285Z" fill="white"/>
<path d="M159 299H145V313H159V299Z" fill="white"/>
<path d="M159 313H145V327H152C153.857 327 155.637 326.263 156.95 324.95C158.262 323.637 159 321.857 159 320" fill="white"/>
<path d="M159 355V341H152C150.143 341 148.363 341.738 147.05 343.05C145.737 344.363 145 346.143 145 348C145 349.857 145.737 351.637 147.05 352.95C148.363 354.262 150.143 355 152 355" fill="white"/>
<path d="M145 397H159V383H152C150.143 383 148.363 383.737 147.05 385.05C145.738 386.363 145 388.143 145 390" fill="white"/>
<path d="M159 411V397H145V404C145 405.857 145.737 407.637 147.05 408.95C148.363 410.262 150.143 411 152 411" fill="white"/>
<path d="M145 439H159V425H152C150.143 425 148.363 425.737 147.05 427.05C145.738 428.363 145 430.143 145 432" fill="white"/>
<path d="M159 439H145V453H159V439Z" fill="white"/>
<path d="M159 453H145V467H159V453Z" fill="white"/>
<path d="M159 481V467H145V474C145 475.857 145.737 477.637 147.05 478.95C148.363 480.262 150.143 481 152 481" fill="white"/>
<path d="M173 19H159V33H173V19Z" fill="white"/>
<path d="M159 61V75H166C167.857 75 169.637 74.2625 170.95 72.9497C172.263 71.637 173 69.8565 173 68C173 66.1435 172.263 64.363 170.95 63.0503C169.637 61.7375 167.857 61 166 61" fill="white"/>
<path d="M159 117H173V110C173 108.143 172.262 106.363 170.95 105.05C169.637 103.737 167.857 103 166 103C164.143 103 162.363 103.737 161.05 105.05C159.738 106.363 159 108.143 159 110" fill="white"/>
<path d="M173 117H159V131H173V117Z" fill="white"/>
<path d="M173 131H159V138C159 139.857 159.737 141.637 161.05 142.95C162.363 144.263 164.143 145 166 145C167.857 145 169.637 144.263 170.95 142.95C172.263 141.637 173 139.857 173 138" fill="white"/>
<path d="M159 173H173V166C173 164.143 172.263 162.363 170.95 161.05C169.637 159.737 167.857 159 166 159C164.143 159 162.363 159.737 161.05 161.05C159.737 162.363 159 164.143 159 166" fill="white"/>
<path d="M173 173H159V187H173V173Z" fill="white"/>
<path d="M173 201H159V215H173V201Z" fill="white"/>
<path d="M173 243V229H166C164.143 229 162.363 229.737 161.05 231.05C159.737 232.363 159 234.143 159 236C159 237.857 159.737 239.637 161.05 240.95C162.363 242.263 164.143 243 166 243" fill="white"/>
<path d="M159 271V285H166C167.857 285 169.637 284.262 170.95 282.95C172.263 281.637 173 279.857 173 278C173 276.143 172.263 274.363 170.95 273.05C169.637 271.738 167.857 271 166 271" fill="white"/>
<path d="M159 341H173V334C173 332.143 172.262 330.363 170.95 329.05C169.637 327.737 167.857 327 166 327C164.143 327 162.363 327.737 161.05 329.05C159.738 330.363 159 332.143 159 334" fill="white"/>
<path d="M173 341H159V355H173V341Z" fill="white"/>
<path d="M173 355H159V362C159 363.857 159.738 365.637 161.05 366.95C162.363 368.263 164.143 369 166 369C167.857 369 169.637 368.263 170.95 366.95C172.262 365.637 173 363.857 173 362" fill="white"/>
<path d="M159 383V397H173V390C173 388.143 172.263 386.363 170.95 385.05C169.637 383.738 167.857 383 166 383" fill="white"/>
<path d="M173 397H159V411H173V397Z" fill="white"/>
<path d="M173 411H159V425H173V411Z" fill="white"/>
<path d="M173 425H159V439H173V425Z" fill="white"/>
<path d="M173 453H159V467H173V453Z" fill="white"/>
<path d="M173 467H159V481H173V467Z" fill="white"/>
<path d="M187 19H173V33H187V19Z" fill="white"/>
<path d="M187 33H173V40C173 41.8565 173.737 43.637 175.05 44.9498C176.363 46.2625 178.143 47 180 47C181.857 47 183.637 46.2625 184.95 44.9498C186.263 43.637 187 41.8565 187 40" fill="white"/>
<path d="M180 89C183.866 89 187 85.866 187 82C187 78.134 183.866 75 180 75C176.134 75 173 78.134 173 82C173 85.866 176.134 89 180 89Z" fill="white"/>
<path d="M187 117H173V131H187V117Z" fill="white"/>
<path d="M187 159V145H180C178.143 145 176.363 145.737 175.05 147.05C173.737 148.363 173 150.143 173 152C173 153.857 173.737 155.637 175.05 156.95C176.363 158.263 178.143 159 180 159" fill="white"/>
<path d="M187 173H173V187H187V173Z" fill="white"/>
<path d="M187 187H173V201H187V187Z" fill="white"/>
<path d="M187 201H173V215H187V201Z" fill="white"/>
<path d="M187 215H173V229H187V215Z" fill="white"/>
<path d="M187 229H173V243H187V229Z" fill="white"/>
<path d="M187 243H173V257H187V243Z" fill="white"/>
<path d="M187 257H173V264C173 265.857 173.738 267.637 175.05 268.95C176.363 270.263 178.143 271 180 271C181.857 271 183.637 270.263 184.95 268.95C186.262 267.637 187 265.857 187 264" fill="white"/>
<path d="M187 299V285H180C178.143 285 176.363 285.738 175.05 287.05C173.737 288.363 173 290.143 173 292C173 293.857 173.737 295.637 175.05 296.95C176.363 298.262 178.143 299 180 299" fill="white"/>
<path d="M187 397H173V411H187V397Z" fill="white"/>
<path d="M187 425H173V439H187V425Z" fill="white"/>
<path d="M173 453V467H187V460C187 458.143 186.263 456.363 184.95 455.05C183.637 453.738 181.857 453 180 453" fill="white"/>
<path d="M187 467H173V481H180C181.857 481 183.637 480.263 184.95 478.95C186.262 477.637 187 475.857 187 474" fill="white"/>
<path d="M201 19H187V33H201V19Z" fill="white"/>
<path d="M194 61C197.866 61 201 57.866 201 54C201 50.134 197.866 47 194 47C190.134 47 187 50.134 187 54C187 57.866 190.134 61 194 61Z" fill="white"/>
<path d="M187 103H201V89H194C192.143 89 190.363 89.7375 189.05 91.0502C187.738 92.363 187 94.1435 187 96" fill="white"/>
<path d="M201 103H187V117H201V103Z" fill="white"/>
<path d="M201 117H187V131H194C195.857 131 197.637 130.263 198.95 128.95C200.262 127.637 201 125.857 201 124" fill="white"/>
<path d="M187 145V159H201V152C201 150.143 200.263 148.363 198.95 147.05C197.637 145.737 195.857 145 194 145" fill="white"/>
<path d="M201 159H187V173H201V159Z" fill="white"/>
<path d="M201 173H187V187H201V173Z" fill="white"/>
<path d="M201 187H187V201H194C195.857 201 197.637 200.263 198.95 198.95C200.263 197.637 201 195.857 201 194" fill="white"/>
<path d="M187 215V229H201V222C201 220.143 200.263 218.363 198.95 217.05C197.637 215.737 195.857 215 194 215" fill="white"/>
<path d="M201 229H187V243H201V229Z" fill="white"/>
<path d="M187 285V299H201V292C201 290.143 200.263 288.363 198.95 287.05C197.637 285.738 195.857 285 194 285" fill="white"/>
<path d="M201 313V299H187V306C187 307.857 187.737 309.637 189.05 310.95C190.363 312.262 192.143 313 194 313" fill="white"/>
<path d="M201 341V327H194C192.143 327 190.363 327.738 189.05 329.05C187.737 330.363 187 332.143 187 334C187 335.857 187.737 337.637 189.05 338.95C190.363 340.262 192.143 341 194 341" fill="white"/>
<path d="M194 383C197.866 383 201 379.866 201 376C201 372.134 197.866 369 194 369C190.134 369 187 372.134 187 376C187 379.866 190.134 383 194 383Z" fill="white"/>
<path d="M201 397H187V411H201V397Z" fill="white"/>
<path d="M187 425V439H194C195.857 439 197.637 438.262 198.95 436.95C200.263 435.637 201 433.857 201 432C201 430.143 200.263 428.363 198.95 427.05C197.637 425.738 195.857 425 194 425" fill="white"/>
<path d="M215 19H201V33H215V19Z" fill="white"/>
<path d="M201 89V103H208C209.857 103 211.637 102.262 212.95 100.95C214.263 99.637 215 97.8565 215 96C215 94.1435 214.263 92.363 212.95 91.0503C211.637 89.7375 209.857 89 208 89" fill="white"/>
<path d="M215 215V201H208C206.143 201 204.363 201.737 203.05 203.05C201.737 204.363 201 206.143 201 208C201 209.857 201.737 211.637 203.05 212.95C204.363 214.263 206.143 215 208 215" fill="white"/>
<path d="M215 229H201V243H215V229Z" fill="white"/>
<path d="M215 243H201V250C201 251.857 201.737 253.637 203.05 254.95C204.363 256.263 206.143 257 208 257C209.857 257 211.637 256.263 212.95 254.95C214.263 253.637 215 251.857 215 250" fill="white"/>
<path d="M215 299H201V313H215V299Z" fill="white"/>
<path d="M215 313H201V327H215V313Z" fill="white"/>
<path d="M215 327H201V341H208C209.857 341 211.637 340.263 212.95 338.95C214.262 337.637 215 335.857 215 334" fill="white"/>
<path d="M215 369V355H208C206.143 355 204.363 355.738 203.05 357.05C201.737 358.363 201 360.143 201 362C201 363.857 201.737 365.637 203.05 366.95C204.363 368.262 206.143 369 208 369" fill="white"/>
<path d="M201 397H215V383H208C206.143 383 204.363 383.737 203.05 385.05C201.738 386.363 201 388.143 201 390" fill="white"/>
<path d="M215 397H201V411H215V397Z" fill="white"/>
<path d="M208 467C211.866 467 215 463.866 215 460C215 456.134 211.866 453 208 453C204.134 453 201 456.134 201 460C201 463.866 204.134 467 208 467Z" fill="white"/>
<path d="M229 19H215V33H229V19Z" fill="white"/>
<path d="M215 61H229V54C229 52.1435 228.263 50.363 226.95 49.0502C225.637 47.7375 223.857 47 222 47C220.143 47 218.363 47.7375 217.05 49.0502C215.737 50.363 215 52.1435 215 54" fill="white"/>
<path d="M229 75V61H215V68C215 68.9193 215.181 69.8295 215.533 70.6788C215.885 71.5281 216.4 72.2997 217.05 72.9497C217.7 73.5998 218.472 74.1154 219.321 74.4672C220.17 74.8189 221.081 75 222 75" fill="white"/>
<path d="M222 117C225.866 117 229 113.866 229 110C229 106.134 225.866 103 222 103C218.134 103 215 106.134 215 110C215 113.866 218.134 117 222 117Z" fill="white"/>
<path d="M222 159C225.866 159 229 155.866 229 152C229 148.134 225.866 145 222 145C218.134 145 215 148.134 215 152C215 155.866 218.134 159 222 159Z" fill="white"/>
<path d="M215 201H229V187H222C221.081 187 220.17 187.181 219.321 187.533C218.472 187.885 217.7 188.4 217.05 189.05C216.4 189.7 215.885 190.472 215.533 191.321C215.181 192.17 215 193.081 215 194" fill="white"/>
<path d="M229 201H215V215H222C222.919 215 223.83 214.819 224.679 214.467C225.528 214.115 226.3 213.6 226.95 212.95C227.6 212.3 228.115 211.528 228.467 210.679C228.819 209.83 229 208.919 229 208" fill="white"/>
<path d="M229 229H215V243H229V229Z" fill="white"/>
<path d="M215 285H229V278C229 276.143 228.262 274.363 226.95 273.05C225.637 271.737 223.857 271 222 271C220.143 271 218.363 271.737 217.05 273.05C215.738 274.363 215 276.143 215 278" fill="white"/>
<path d="M229 285H215V299H229V285Z" fill="white"/>
<path d="M229 299H215V313H229V299Z" fill="white"/>
<path d="M229 313H215V327H229V313Z" fill="white"/>
<path d="M215 355V369H222C223.857 369 225.637 368.262 226.95 366.95C228.263 365.637 229 363.857 229 362C229 360.143 228.263 358.363 226.95 357.05C225.637 355.738 223.857 355 222 355" fill="white"/>
<path d="M229 383H215V397H229V383Z" fill="white"/>
<path d="M229 397H215V411H229V397Z" fill="white"/>
<path d="M229 411H215V418C215 419.857 215.738 421.637 217.05 422.95C218.363 424.263 220.143 425 222 425C223.857 425 225.637 424.263 226.95 422.95C228.262 421.637 229 419.857 229 418" fill="white"/>
<path d="M229 453V439H222C220.143 439 218.363 439.738 217.05 441.05C215.737 442.363 215 444.143 215 446C215 447.857 215.737 449.637 217.05 450.95C218.363 452.262 220.143 453 222 453" fill="white"/>
<path d="M243 19H229V33H243V19Z" fill="white"/>
<path d="M243 33H229V40C229 41.8565 229.737 43.637 231.05 44.9498C232.363 46.2625 234.143 47 236 47C237.857 47 239.637 46.2625 240.95 44.9498C242.263 43.637 243 41.8565 243 40" fill="white"/>
<path d="M243 61H229V75H243V61Z" fill="white"/>
<path d="M243 75H229V89H243V75Z" fill="white"/>
<path d="M243 89H229V96C229 97.8565 229.738 99.637 231.05 100.95C232.363 102.263 234.143 103 236 103C237.857 103 239.637 102.263 240.95 100.95C242.262 99.637 243 97.8565 243 96" fill="white"/>
<path d="M229 131H243V117H236C234.143 117 232.363 117.737 231.05 119.05C229.738 120.363 229 122.143 229 124" fill="white"/>
<path d="M243 131H229V138C229 139.857 229.737 141.637 231.05 142.95C232.363 144.263 234.143 145 236 145C237.857 145 239.637 144.263 240.95 142.95C242.263 141.637 243 139.857 243 138" fill="white"/>
<path d="M229 187V201H236C237.857 201 239.637 200.263 240.95 198.95C242.263 197.637 243 195.857 243 194C243 192.143 242.263 190.363 240.95 189.05C239.637 187.737 237.857 187 236 187" fill="white"/>
<path d="M243 229H229V243H243V229Z" fill="white"/>
<path d="M243 257V243H229V250C229 251.857 229.737 253.637 231.05 254.95C232.363 256.263 234.143 257 236 257" fill="white"/>
<path d="M243 313H229V327H243V313Z" fill="white"/>
<path d="M243 341V327H229V334C229 335.857 229.737 337.637 231.05 338.95C232.363 340.262 234.143 341 236 341" fill="white"/>
<path d="M229 383H243V369H236C234.143 369 232.363 369.737 231.05 371.05C229.738 372.363 229 374.143 229 376" fill="white"/>
<path d="M243 383H229V397H243V383Z" fill="white"/>
<path d="M229 439H243V432C243 430.143 242.262 428.363 240.95 427.05C239.637 425.737 237.857 425 236 425C234.143 425 232.363 425.737 231.05 427.05C229.738 428.363 229 430.143 229 432" fill="white"/>
<path d="M243 439H229V453H236C237.857 453 239.637 452.263 240.95 450.95C242.262 449.637 243 447.857 243 446" fill="white"/>
<path d="M257 19H243V33H257V19Z" fill="white"/>
<path d="M243 61H257V47H250C248.143 47 246.363 47.7375 245.05 49.0502C243.737 50.363 243 52.1435 243 54" fill="white"/>
<path d="M257 61H243V75H257V61Z" fill="white"/>
<path d="M243 117H257V110C257 108.143 256.262 106.363 254.95 105.05C253.637 103.737 251.857 103 250 103C248.143 103 246.363 103.737 245.05 105.05C243.738 106.363 243 108.143 243 110" fill="white"/>
<path d="M257 117H243V131H250C251.857 131 253.637 130.263 254.95 128.95C256.262 127.637 257 125.857 257 124" fill="white"/>
<path d="M250 215C253.866 215 257 211.866 257 208C257 204.134 253.866 201 250 201C246.134 201 243 204.134 243 208C243 211.866 246.134 215 250 215Z" fill="white"/>
<path d="M243 229V243H257V236C257 234.143 256.263 232.363 254.95 231.05C253.637 229.737 251.857 229 250 229" fill="white"/>
<path d="M257 243H243V257H250C251.857 257 253.637 256.263 254.95 254.95C256.263 253.637 257 251.857 257 250" fill="white"/>
<path d="M243 313H257V299H250C248.143 299 246.363 299.737 245.05 301.05C243.738 302.363 243 304.143 243 306" fill="white"/>
<path d="M257 313H243V327H257V313Z" fill="white"/>
<path d="M257 327H243V341H257V327Z" fill="white"/>
<path d="M257 355V341H243V348C243 349.857 243.737 351.637 245.05 352.95C246.363 354.262 248.143 355 250 355" fill="white"/>
<path d="M257 369H243V383H257V369Z" fill="white"/>
<path d="M257 383H243V397H257V383Z" fill="white"/>
<path d="M257 425V411H250C248.143 411 246.363 411.738 245.05 413.05C243.737 414.363 243 416.143 243 418C243 419.857 243.737 421.637 245.05 422.95C246.363 424.262 248.143 425 250 425" fill="white"/>
<path d="M257 19V33H271V26C271 24.1435 270.262 22.363 268.95 21.0503C267.637 19.7375 265.857 19 264 19" fill="white"/>
<path d="M271 33H257V47H271V33Z" fill="white"/>
<path d="M271 47H257V61H271V47Z" fill="white"/>
<path d="M271 61H257V75H271V61Z" fill="white"/>
<path d="M271 89V75H257V82C257 83.8565 257.738 85.637 259.05 86.9497C260.363 88.2625 262.143 89 264 89" fill="white"/>
<path d="M257 159H271V152C271 150.143 270.263 148.363 268.95 147.05C267.637 145.738 265.857 145 264 145C262.143 145 260.363 145.738 259.05 147.05C257.737 148.363 257 150.143 257 152" fill="white"/>
<path d="M271 159H257V173H271V159Z" fill="white"/>
<path d="M271 173H257V187H271V173Z" fill="white"/>
<path d="M271 201V187H257V194C257 195.857 257.738 197.637 259.05 198.95C260.363 200.263 262.143 201 264 201" fill="white"/>
<path d="M264 229C267.866 229 271 225.866 271 222C271 218.134 267.866 215 264 215C260.134 215 257 218.134 257 222C257 225.866 260.134 229 264 229Z" fill="white"/>
<path d="M264 285C267.866 285 271 281.866 271 278C271 274.134 267.866 271 264 271C260.134 271 257 274.134 257 278C257 281.866 260.134 285 264 285Z" fill="white"/>
<path d="M271 299H257V313H271V299Z" fill="white"/>
<path d="M257 341V355H271V348C271 346.143 270.262 344.363 268.95 343.05C267.637 341.738 265.857 341 264 341" fill="white"/>
<path d="M271 355H257V369H271V355Z" fill="white"/>
<path d="M271 369H257V383H271V369Z" fill="white"/>
<path d="M271 383H257V397H264C265.857 397 267.637 396.262 268.95 394.95C270.262 393.637 271 391.857 271 390" fill="white"/>
<path d="M271 411H257V425H271V411Z" fill="white"/>
<path d="M271 425H257V432C257 433.857 257.738 435.637 259.05 436.95C260.363 438.262 262.143 439 264 439C265.857 439 267.637 438.262 268.95 436.95C270.262 435.637 271 433.857 271 432" fill="white"/>
<path d="M271 467V453H264C262.143 453 260.363 453.738 259.05 455.05C257.738 456.363 257 458.143 257 460C257 461.857 257.738 463.637 259.05 464.95C260.363 466.262 262.143 467 264 467" fill="white"/>
<path d="M285 33H271V47H285V33Z" fill="white"/>
<path d="M285 61H271V75H285V61Z" fill="white"/>
<path d="M285 75H271V89H278C279.857 89 281.637 88.2625 282.95 86.9497C284.262 85.637 285 83.8565 285 82" fill="white"/>
<path d="M278 117C281.866 117 285 113.866 285 110C285 106.134 281.866 103 278 103C274.134 103 271 106.134 271 110C271 113.866 274.134 117 278 117Z" fill="white"/>
<path d="M278 145C281.866 145 285 141.866 285 138C285 134.134 281.866 131 278 131C274.134 131 271 134.134 271 138C271 141.866 274.134 145 278 145Z" fill="white"/>
<path d="M271 159V173H285V166C285 164.143 284.262 162.363 282.95 161.05C281.637 159.737 279.857 159 278 159" fill="white"/>
<path d="M285 173H271V187H285V173Z" fill="white"/>
<path d="M285 187H271V201H285V187Z" fill="white"/>
<path d="M285 215V201H271V208C271 209.857 271.738 211.637 273.05 212.95C274.363 214.263 276.143 215 278 215" fill="white"/>
<path d="M278 271C281.866 271 285 267.866 285 264C285 260.134 281.866 257 278 257C274.134 257 271 260.134 271 264C271 267.866 274.134 271 278 271Z" fill="white"/>
<path d="M285 299H271V313H285V299Z" fill="white"/>
<path d="M285 341V327H278C276.143 327 274.363 327.738 273.05 329.05C271.738 330.363 271 332.143 271 334C271 335.857 271.738 337.637 273.05 338.95C274.363 340.262 276.143 341 278 341" fill="white"/>
<path d="M271 355V369H285V362C285 360.143 284.262 358.363 282.95 357.05C281.637 355.738 279.857 355 278 355" fill="white"/>
<path d="M285 369H271V383H285V369Z" fill="white"/>
<path d="M271 411H285V404C285 402.143 284.262 400.363 282.95 399.05C281.637 397.738 279.857 397 278 397C276.143 397 274.363 397.738 273.05 399.05C271.738 400.363 271 402.143 271 404" fill="white"/>
<path d="M285 411H271V425H285V411Z" fill="white"/>
<path d="M271 453H285V446C285 444.143 284.262 442.363 282.95 441.05C281.637 439.738 279.857 439 278 439C276.143 439 274.363 439.738 273.05 441.05C271.738 442.363 271 444.143 271 446" fill="white"/>
<path d="M285 453H271V467H278C279.857 467 281.637 466.262 282.95 464.95C284.262 463.637 285 461.857 285 460" fill="white"/>
<path d="M285 33H299V19H292C290.143 19 288.363 19.7375 287.05 21.0503C285.737 22.363 285 24.1435 285 26" fill="white"/>
<path d="M299 33H285V47H299V33Z" fill="white"/>
<path d="M299 47H285V61H299V47Z" fill="white"/>
<path d="M299 61H285V75H292C293.857 75 295.637 74.2625 296.95 72.9497C298.263 71.637 299 69.8565 299 68" fill="white"/>
<path d="M285 173V187H299V180C299 178.143 298.262 176.363 296.95 175.05C295.637 173.737 293.857 173 292 173" fill="white"/>
<path d="M299 187H285V201H299V187Z" fill="white"/>
<path d="M299 201H285V215H299V201Z" fill="white"/>
<path d="M299 215H285V222C285 223.857 285.737 225.637 287.05 226.95C288.363 228.262 290.143 229 292 229C293.857 229 295.637 228.262 296.95 226.95C298.263 225.637 299 223.857 299 222" fill="white"/>
<path d="M299 257V243H292C290.143 243 288.363 243.737 287.05 245.05C285.738 246.363 285 248.143 285 250C285 251.857 285.738 253.637 287.05 254.95C288.363 256.263 290.143 257 292 257" fill="white"/>
<path d="M285 299V313H292C293.857 313 295.637 312.262 296.95 310.95C298.262 309.637 299 307.857 299 306C299 304.143 298.262 302.363 296.95 301.05C295.637 299.738 293.857 299 292 299" fill="white"/>
<path d="M299 327H285V341H299V327Z" fill="white"/>
<path d="M299 341H285V348C285 349.857 285.738 351.637 287.05 352.95C288.363 354.262 290.143 355 292 355C293.857 355 295.637 354.262 296.95 352.95C298.262 351.637 299 349.857 299 348" fill="white"/>
<path d="M299 369H285V383H299V369Z" fill="white"/>
<path d="M299 383H285V390C285 391.857 285.738 393.637 287.05 394.95C288.363 396.262 290.143 397 292 397C293.857 397 295.637 396.262 296.95 394.95C298.262 393.637 299 391.857 299 390" fill="white"/>
<path d="M299 411H285V425H299V411Z" fill="white"/>
<path d="M292 481C295.866 481 299 477.866 299 474C299 470.134 295.866 467 292 467C288.134 467 285 470.134 285 474C285 477.866 288.134 481 292 481Z" fill="white"/>
<path d="M313 19H299V33H313V19Z" fill="white"/>
<path d="M299 89H313V82C313 80.1435 312.262 78.363 310.95 77.0503C309.637 75.7375 307.857 75 306 75C304.143 75 302.363 75.7375 301.05 77.0503C299.738 78.363 299 80.1435 299 82" fill="white"/>
<path d="M313 89H299V103H313V89Z" fill="white"/>
<path d="M313 103H299V110C299 111.857 299.738 113.637 301.05 114.95C302.363 116.262 304.143 117 306 117C307.857 117 309.637 116.262 310.95 114.95C312.262 113.637 313 111.857 313 110" fill="white"/>
<path d="M306 145C309.866 145 313 141.866 313 138C313 134.134 309.866 131 306 131C302.134 131 299 134.134 299 138C299 141.866 302.134 145 306 145Z" fill="white"/>
<path d="M313 187H299V201H313V187Z" fill="white"/>
<path d="M299 243H313V229H306C304.143 229 302.363 229.738 301.05 231.05C299.737 232.363 299 234.143 299 236" fill="white"/>
<path d="M313 243H299V257H313V243Z" fill="white"/>
<path d="M313 257H299V264C299 265.857 299.738 267.637 301.05 268.95C302.363 270.262 304.143 271 306 271C307.857 271 309.637 270.262 310.95 268.95C312.262 267.637 313 265.857 313 264" fill="white"/>
<path d="M306 299C309.866 299 313 295.866 313 292C313 288.134 309.866 285 306 285C302.134 285 299 288.134 299 292C299 295.866 302.134 299 306 299Z" fill="white"/>
<path d="M299 327V341H306C307.857 341 309.637 340.262 310.95 338.95C312.262 337.637 313 335.857 313 334C313 332.143 312.262 330.363 310.95 329.05C309.637 327.738 307.857 327 306 327" fill="white"/>
<path d="M299 369V383H306C307.857 383 309.637 382.262 310.95 380.95C312.262 379.637 313 377.857 313 376C313 374.143 312.262 372.363 310.95 371.05C309.637 369.738 307.857 369 306 369" fill="white"/>
<path d="M299 411V425H313V418C313 416.143 312.262 414.363 310.95 413.05C309.637 411.738 307.857 411 306 411" fill="white"/>
<path d="M313 425H299V439H313V425Z" fill="white"/>
<path d="M313 439H299V453H313V439Z" fill="white"/>
<path d="M313 453H299V460C299 461.857 299.738 463.637 301.05 464.95C302.363 466.262 304.143 467 306 467C307.857 467 309.637 466.262 310.95 464.95C312.262 463.637 313 461.857 313 460" fill="white"/>
<path d="M313 19V33H327V26C327 24.1435 326.262 22.363 324.95 21.0503C323.637 19.7375 321.857 19 320 19" fill="white"/>
<path d="M327 33H313V47H327V33Z" fill="white"/>
<path d="M327 61V47H313V54C313 55.8565 313.738 57.637 315.05 58.9497C316.363 60.2625 318.143 61 320 61" fill="white"/>
<path d="M313 187H327V180C327 178.143 326.263 176.363 324.95 175.05C323.637 173.738 321.857 173 320 173C318.143 173 316.363 173.738 315.05 175.05C313.737 176.363 313 178.143 313 180" fill="white"/>
<path d="M327 187H313V201H320C321.857 201 323.637 200.262 324.95 198.95C326.263 197.637 327 195.857 327 194" fill="white"/>
<path d="M313 229H327V222C327 220.143 326.263 218.363 324.95 217.05C323.637 215.738 321.857 215 320 215C318.143 215 316.363 215.738 315.05 217.05C313.737 218.363 313 220.143 313 222" fill="white"/>
<path d="M327 229H313V243H327V229Z" fill="white"/>
<path d="M327 285V271H320C318.143 271 316.363 271.738 315.05 273.05C313.738 274.363 313 276.143 313 278C313 279.857 313.738 281.637 315.05 282.95C316.363 284.262 318.143 285 320 285" fill="white"/>
<path d="M313 313H327V299H320C318.143 299 316.363 299.738 315.05 301.05C313.738 302.363 313 304.143 313 306" fill="white"/>
<path d="M327 327V313H313V320C313 321.857 313.738 323.637 315.05 324.95C316.363 326.262 318.143 327 320 327" fill="white"/>
<path d="M327 355V341H320C318.143 341 316.363 341.738 315.05 343.05C313.738 344.363 313 346.143 313 348C313 349.857 313.738 351.637 315.05 352.95C316.363 354.262 318.143 355 320 355" fill="white"/>
<path d="M327 397V383H320C318.143 383 316.363 383.738 315.05 385.05C313.738 386.363 313 388.143 313 390C313 391.857 313.738 393.637 315.05 394.95C316.363 396.262 318.143 397 320 397" fill="white"/>
<path d="M327 425H313V439H327V425Z" fill="white"/>
<path d="M327 439H313V453H327V439Z" fill="white"/>
<path d="M327 481V467H320C318.143 467 316.363 467.738 315.05 469.05C313.738 470.363 313 472.143 313 474C313 475.857 313.738 477.637 315.05 478.95C316.363 480.262 318.143 481 320 481" fill="white"/>
<path d="M327 47V61H334C335.857 61 337.637 60.2625 338.95 58.9497C340.262 57.637 341 55.8565 341 54C341 52.1435 340.262 50.363 338.95 49.0503C337.637 47.7375 335.857 47 334 47" fill="white"/>
<path d="M327 117H341V110C341 108.143 340.262 106.363 338.95 105.05C337.637 103.738 335.857 103 334 103C332.143 103 330.363 103.738 329.05 105.05C327.738 106.363 327 108.143 327 110" fill="white"/>
<path d="M341 117H327V131H341V117Z" fill="white"/>
<path d="M341 131H327V145H341V131Z" fill="white"/>
<path d="M341 145H327V159H341V145Z" fill="white"/>
<path d="M341 159H327V166C327 167.857 327.737 169.637 329.05 170.95C330.363 172.262 332.143 173 334 173C335.857 173 337.637 172.262 338.95 170.95C340.263 169.637 341 167.857 341 166" fill="white"/>
<path d="M334 215C337.866 215 341 211.866 341 208C341 204.134 337.866 201 334 201C330.134 201 327 204.134 327 208C327 211.866 330.134 215 334 215Z" fill="white"/>
<path d="M327 229V243H341V236C341 234.143 340.262 232.363 338.95 231.05C337.637 229.737 335.857 229 334 229" fill="white"/>
<path d="M341 243H327V257H341V243Z" fill="white"/>
<path d="M341 257H327V271H341V257Z" fill="white"/>
<path d="M341 271H327V285H341V271Z" fill="white"/>
<path d="M341 285H327V299H341V285Z" fill="white"/>
<path d="M341 299H327V313H341V299Z" fill="white"/>
<path d="M341 313H327V327H334C335.857 327 337.637 326.262 338.95 324.95C340.262 323.637 341 321.857 341 320" fill="white"/>
<path d="M341 341H327V355H341V341Z" fill="white"/>
<path d="M327 383H341V376C341 374.143 340.262 372.363 338.95 371.05C337.637 369.738 335.857 369 334 369C332.143 369 330.363 369.738 329.05 371.05C327.738 372.363 327 374.143 327 376" fill="white"/>
<path d="M341 383H327V397H341V383Z" fill="white"/>
<path d="M327 425V439H341V432C341 430.143 340.262 428.363 338.95 427.05C337.637 425.738 335.857 425 334 425" fill="white"/>
<path d="M341 439H327V453H341V439Z" fill="white"/>
<path d="M341 453H327V467H341V453Z" fill="white"/>
<path d="M341 467H327V481H341V467Z" fill="white"/>
<path d="M348 47C351.866 47 355 43.866 355 40C355 36.134 351.866 33 348 33C344.134 33 341 36.134 341 40C341 43.866 344.134 47 348 47Z" fill="white"/>
<path d="M355 89V75H348C346.143 75 344.363 75.7375 343.05 77.0503C341.738 78.363 341 80.1435 341 82C341 83.8565 341.738 85.637 343.05 86.9497C344.363 88.2625 346.143 89 348 89" fill="white"/>
<path d="M341 117V131H348C349.857 131 351.637 130.263 352.95 128.95C354.262 127.637 355 125.857 355 124C355 122.143 354.262 120.363 352.95 119.05C351.637 117.738 349.857 117 348 117" fill="white"/>
<path d="M341 145V159H348C349.857 159 351.637 158.263 352.95 156.95C354.262 155.637 355 153.857 355 152C355 150.143 354.262 148.363 352.95 147.05C351.637 145.737 349.857 145 348 145" fill="white"/>
<path d="M355 187V173H348C346.143 173 344.363 173.737 343.05 175.05C341.738 176.363 341 178.143 341 180C341 181.857 341.738 183.637 343.05 184.95C344.363 186.263 346.143 187 348 187" fill="white"/>
<path d="M355 257H341V271H355V257Z" fill="white"/>
<path d="M355 271H341V285H348C349.857 285 351.637 284.262 352.95 282.95C354.262 281.637 355 279.857 355 278" fill="white"/>
<path d="M355 299H341V313H355V299Z" fill="white"/>
<path d="M341 341H355V334C355 332.143 354.262 330.363 352.95 329.05C351.637 327.738 349.857 327 348 327C346.143 327 344.363 327.738 343.05 329.05C341.738 330.363 341 332.143 341 334" fill="white"/>
<path d="M355 341H341V355H348C349.857 355 351.637 354.262 352.95 352.95C354.262 351.637 355 349.857 355 348" fill="white"/>
<path d="M355 383H341V397H355V383Z" fill="white"/>
<path d="M341 467V481H348C349.857 481 351.637 480.262 352.95 478.95C354.262 477.637 355 475.857 355 474C355 472.143 354.262 470.363 352.95 469.05C351.637 467.738 349.857 467 348 467" fill="white"/>
<path d="M362 33C365.866 33 369 29.866 369 26C369 22.134 365.866 19 362 19C358.134 19 355 22.134 355 26C355 29.866 358.134 33 362 33Z" fill="white"/>
<path d="M355 75H369V68C369 66.1435 368.262 64.363 366.95 63.0503C365.637 61.7375 363.857 61 362 61C360.143 61 358.363 61.7375 357.05 63.0503C355.737 64.363 355 66.1435 355 68" fill="white"/>
<path d="M369 75H355V89H369V75Z" fill="white"/>
<path d="M369 89H355V103H369V89Z" fill="white"/>
<path d="M369 103H355V110C355 111.857 355.738 113.637 357.05 114.95C358.363 116.262 360.143 117 362 117C363.857 117 365.637 116.262 366.95 114.95C368.262 113.637 369 111.857 369 110" fill="white"/>
<path d="M355 173V187H362C363.857 187 365.637 186.263 366.95 184.95C368.262 183.637 369 181.857 369 180C369 178.143 368.262 176.363 366.95 175.05C365.637 173.737 363.857 173 362 173" fill="white"/>
<path d="M362 215C365.866 215 369 211.866 369 208C369 204.134 365.866 201 362 201C358.134 201 355 204.134 355 208C355 211.866 358.134 215 362 215Z" fill="white"/>
<path d="M362 243C365.866 243 369 239.866 369 236C369 232.134 365.866 229 362 229C358.134 229 355 232.134 355 236C355 239.866 358.134 243 362 243Z" fill="white"/>
<path d="M369 257H355V271H369V257Z" fill="white"/>
<path d="M355 299H369V292C369 290.143 368.262 288.363 366.95 287.05C365.637 285.738 363.857 285 362 285C360.143 285 358.363 285.738 357.05 287.05C355.738 288.363 355 290.143 355 292" fill="white"/>
<path d="M369 299H355V313H362C363.857 313 365.637 312.262 366.95 310.95C368.262 309.637 369 307.857 369 306" fill="white"/>
<path d="M355 369H369V355H362C360.143 355 358.363 355.738 357.05 357.05C355.738 358.363 355 360.143 355 362" fill="white"/>
<path d="M369 369H355V383H369V369Z" fill="white"/>
<path d="M369 383H355V397H369V383Z" fill="white"/>
<path d="M369 397H355V411H369V397Z" fill="white"/>
<path d="M369 411H355V425H369V411Z" fill="white"/>
<path d="M369 439V425H355V432C355 433.857 355.738 435.637 357.05 436.95C358.363 438.262 360.143 439 362 439" fill="white"/>
<path d="M369 467V453H362C360.143 453 358.363 453.738 357.05 455.05C355.738 456.363 355 458.143 355 460C355 461.857 355.738 463.637 357.05 464.95C358.363 466.262 360.143 467 362 467" fill="white"/>
<path d="M369 145H383V138C383 136.143 382.263 134.363 380.95 133.05C379.637 131.738 377.857 131 376 131C374.143 131 372.363 131.738 371.05 133.05C369.737 134.363 369 136.143 369 138" fill="white"/>
<path d="M383 159V145H369V152C369 153.857 369.738 155.637 371.05 156.95C372.363 158.263 374.143 159 376 159" fill="white"/>
<path d="M383 201V187H376C374.143 187 372.363 187.737 371.05 189.05C369.738 190.363 369 192.143 369 194C369 195.857 369.738 197.637 371.05 198.95C372.363 200.263 374.143 201 376 201" fill="white"/>
<path d="M383 229V215H376C374.143 215 372.363 215.737 371.05 217.05C369.738 218.363 369 220.143 369 222C369 223.857 369.738 225.637 371.05 226.95C372.363 228.263 374.143 229 376 229" fill="white"/>
<path d="M369 257H383V243H376C374.143 243 372.363 243.738 371.05 245.05C369.737 246.363 369 248.143 369 250" fill="white"/>
<path d="M383 257H369V271H383V257Z" fill="white"/>
<path d="M383 327V313H376C374.143 313 372.363 313.738 371.05 315.05C369.738 316.363 369 318.143 369 320C369 321.857 369.738 323.637 371.05 324.95C372.363 326.262 374.143 327 376 327" fill="white"/>
<path d="M383 355H369V369H383V355Z" fill="white"/>
<path d="M383 411H369V425H383V411Z" fill="white"/>
<path d="M383 425H369V439H376C377.857 439 379.637 438.262 380.95 436.95C382.262 435.637 383 433.857 383 432" fill="white"/>
<path d="M369 453V467H383V460C383 458.143 382.262 456.363 380.95 455.05C379.637 453.738 377.857 453 376 453" fill="white"/>
<path d="M383 467H369V474C369 475.857 369.738 477.637 371.05 478.95C372.363 480.262 374.143 481 376 481C377.857 481 379.637 480.262 380.95 478.95C382.262 477.637 383 475.857 383 474" fill="white"/>
<path d="M383 145V159H397V152C397 150.143 396.262 148.363 394.95 147.05C393.637 145.737 391.857 145 390 145" fill="white"/>
<path d="M397 173V159H383V166C383 167.857 383.738 169.637 385.05 170.95C386.363 172.263 388.143 173 390 173" fill="white"/>
<path d="M383 187V201H397V194C397 192.143 396.262 190.363 394.95 189.05C393.637 187.737 391.857 187 390 187" fill="white"/>
<path d="M397 201H383V215H397V201Z" fill="white"/>
<path d="M397 215H383V229H397V215Z" fill="white"/>
<path d="M397 229H383V243H397V229Z" fill="white"/>
<path d="M397 243H383V257H397V243Z" fill="white"/>
<path d="M397 257H383V271H390C391.857 271 393.637 270.262 394.95 268.95C396.262 267.637 397 265.857 397 264" fill="white"/>
<path d="M383 299H397V285H390C388.143 285 386.363 285.738 385.05 287.05C383.738 288.363 383 290.143 383 292" fill="white"/>
<path d="M397 299H383V313H397V299Z" fill="white"/>
<path d="M397 313H383V327H390C391.857 327 393.637 326.262 394.95 324.95C396.262 323.637 397 321.857 397 320" fill="white"/>
<path d="M383 355H397V341H390C388.143 341 386.363 341.738 385.05 343.05C383.738 344.363 383 346.143 383 348" fill="white"/>
<path d="M397 355H383V369H397V355Z" fill="white"/>
<path d="M390 397C393.866 397 397 393.866 397 390C397 386.134 393.866 383 390 383C386.134 383 383 386.134 383 390C383 393.866 386.134 397 390 397Z" fill="white"/>
<path d="M397 411H383V425H397V411Z" fill="white"/>
<path d="M404 145C407.866 145 411 141.866 411 138C411 134.134 407.866 131 404 131C400.134 131 397 134.134 397 138C397 141.866 400.134 145 404 145Z" fill="white"/>
<path d="M397 159V173H404C405.857 173 407.637 172.263 408.95 170.95C410.262 169.637 411 167.857 411 166C411 164.143 410.262 162.363 408.95 161.05C407.637 159.737 405.857 159 404 159" fill="white"/>
<path d="M411 201H397V215H411V201Z" fill="white"/>
<path d="M411 215H397V229H411V215Z" fill="white"/>
<path d="M411 229H397V243H411V229Z" fill="white"/>
<path d="M397 285H411V278C411 276.143 410.262 274.363 408.95 273.05C407.637 271.738 405.857 271 404 271C402.143 271 400.363 271.738 399.05 273.05C397.738 274.363 397 276.143 397 278" fill="white"/>
<path d="M411 285H397V299H404C405.857 299 407.637 298.262 408.95 296.95C410.262 295.637 411 293.857 411 292" fill="white"/>
<path d="M411 341H397V355H411V341Z" fill="white"/>
<path d="M411 355H397V369H411V355Z" fill="white"/>
<path d="M411 411H397V425H411V411Z" fill="white"/>
<path d="M411 425H397V439H411V425Z" fill="white"/>
<path d="M411 453V439H397V446C397 447.857 397.738 449.637 399.05 450.95C400.363 452.262 402.143 453 404 453" fill="white"/>
<path d="M404 481C407.866 481 411 477.866 411 474C411 470.134 407.866 467 404 467C400.134 467 397 470.134 397 474C397 477.866 400.134 481 404 481Z" fill="white"/>
<path d="M411 187H425V173H418C416.143 173 414.363 173.738 413.05 175.05C411.737 176.363 411 178.143 411 180" fill="white"/>
<path d="M425 187H411V201H425V187Z" fill="white"/>
<path d="M425 201H411V215H425V201Z" fill="white"/>
<path d="M425 215H411V229H425V215Z" fill="white"/>
<path d="M425 229H411V243H425V229Z" fill="white"/>
<path d="M425 243H411V257H425V243Z" fill="white"/>
<path d="M425 257H411V264C411 265.857 411.738 267.637 413.05 268.95C414.363 270.262 416.143 271 418 271C419.857 271 421.637 270.262 422.95 268.95C424.262 267.637 425 265.857 425 264" fill="white"/>
<path d="M411 341H425V327H418C416.143 327 414.363 327.738 413.05 329.05C411.738 330.363 411 332.143 411 334" fill="white"/>
<path d="M425 341H411V355H425V341Z" fill="white"/>
<path d="M425 355H411V369H425V355Z" fill="white"/>
<path d="M425 369H411V383H425V369Z" fill="white"/>
<path d="M425 383H411V397H425V383Z" fill="white"/>
<path d="M425 397H411V411H425V397Z" fill="white"/>
<path d="M425 411H411V425H418C419.857 425 421.637 424.262 422.95 422.95C424.262 421.637 425 419.857 425 418" fill="white"/>
<path d="M425 439H411V453H425V439Z" fill="white"/>
<path d="M439 145V131H432C430.143 131 428.363 131.737 427.05 133.05C425.738 134.363 425 136.143 425 138C425 139.857 425.738 141.637 427.05 142.95C428.363 144.263 430.143 145 432 145" fill="white"/>
<path d="M439 173H425V187H439V173Z" fill="white"/>
<path d="M439 187H425V201H439V187Z" fill="white"/>
<path d="M425 285H439V271H432C430.143 271 428.363 271.738 427.05 273.05C425.738 274.363 425 276.143 425 278" fill="white"/>
<path d="M439 285H425V292C425 293.857 425.738 295.637 427.05 296.95C428.363 298.262 430.143 299 432 299C433.857 299 435.637 298.262 436.95 296.95C438.262 295.637 439 293.857 439 292" fill="white"/>
<path d="M425 327H439V320C439 318.143 438.262 316.363 436.95 315.05C435.637 313.738 433.857 313 432 313C430.143 313 428.363 313.738 427.05 315.05C425.738 316.363 425 318.143 425 320" fill="white"/>
<path d="M439 327H425V341H439V327Z" fill="white"/>
<path d="M425 355V369H439V362C439 360.143 438.262 358.363 436.95 357.05C435.637 355.738 433.857 355 432 355" fill="white"/>
<path d="M439 369H425V383H432C433.857 383 435.637 382.262 436.95 380.95C438.262 379.637 439 377.857 439 376" fill="white"/>
<path d="M439 397H425V411H439V397Z" fill="white"/>
<path d="M439 439H425V453H439V439Z" fill="white"/>
<path d="M439 453H425V467H439V453Z" fill="white"/>
<path d="M439 467H425V474C425 475.857 425.738 477.637 427.05 478.95C428.363 480.262 430.143 481 432 481C433.857 481 435.637 480.262 436.95 478.95C438.262 477.637 439 475.857 439 474" fill="white"/>
<path d="M453 131H439V145H453V131Z" fill="white"/>
<path d="M439 173H453V166C453 164.143 452.263 162.363 450.95 161.05C449.637 159.738 447.857 159 446 159C444.143 159 442.363 159.738 441.05 161.05C439.737 162.363 439 164.143 439 166" fill="white"/>
<path d="M453 173H439V187H453V173Z" fill="white"/>
<path d="M453 187H439V201H446C447.857 201 449.637 200.262 450.95 198.95C452.263 197.637 453 195.857 453 194" fill="white"/>
<path d="M439 271H453V257H446C444.143 257 442.363 257.738 441.05 259.05C439.738 260.363 439 262.143 439 264" fill="white"/>
<path d="M453 271H439V285H446C447.857 285 449.637 284.262 450.95 282.95C452.262 281.637 453 279.857 453 278" fill="white"/>
<path d="M453 313V299H446C444.143 299 442.363 299.738 441.05 301.05C439.738 302.363 439 304.143 439 306C439 307.857 439.738 309.637 441.05 310.95C442.363 312.262 444.143 313 446 313" fill="white"/>
<path d="M453 327H439V341H453V327Z" fill="white"/>
<path d="M453 341H439V348C439 349.857 439.738 351.637 441.05 352.95C442.363 354.262 444.143 355 446 355C447.857 355 449.637 354.262 450.95 352.95C452.262 351.637 453 349.857 453 348" fill="white"/>
<path d="M439 397H453V390C453 388.143 452.262 386.363 450.95 385.05C449.637 383.738 447.857 383 446 383C444.143 383 442.363 383.738 441.05 385.05C439.738 386.363 439 388.143 439 390" fill="white"/>
<path d="M453 397H439V411H453V397Z" fill="white"/>
<path d="M439 439H453V432C453 430.143 452.262 428.363 450.95 427.05C449.637 425.738 447.857 425 446 425C444.143 425 442.363 425.738 441.05 427.05C439.738 428.363 439 430.143 439 432" fill="white"/>
<path d="M453 439H439V453H446C447.857 453 449.637 452.262 450.95 450.95C452.262 449.637 453 447.857 453 446" fill="white"/>
<path d="M453 131V145H467V138C467 136.143 466.262 134.363 464.95 133.05C463.637 131.737 461.857 131 460 131" fill="white"/>
<path d="M467 159V145H453V152C453 153.857 453.738 155.637 455.05 156.95C456.363 158.263 458.143 159 460 159" fill="white"/>
<path d="M453 173V187H460C461.857 187 463.637 186.263 464.95 184.95C466.262 183.637 467 181.857 467 180C467 178.143 466.262 176.363 464.95 175.05C463.637 173.737 461.857 173 460 173" fill="white"/>
<path d="M460 215C463.866 215 467 211.866 467 208C467 204.134 463.866 201 460 201C456.134 201 453 204.134 453 208C453 211.866 456.134 215 460 215Z" fill="white"/>
<path d="M467 243V229H460C458.143 229 456.363 229.737 455.05 231.05C453.738 232.363 453 234.143 453 236C453 237.857 453.738 239.637 455.05 240.95C456.363 242.263 458.143 243 460 243" fill="white"/>
<path d="M467 257H453V271H467V257Z" fill="white"/>
<path d="M453 299V313H460C461.857 313 463.637 312.262 464.95 310.95C466.262 309.637 467 307.857 467 306C467 304.143 466.262 302.363 464.95 301.05C463.637 299.738 461.857 299 460 299" fill="white"/>
<path d="M453 327V341H460C461.857 341 463.637 340.262 464.95 338.95C466.262 337.637 467 335.857 467 334C467 332.143 466.262 330.363 464.95 329.05C463.637 327.738 461.857 327 460 327" fill="white"/>
<path d="M453 369H467V362C467 360.143 466.262 358.363 464.95 357.05C463.637 355.738 461.857 355 460 355C458.143 355 456.363 355.738 455.05 357.05C453.738 358.363 453 360.143 453 362" fill="white"/>
<path d="M467 369H453V376C453 377.857 453.738 379.637 455.05 380.95C456.363 382.262 458.143 383 460 383C461.857 383 463.637 382.262 464.95 380.95C466.262 379.637 467 377.857 467 376" fill="white"/>
<path d="M453 397V411H467V404C467 402.143 466.262 400.363 464.95 399.05C463.637 397.738 461.857 397 460 397" fill="white"/>
<path d="M467 425V411H453V418C453 419.857 453.738 421.637 455.05 422.95C456.363 424.262 458.143 425 460 425" fill="white"/>
<path d="M460 481C463.866 481 467 477.866 467 474C467 470.134 463.866 467 460 467C456.134 467 453 470.134 453 474C453 477.866 456.134 481 460 481Z" fill="white"/>
<path d="M467 145V159H481V152C481 150.143 480.262 148.363 478.95 147.05C477.637 145.737 475.857 145 474 145" fill="white"/>
<path d="M481 159H467V166C467 167.857 467.737 169.637 469.05 170.95C470.363 172.262 472.143 173 474 173C475.857 173 477.637 172.262 478.95 170.95C480.263 169.637 481 167.857 481 166" fill="white"/>
<path d="M474 201C477.866 201 481 197.866 481 194C481 190.134 477.866 187 474 187C470.134 187 467 190.134 467 194C467 197.866 470.134 201 474 201Z" fill="white"/>
<path d="M467 229H481V222C481 220.143 480.263 218.363 478.95 217.05C477.637 215.738 475.857 215 474 215C472.143 215 470.363 215.738 469.05 217.05C467.737 218.363 467 220.143 467 222" fill="white"/>
<path d="M481 229H467V243H481V229Z" fill="white"/>
<path d="M481 243H467V257H481V243Z" fill="white"/>
<path d="M481 257H467V271H481V257Z" fill="white"/>
<path d="M481 271H467V285H481V271Z" fill="white"/>
<path d="M481 285H467V292C467 293.857 467.738 295.637 469.05 296.95C470.363 298.262 472.143 299 474 299C475.857 299 477.637 298.262 478.95 296.95C480.262 295.637 481 293.857 481 292" fill="white"/>
<path d="M474 355C477.866 355 481 351.866 481 348C481 344.134 477.866 341 474 341C470.134 341 467 344.134 467 348C467 351.866 470.134 355 474 355Z" fill="white"/>
<path d="M474 397C477.866 397 481 393.866 481 390C481 386.134 477.866 383 474 383C470.134 383 467 386.134 467 390C467 393.866 470.134 397 474 397Z" fill="white"/>
<path d="M467 411V425H474C475.857 425 477.637 424.262 478.95 422.95C480.262 421.637 481 419.857 481 418C481 416.143 480.262 414.363 478.95 413.05C477.637 411.738 475.857 411 474 411" fill="white"/>
</mask>
<g mask="url(#mask0_758_3102)">
<path d="M500 0H0V500H500V0Z" fill="#043121"/>
</g>
<mask id="mask1_758_3102" style="mask-type:luminance" maskUnits="userSpaceOnUse" x="19" y="19" width="98" height="98">
<path fill-rule="evenodd" clip-rule="evenodd" d="M19 54V82C19 91.2826 22.6875 100.185 29.2513 106.749C35.815 113.313 44.7174 117 54 117H82C91.2826 117 100.185 113.313 106.749 106.749C113.313 100.185 117 91.2826 117 82V54C117 44.7174 113.313 35.815 106.749 29.2513C100.185 22.6875 91.2826 19 82 19H54C44.7174 19 35.815 22.6875 29.2513 29.2513C22.6875 35.815 19 44.7174 19 54ZM54 33H82C87.5695 33 92.911 35.2125 96.8492 39.1508C100.788 43.089 103 48.4305 103 54V82C103 87.5695 100.788 92.911 96.8492 96.8492C92.911 100.788 87.5695 103 82 103H54C48.4305 103 43.089 100.788 39.1508 96.8492C35.2125 92.911 33 87.5695 33 82V54C33 48.4305 35.2125 43.089 39.1508 39.1508C43.089 35.2125 48.4305 33 54 33Z" fill="white"/>
</mask>
<g mask="url(#mask1_758_3102)">
<path d="M117 19H19V117H117V19Z" fill="#0A754E"/>
</g>
<mask id="mask2_758_3102" style="mask-type:luminance" maskUnits="userSpaceOnUse" x="47" y="47" width="42" height="42">
<path d="M68 89C79.598 89 89 79.598 89 68C89 56.402 79.598 47 68 47C56.402 47 47 56.402 47 68C47 79.598 56.402 89 68 89Z" fill="white"/>
</mask>
<g mask="url(#mask2_758_3102)">
<path d="M89 47H47V89H89V47Z" fill="#F5B237"/>
</g>
<mask id="mask3_758_3102" style="mask-type:luminance" maskUnits="userSpaceOnUse" x="383" y="19" width="98" height="98">
<path fill-rule="evenodd" clip-rule="evenodd" d="M446 19H418C408.717 19 399.815 22.6875 393.251 29.2513C386.687 35.815 383 44.7174 383 54V82C383 91.2826 386.687 100.185 393.251 106.749C399.815 113.313 408.717 117 418 117H446C455.283 117 464.185 113.313 470.749 106.749C477.313 100.185 481 91.2826 481 82V54C481 44.7174 477.313 35.815 470.749 29.2513C464.185 22.6875 455.283 19 446 19ZM467 54V82C467 87.5695 464.788 92.911 460.849 96.8492C456.911 100.788 451.57 103 446 103H418C412.43 103 407.089 100.788 403.151 96.8492C399.212 92.911 397 87.5695 397 82V54C397 48.4305 399.212 43.089 403.151 39.1508C407.089 35.2125 412.43 33 418 33H446C451.57 33 456.911 35.2125 460.849 39.1508C464.788 43.089 467 48.4305 467 54Z" fill="white"/>
</mask>
<g mask="url(#mask3_758_3102)">
<path d="M481 19H383V117H481V19Z" fill="#0A754E"/>
</g>
<mask id="mask4_758_3102" style="mask-type:luminance" maskUnits="userSpaceOnUse" x="411" y="47" width="42" height="42">
<path d="M411 68C411 79.598 420.402 89 432 89C443.598 89 453 79.598 453 68C453 56.402 443.598 47 432 47C420.402 47 411 56.402 411 68Z" fill="white"/>
</mask>
<g mask="url(#mask4_758_3102)">
<path d="M453 47H411V89H453V47Z" fill="#06402B"/>
</g>
<mask id="mask5_758_3102" style="mask-type:luminance" maskUnits="userSpaceOnUse" x="19" y="383" width="98" height="98">
<path fill-rule="evenodd" clip-rule="evenodd" d="M54 481H82C91.2826 481 100.185 477.313 106.749 470.749C113.313 464.185 117 455.283 117 446V418C117 408.717 113.313 399.815 106.749 393.251C100.185 386.687 91.2826 383 82 383H54C44.7174 383 35.815 386.687 29.2513 393.251C22.6875 399.815 19 408.717 19 418V446C19 455.283 22.6875 464.185 29.2513 470.749C35.815 477.313 44.7174 481 54 481ZM33 446V418C33 412.43 35.2125 407.089 39.1508 403.151C43.089 399.212 48.4305 397 54 397H82C87.5695 397 92.911 399.212 96.8492 403.151C100.788 407.089 103 412.43 103 418V446C103 451.57 100.788 456.911 96.8492 460.849C92.911 464.788 87.5695 467 82 467H54C48.4305 467 43.089 464.788 39.1508 460.849C35.2125 456.911 33 451.57 33 446Z" fill="white"/>
</mask>
<g mask="url(#mask5_758_3102)">
<path d="M117 383H19V481H117V383Z" fill="#0A754E"/>
</g>
<mask id="mask6_758_3102" style="mask-type:luminance" maskUnits="userSpaceOnUse" x="47" y="411" width="42" height="42">
<path d="M89 432C89 420.402 79.598 411 68 411C56.402 411 47 420.402 47 432C47 443.598 56.402 453 68 453C79.598 453 89 443.598 89 432Z" fill="white"/>
</mask>
<g mask="url(#mask6_758_3102)">
<path d="M89 411H47V453H89V411Z" fill="#06402B"/>
</g>
</g>
<defs>
<clipPath id="clip0_758_3102">
<rect width="500" height="500" fill="white"/>
</clipPath>
</defs>
</svg>
