<svg width="500" height="500" viewBox="0 0 500 500" fill="none" xmlns="http://www.w3.org/2000/svg">
<g clip-path="url(#clip0_758_3579)">
<path d="M500 0H0V500H500V0Z" fill="white"/>
<path d="M201 178.617C196.58 178.617 193 182.197 193 186.617C193 191.037 196.58 194.617 201 194.617H209V178.617H201Z" fill="#043121"/>
<path d="M153 194.617C148.58 194.617 145 198.197 145 202.617C145 207.037 148.58 210.617 153 210.617H161V194.617H153Z" fill="#043121"/>
<path d="M137 210.617H129V226.617H137C141.42 226.617 145 223.037 145 218.617C145 214.197 141.42 210.617 137 210.617Z" fill="#043121"/>
<path d="M169 226.617C173.42 226.617 177 223.037 177 218.617V186.617C177 182.197 173.42 178.617 169 178.617C164.58 178.617 161 182.197 161 186.617V218.617C161 223.037 164.58 226.617 169 226.617Z" fill="#043121"/>
<path d="M241 194.617H225V210.617H241V194.617Z" fill="#043121"/>
<path d="M241 226.617V258.617H249C253.42 258.617 257 255.037 257 250.617V194.617H241V226.617Z" fill="#043121"/>
<path d="M217 258.617C212.58 258.617 209 262.197 209 266.617C209 271.037 212.58 274.617 217 274.617H225V258.617H217Z" fill="#043121"/>
<path d="M257 226.617V242.617H265C269.42 242.617 273 239.037 273 234.617V186.617C273 182.197 269.42 178.617 265 178.617C260.58 178.617 257 182.197 257 186.617V226.617Z" fill="#043121"/>
<path d="M233 242.617C228.58 242.617 225 246.197 225 250.617V274.617H233C237.42 274.617 241 271.037 241 266.617V242.617H233Z" fill="#043121"/>
<path d="M129 210.617H113V226.617H129V210.617Z" fill="#043121"/>
<path d="M49 306.617V314.617C49 319.037 52.58 322.617 57 322.617H65V298.617C65 294.197 61.42 290.617 57 290.617C52.58 290.617 49 294.197 49 298.617V306.617Z" fill="#043121"/>
<path d="M121 322.617C125.42 322.617 129 319.037 129 314.617C129 310.197 125.42 306.617 121 306.617C116.58 306.617 113 310.197 113 314.617C113 319.037 116.58 322.617 121 322.617Z" fill="#043121"/>
<path d="M97 210.617V234.617C97 239.037 100.58 242.617 105 242.617C109.42 242.617 113 239.037 113 234.617V210.617H97Z" fill="#043121"/>
<path d="M105 306.617C109.42 306.617 113 303.037 113 298.617C113 294.197 109.42 290.617 105 290.617H97V306.617H105Z" fill="#043121"/>
<path d="M89 322.617C93.42 322.617 97 319.037 97 314.617V290.617H89C84.58 290.617 81 294.197 81 298.617V322.617H89Z" fill="#043121"/>
<path d="M81 306.617H65V322.617H81V306.617Z" fill="#043121"/>
<path d="M121 258.617C125.42 258.617 129 255.037 129 250.617C129 246.197 125.42 242.617 121 242.617C116.58 242.617 113 246.197 113 250.617C113 255.037 116.58 258.617 121 258.617Z" fill="#043121"/>
<path d="M97 202.617C97 198.197 93.42 194.617 89 194.617C84.58 194.617 81 198.197 81 202.617V218.617C81 223.037 84.58 226.617 89 226.617H97V202.617Z" fill="#043121"/>
<path d="M129 274.617H121C116.58 274.617 113 278.197 113 282.617C113 287.037 116.58 290.617 121 290.617H129V274.617Z" fill="#043121"/>
<path d="M137 290.617C141.42 290.617 145 287.037 145 282.617C145 278.197 141.42 274.617 137 274.617H129V290.617H137Z" fill="#043121"/>
<path d="M234.827 386.418C239.127 385.403 241.79 381.094 240.775 376.794C239.76 372.494 235.451 369.831 231.151 370.846C226.851 371.861 224.188 376.17 225.203 380.47C226.218 384.77 230.527 387.433 234.827 386.418Z" fill="#043121"/>
<path d="M234.296 450.496C238.657 449.788 241.619 445.679 240.911 441.317C240.203 436.956 236.094 433.995 231.733 434.703C227.371 435.41 224.41 439.52 225.118 443.881C225.826 448.242 229.935 451.204 234.296 450.496Z" fill="#043121"/>
<path d="M249 418.617C253.42 418.617 257 415.037 257 410.617C257 406.197 253.42 402.617 249 402.617H241V418.617H249Z" fill="#043121"/>
<path d="M222.658 432.27C225.782 429.146 225.782 424.081 222.658 420.956C219.534 417.832 214.469 417.832 211.344 420.956C208.22 424.081 208.22 429.146 211.344 432.27C214.469 435.394 219.534 435.394 222.658 432.27Z" fill="#043121"/>
<path d="M81 234.617C81 230.197 77.42 226.617 73 226.617C68.58 226.617 65 230.197 65 234.617V266.617C65 271.037 68.58 274.617 73 274.617H81V234.617Z" fill="#043121"/>
<path d="M218.292 402.5C222.653 401.792 225.615 397.683 224.907 393.321C224.199 388.96 220.09 385.999 215.729 386.706C211.367 387.414 208.406 391.524 209.114 395.885C209.822 400.246 213.931 403.208 218.292 402.5Z" fill="#043121"/>
<path d="M265 386.617C260.58 386.617 257 390.197 257 394.617C257 399.037 260.58 402.617 265 402.617C269.42 402.617 273 399.037 273 394.617C273 390.197 269.42 386.617 265 386.617Z" fill="#043121"/>
<path d="M369 274.617V234.617C369 230.197 365.42 226.617 361 226.617C356.58 226.617 353 230.197 353 234.617V274.617H369Z" fill="#043121"/>
<path d="M377 274.617C381.42 274.617 385 271.037 385 266.617C385 262.197 381.42 258.617 377 258.617H369V274.617H377Z" fill="#043121"/>
<path d="M217 178.617H209V202.617C209 207.037 212.58 210.617 217 210.617H225V186.617C225 182.197 221.42 178.617 217 178.617Z" fill="#043121"/>
<path d="M265 434.617C269.42 434.617 273 431.037 273 426.617C273 422.197 269.42 418.617 265 418.617C260.58 418.617 257 422.197 257 426.617C257 431.037 260.58 434.617 265 434.617Z" fill="#043121"/>
<path d="M238.656 320.27C241.78 317.146 241.78 312.081 238.656 308.956C235.532 305.832 230.467 305.832 227.342 308.956C224.218 312.081 224.218 317.146 227.342 320.27C230.467 323.394 235.532 323.394 238.656 320.27Z" fill="#043121"/>
<path d="M241 402.617H233C228.58 402.617 225 406.197 225 410.617C225 415.037 228.58 418.617 233 418.617H241V402.617Z" fill="#043121"/>
<path d="M281 258.617C285.418 258.617 289 255.035 289 250.617C289 246.199 285.418 242.617 281 242.617C276.582 242.617 273 246.199 273 250.617C273 255.035 276.582 258.617 281 258.617Z" fill="#043121"/>
<path d="M241 162.617V178.617H249C253.42 178.617 257 175.037 257 170.617V146.617H241V162.617Z" fill="#043121"/>
<path d="M273 162.617V138.617C273 134.197 269.42 130.617 265 130.617C260.58 130.617 257 134.197 257 138.617V162.617H273Z" fill="#043121"/>
<path d="M257 122.617C257 118.197 253.42 114.617 249 114.617C244.58 114.617 241 118.197 241 122.617C241 127.037 244.58 130.617 249 130.617C253.42 130.617 257 127.037 257 122.617Z" fill="#043121"/>
<path d="M273 170.617C273 175.037 276.58 178.617 281 178.617C285.42 178.617 289 175.037 289 170.617V154.617C289 150.197 285.42 146.617 281 146.617H273V170.617Z" fill="#043121"/>
<path d="M241 146.617H233C228.58 146.617 225 150.197 225 154.617V170.617C225 175.037 228.58 178.617 233 178.617H241V146.617Z" fill="#043121"/>
<path d="M305 226.617V242.617H313C317.42 242.617 321 239.037 321 234.617V202.617C321 198.197 317.42 194.617 313 194.617C308.58 194.617 305 198.197 305 202.617V226.617Z" fill="#043121"/>
<path d="M281 114.617C276.58 114.617 273 118.197 273 122.617C273 127.037 276.58 130.617 281 130.617C285.42 130.617 289 127.037 289 122.617C289 118.197 285.42 114.617 281 114.617Z" fill="#043121"/>
<path d="M305 210.617H297C292.58 210.617 289 214.197 289 218.617V234.617C289 239.037 292.58 242.617 297 242.617H305V210.617Z" fill="#043121"/>
<path d="M302.66 144.278C305.784 141.154 305.784 136.088 302.66 132.964C299.536 129.84 294.471 129.84 291.346 132.964C288.222 136.088 288.222 141.154 291.346 144.278C294.471 147.402 299.536 147.402 302.66 144.278Z" fill="#043121"/>
<path d="M281 322.617C285.42 322.617 289 319.037 289 314.617C289 310.197 285.42 306.617 281 306.617H273V322.617H281Z" fill="#043121"/>
<path d="M321 282.617C321 278.197 317.42 274.617 313 274.617H305V306.617H321V282.617Z" fill="#043121"/>
<path d="M57 242.617C52.58 242.617 49 246.197 49 250.617C49 255.037 52.58 258.617 57 258.617H65V242.617H57Z" fill="#043121"/>
<path d="M273 338.617V370.617H281C285.42 370.617 289 367.037 289 362.617V338.617H273Z" fill="#043121"/>
<path d="M377 386.617C381.418 386.617 385 383.035 385 378.617C385 374.199 381.418 370.617 377 370.617C372.582 370.617 369 374.199 369 378.617C369 383.035 372.582 386.617 377 386.617Z" fill="#043121"/>
<path d="M321 338.617H305V354.617H321V338.617Z" fill="#043121"/>
<path d="M305 330.617C305 326.197 301.42 322.617 297 322.617C292.58 322.617 289 326.197 289 330.617V354.617H305V330.617Z" fill="#043121"/>
<path d="M353 290.617H337V306.617H353V290.617Z" fill="#043121"/>
<path d="M337 322.617V306.617V290.617H321V306.617V322.617V338.617V354.617H337V338.617V322.617Z" fill="#043121"/>
<path d="M369 338.617V354.617H385V314.617C385 310.197 381.42 306.617 377 306.617H369V338.617Z" fill="#043121"/>
<path d="M353 386.617V322.617H337V410.617C337 415.037 340.58 418.617 345 418.617H353V386.617Z" fill="#043121"/>
<path d="M353 322.617V354.617H369V298.617C369 294.197 365.42 290.617 361 290.617H353V322.617Z" fill="#043121"/>
<path d="M385 354.617H401V338.617V322.617H385V338.617V354.617Z" fill="#043121"/>
<path d="M353 162.617H361C365.42 162.617 369 159.037 369 154.617C369 150.197 365.42 146.617 361 146.617H353V162.617Z" fill="#043121"/>
<path d="M273 338.617V282.617C273 278.197 269.42 274.617 265 274.617C260.58 274.617 257 278.197 257 282.617V370.617H273V338.617Z" fill="#043121"/>
<path d="M393 210.617C397.42 210.617 401 207.037 401 202.617C401 198.197 397.42 194.617 393 194.617H385V210.617H393Z" fill="#043121"/>
<path d="M353 130.617V122.617C353 118.197 349.42 114.617 345 114.617C340.58 114.617 337 118.197 337 122.617V162.617H353V130.617Z" fill="#043121"/>
<path d="M329 146.617C324.58 146.617 321 150.197 321 154.617V170.617C321 175.037 324.58 178.617 329 178.617C333.42 178.617 337 175.037 337 170.617V146.617H329Z" fill="#043121"/>
<path d="M385 170.617C385 166.197 381.42 162.617 377 162.617C372.58 162.617 369 166.197 369 170.617V218.617C369 223.037 372.58 226.617 377 226.617C381.42 226.617 385 223.037 385 218.617V170.617Z" fill="#043121"/>
<path d="M257 338.617H249C244.58 338.617 241 342.197 241 346.617V362.617C241 367.037 244.58 370.617 249 370.617H257V338.617Z" fill="#043121"/>
<path d="M345 274.617H353V258.617H345C340.58 258.617 337 262.197 337 266.617C337 271.037 340.58 274.617 345 274.617Z" fill="#043121"/>
<path d="M425 402.617C429.42 402.617 433 399.037 433 394.617C433 390.197 429.42 386.617 425 386.617H417V402.617H425Z" fill="#043121"/>
<path d="M249 290.617C244.58 290.617 241 294.197 241 298.617C241 303.037 244.58 306.617 249 306.617H257V290.617H249Z" fill="#043121"/>
<path d="M305 274.617H297C292.58 274.617 289 278.197 289 282.617V298.617C289 303.037 292.58 306.617 297 306.617H305V274.617Z" fill="#043121"/>
<path d="M209 290.617H193V306.617H209V290.617Z" fill="#043121"/>
<path d="M217 306.617C221.42 306.617 225 303.037 225 298.617C225 294.197 221.42 290.617 217 290.617H209V306.617H217Z" fill="#043121"/>
<path d="M185 274.617C189.42 274.617 193 271.037 193 266.617V226.617H185C180.58 226.617 177 230.197 177 234.617V274.617H185Z" fill="#043121"/>
<path d="M193 258.617H201C205.42 258.617 209 255.037 209 250.617V218.617C209 214.197 205.42 210.617 201 210.617C196.58 210.617 193 214.197 193 218.617V258.617Z" fill="#043121"/>
<path d="M177 306.617V258.617H161V330.617C161 335.037 164.58 338.617 169 338.617H177V306.617Z" fill="#043121"/>
<path d="M193 354.617H185C180.58 354.617 177 358.197 177 362.617C177 367.037 180.58 370.617 185 370.617H193V354.617Z" fill="#043121"/>
<path d="M217 242.617C221.42 242.617 225 239.037 225 234.617C225 230.197 221.42 226.617 217 226.617H209V242.617H217Z" fill="#043121"/>
<path d="M193 306.617V290.617H177V306.617V322.617V338.617H193V322.617V306.617Z" fill="#043121"/>
<path d="M89 274.617C93.42 274.617 97 271.037 97 266.617C97 262.197 93.42 258.617 89 258.617H81V274.617H89Z" fill="#043121"/>
<path d="M217 354.617C221.42 354.617 225 351.037 225 346.617C225 342.197 221.42 338.617 217 338.617H209V354.617H217Z" fill="#043121"/>
<path d="M201 370.617C205.42 370.617 209 367.037 209 362.617V330.617C209 326.197 205.42 322.617 201 322.617H193V370.617H201Z" fill="#043121"/>
<path d="M177 386.617V378.617C177 374.197 173.42 370.617 169 370.617C164.58 370.617 161 374.197 161 378.617V418.617H177V386.617Z" fill="#043121"/>
<path d="M417 354.617V330.617C417 326.197 413.42 322.617 409 322.617H401V418.617H409C413.42 418.617 417 415.037 417 410.617V354.617Z" fill="#043121"/>
<path d="M329 434.617C333.42 434.617 337 431.037 337 426.617C337 422.197 333.42 418.617 329 418.617H321V434.617H329Z" fill="#043121"/>
<path d="M385 402.617V426.617C385 431.037 388.58 434.617 393 434.617C397.42 434.617 401 431.037 401 426.617V402.617H385Z" fill="#043121"/>
<path d="M305 386.617V378.617C305 374.197 301.42 370.617 297 370.617C292.58 370.617 289 374.197 289 378.617V410.617C289 415.037 292.58 418.617 297 418.617H305V386.617Z" fill="#043121"/>
<path d="M161 250.617C161 246.197 157.42 242.617 153 242.617C148.58 242.617 145 246.197 145 250.617V266.617C145 271.037 148.58 274.617 153 274.617H161V250.617Z" fill="#043121"/>
<path d="M385 402.617H369V418.617H385V402.617Z" fill="#043121"/>
<path d="M369 402.617H353V418.617H369V402.617Z" fill="#043121"/>
<path d="M177 442.617C177 447.037 180.58 450.617 185 450.617C189.42 450.617 193 447.037 193 442.617V394.617C193 390.197 189.42 386.617 185 386.617H177V442.617Z" fill="#043121"/>
<path d="M305 442.617C305 447.037 308.58 450.617 313 450.617C317.42 450.617 321 447.037 321 442.617V394.617C321 390.197 317.42 386.617 313 386.617H305V442.617Z" fill="#043121"/>
<path d="M161 386.617H153C148.58 386.617 145 390.197 145 394.617V410.617C145 415.037 148.58 418.617 153 418.617H161V386.617Z" fill="#043121"/>
<path d="M409 178.617C404.58 178.617 401 182.197 401 186.617C401 191.037 404.58 194.617 409 194.617H417V178.617H409Z" fill="#043121"/>
<path d="M281 450.617H273V466.617H281C285.42 466.617 289 463.037 289 458.617C289 454.197 285.42 450.617 281 450.617Z" fill="#043121"/>
<path d="M321 466.617H305V482.617H321V466.617Z" fill="#043121"/>
<path d="M241 466.617H225V482.617H241V466.617Z" fill="#043121"/>
<path d="M257 466.617H241V482.617H257V466.617Z" fill="#043121"/>
<path d="M265 450.617C260.58 450.617 257 454.197 257 458.617V482.617H265C269.42 482.617 273 479.037 273 474.617V450.617H265Z" fill="#043121"/>
<path d="M297 466.617C292.58 466.617 289 470.197 289 474.617C289 479.037 292.58 482.617 297 482.617H305V466.617H297Z" fill="#043121"/>
<path d="M377 466.617H369V482.617H377C381.42 482.617 385 479.037 385 474.617C385 470.197 381.42 466.617 377 466.617Z" fill="#043121"/>
<path d="M473 466.617C477.42 466.617 481 463.037 481 458.617C481 454.197 477.42 450.617 473 450.617H465V466.617H473Z" fill="#043121"/>
<path d="M337 466.617H321V482.617H337V466.617Z" fill="#043121"/>
<path d="M369 450.617V442.617C369 438.197 365.42 434.617 361 434.617C356.58 434.617 353 438.197 353 442.617V482.617H369V450.617Z" fill="#043121"/>
<path d="M345 226.617C349.42 226.617 353 223.037 353 218.617V202.617C353 198.197 349.42 194.617 345 194.617C340.58 194.617 337 198.197 337 202.617V218.617C337 223.037 340.58 226.617 345 226.617Z" fill="#043121"/>
<path d="M153 434.617C148.58 434.617 145 438.197 145 442.617C145 447.037 148.58 450.617 153 450.617C157.42 450.617 161 447.037 161 442.617C161 438.197 157.42 434.617 153 434.617Z" fill="#043121"/>
<path d="M225 466.617H209V482.617H225V466.617Z" fill="#043121"/>
<path d="M145 362.617C145 367.037 148.58 370.617 153 370.617C157.42 370.617 161 367.037 161 362.617V346.617C161 342.197 157.42 338.617 153 338.617H145V362.617Z" fill="#043121"/>
<path d="M129 338.617H113V354.617H129V338.617Z" fill="#043121"/>
<path d="M113 330.617C113 326.197 109.42 322.617 105 322.617C100.58 322.617 97 326.197 97 330.617V346.617C97 351.037 100.58 354.617 105 354.617H113V330.617Z" fill="#043121"/>
<path d="M89 370.617H57C34.91 370.617 17 388.527 17 410.617V442.617C17 464.707 34.91 482.617 57 482.617H89C111.09 482.617 129 464.707 129 442.617V410.617C129 388.527 111.09 370.617 89 370.617ZM113 442.617C113 455.877 102.25 466.617 89 466.617H57C43.75 466.617 33 455.867 33 442.617V410.617C33 397.357 43.75 386.617 57 386.617H89C102.26 386.617 113 397.367 113 410.617V442.617Z" fill="#0A754E"/>
<path d="M145 338.617V330.617C145 326.197 141.42 322.617 137 322.617C132.58 322.617 129 326.197 129 330.617V354.617H145V338.617Z" fill="#043121"/>
<path d="M393 450.617C388.58 450.617 385 454.197 385 458.617C385 463.037 388.58 466.617 393 466.617H401V450.617H393Z" fill="#043121"/>
<path d="M209 458.617C209 454.197 205.42 450.617 201 450.617C196.58 450.617 193 454.197 193 458.617V482.617H209V458.617Z" fill="#043121"/>
<path d="M193 466.617H177V482.617H193V466.617Z" fill="#043121"/>
<path d="M177 458.617C177 454.197 173.42 450.617 169 450.617C164.58 450.617 161 454.197 161 458.617V474.617C161 479.037 164.58 482.617 169 482.617H177V458.617Z" fill="#043121"/>
<path d="M433 178.617H417V194.617H433V178.617Z" fill="#043121"/>
<path d="M473 338.617H465V354.617H473C477.42 354.617 481 351.037 481 346.617C481 342.197 477.42 338.617 473 338.617Z" fill="#043121"/>
<path d="M473 290.617H465V306.617H473C477.42 306.617 481 303.037 481 298.617C481 294.197 477.42 290.617 473 290.617Z" fill="#043121"/>
<path d="M465 274.617V266.617C465 262.197 461.42 258.617 457 258.617H449V298.617C449 303.037 452.58 306.617 457 306.617H465V274.617Z" fill="#043121"/>
<path d="M433 178.617V202.617C433 207.037 436.58 210.617 441 210.617C445.42 210.617 449 207.037 449 202.617V178.617H433Z" fill="#043121"/>
<path d="M449 250.617C449 246.197 445.42 242.617 441 242.617C436.58 242.617 433 246.197 433 250.617V266.617C433 271.037 436.58 274.617 441 274.617H449V250.617Z" fill="#043121"/>
<path d="M73 402.617C59.75 402.617 49 413.367 49 426.617C49 439.867 59.75 450.617 73 450.617C86.25 450.617 97 439.867 97 426.617C97 413.367 86.26 402.617 73 402.617Z" fill="#075337"/>
<path d="M465 162.617V154.617C465 150.197 461.42 146.617 457 146.617C452.58 146.617 449 150.197 449 154.617V194.617H465V162.617Z" fill="#043121"/>
<path d="M425 50.6172C411.75 50.6172 401 61.3672 401 74.6172C401 87.8672 411.75 98.6172 425 98.6172C438.25 98.6172 449 87.8672 449 74.6172C449 61.3672 438.25 50.6172 425 50.6172Z" fill="#075337"/>
<path d="M441 18.6172H409C386.91 18.6172 369 36.5272 369 58.6172V90.6172C369 112.707 386.91 130.617 409 130.617H441C463.09 130.617 481 112.707 481 90.6172V58.6172C481 36.5272 463.09 18.6172 441 18.6172ZM465 90.6172C465 103.877 454.25 114.617 441 114.617H409C395.74 114.617 385 103.867 385 90.6172V58.6172C385 45.3672 395.75 34.6172 409 34.6172H441C454.26 34.6172 465 45.3672 465 58.6172V90.6172Z" fill="#0A754E"/>
<path d="M473 162.617H465V202.617C465 207.037 468.58 210.617 473 210.617C477.42 210.617 481 207.037 481 202.617V170.617C481 166.197 477.42 162.617 473 162.617Z" fill="#043121"/>
<path d="M409 162.617C413.42 162.617 417 159.037 417 154.617C417 150.197 413.42 146.617 409 146.617C404.58 146.617 401 150.197 401 154.617C401 159.037 404.58 162.617 409 162.617Z" fill="#043121"/>
<path d="M449 482.617H457C461.42 482.617 465 479.037 465 474.617V450.617H449V482.617Z" fill="#043121"/>
<path d="M465 418.617H449V434.617H465V418.617Z" fill="#043121"/>
<path d="M441 418.617C436.58 418.617 433 422.197 433 426.617V474.617C433 479.037 436.58 482.617 441 482.617H449V418.617H441Z" fill="#043121"/>
<path d="M473 402.617C468.58 402.617 465 406.197 465 410.617V434.617H473C477.42 434.617 481 431.037 481 426.617V410.617C481 406.197 477.42 402.617 473 402.617Z" fill="#043121"/>
<path d="M433 434.617H425C420.58 434.617 417 438.197 417 442.617V466.617H433V434.617Z" fill="#043121"/>
<path d="M401 450.617V474.617C401 479.037 404.58 482.617 409 482.617C413.42 482.617 417 479.037 417 474.617V450.617H401Z" fill="#043121"/>
<path d="M433 298.617C433 294.197 429.42 290.617 425 290.617C420.58 290.617 417 294.197 417 298.617V314.617C417 319.037 420.58 322.617 425 322.617H433V298.617Z" fill="#043121"/>
<path d="M449 338.617V314.617C449 310.197 445.42 306.617 441 306.617H433V362.617C433 367.037 436.58 370.617 441 370.617H449V338.617Z" fill="#043121"/>
<path d="M465 330.617C465 326.197 461.42 322.617 457 322.617H449V370.617H457C461.42 370.617 465 367.037 465 362.617V330.617Z" fill="#043121"/>
<path d="M457 402.617C461.418 402.617 465 399.035 465 394.617C465 390.199 461.418 386.617 457 386.617C452.582 386.617 449 390.199 449 394.617C449 399.035 452.582 402.617 457 402.617Z" fill="#043121"/>
<path d="M474.829 386.43C479.129 385.415 481.792 381.106 480.777 376.806C479.762 372.506 475.453 369.843 471.153 370.858C466.853 371.873 464.19 376.181 465.205 380.481C466.22 384.782 470.528 387.445 474.829 386.43Z" fill="#043121"/>
<path d="M353 466.617H337V482.617H353V466.617Z" fill="#043121"/>
<path d="M273 82.6172V66.6172V50.6172V34.6172H257V50.6172V66.6172V82.6172H273Z" fill="#043121"/>
<path d="M273 90.6172C273 95.0372 276.58 98.6172 281 98.6172H289V66.6172H273V90.6172Z" fill="#043121"/>
<path d="M289 98.6172V106.617C289 111.037 292.58 114.617 297 114.617H305V66.6172H289V98.6172Z" fill="#043121"/>
<path d="M153 50.6172H161V34.6172H153C148.58 34.6172 145 38.1972 145 42.6172C145 47.0372 148.58 50.6172 153 50.6172Z" fill="#043121"/>
<path d="M321 82.6172V50.6172H313C308.58 50.6172 305 54.1972 305 58.6172V82.6172H321Z" fill="#043121"/>
<path d="M233 114.617C237.42 114.617 241 111.037 241 106.617V66.6172H233C228.58 66.6172 225 70.1972 225 74.6172V106.617C225 111.037 228.58 114.617 233 114.617Z" fill="#043121"/>
<path d="M185 66.6172H193V50.6172H185C180.58 50.6172 177 54.1972 177 58.6172C177 63.0372 180.58 66.6172 185 66.6172Z" fill="#043121"/>
<path d="M169 50.6172C173.42 50.6172 177 47.0372 177 42.6172V26.6172C177 22.1972 173.42 18.6172 169 18.6172C164.58 18.6172 161 22.1972 161 26.6172V50.6172H169Z" fill="#043121"/>
<path d="M201 66.6172C205.42 66.6172 209 63.0372 209 58.6172V26.6172C209 22.1972 205.42 18.6172 201 18.6172C196.58 18.6172 193 22.1972 193 26.6172V66.6172H201Z" fill="#043121"/>
<path d="M321 82.6172V114.617H329C333.42 114.617 337 111.037 337 106.617V50.6172H321V82.6172Z" fill="#043121"/>
<path d="M217 130.617C221.42 130.617 225 127.037 225 122.617C225 118.197 221.42 114.617 217 114.617C212.58 114.617 209 118.197 209 122.617C209 127.037 212.58 130.617 217 130.617Z" fill="#043121"/>
<path d="M257 66.6172H241V82.6172H257V66.6172Z" fill="#043121"/>
<path d="M298.838 34.4102C303.139 33.3953 305.802 29.0866 304.787 24.7865C303.772 20.4864 299.463 17.8232 295.163 18.8381C290.863 19.853 288.2 24.1617 289.215 28.4619C290.23 32.762 294.538 35.4252 298.838 34.4102Z" fill="#043121"/>
<path d="M233 34.6172C228.58 34.6172 225 38.1972 225 42.6172C225 47.0372 228.58 50.6172 233 50.6172H241V34.6172H233Z" fill="#043121"/>
<path d="M398.654 240.278C401.778 237.154 401.778 232.088 398.654 228.964C395.53 225.84 390.465 225.84 387.34 228.964C384.216 232.088 384.216 237.154 387.34 240.278C390.465 243.402 395.53 243.402 398.654 240.278Z" fill="#043121"/>
<path d="M417 274.617V266.617C417 262.197 413.42 258.617 409 258.617C404.58 258.617 401 262.197 401 266.617V290.617H409C413.42 290.617 417 287.037 417 282.617V274.617Z" fill="#043121"/>
<path d="M393 274.617C388.58 274.617 385 278.197 385 282.617C385 287.037 388.58 290.617 393 290.617H401V274.617H393Z" fill="#043121"/>
<path d="M305 98.6172V122.617C305 127.037 308.58 130.617 313 130.617C317.42 130.617 321 127.037 321 122.617V98.6172H305Z" fill="#043121"/>
<path d="M257 34.6172H241V50.6172H257V34.6172Z" fill="#043121"/>
<path d="M345 98.6172C349.42 98.6172 353 95.0372 353 90.6172C353 86.1972 349.42 82.6172 345 82.6172H337V98.6172H345Z" fill="#043121"/>
<path d="M345 66.6172C349.42 66.6172 353 63.0372 353 58.6172V26.6172C353 22.1972 349.42 18.6172 345 18.6172C340.58 18.6172 337 22.1972 337 26.6172V66.6172H345Z" fill="#043121"/>
<path d="M281 50.6172C285.42 50.6172 289 47.0372 289 42.6172C289 38.1972 285.42 34.6172 281 34.6172H273V50.6172H281Z" fill="#043121"/>
<path d="M49 226.617V202.617C49 198.197 45.42 194.617 41 194.617C36.58 194.617 33 198.197 33 202.617V226.617H49Z" fill="#043121"/>
<path d="M113 162.617V146.617H97V186.617C97 191.037 100.58 194.617 105 194.617H113V162.617Z" fill="#043121"/>
<path d="M57 130.617H89C111.09 130.617 129 112.707 129 90.6172V58.6172C129 36.5272 111.09 18.6172 89 18.6172H57C34.91 18.6172 17 36.5272 17 58.6172V90.6172C17 112.707 34.91 130.617 57 130.617ZM33 58.6172C33 45.3672 43.75 34.6172 57 34.6172H89C102.26 34.6172 113 45.3672 113 58.6172V90.6172C113 103.877 102.25 114.617 89 114.617H57C43.75 114.617 33 103.867 33 90.6172V58.6172Z" fill="#0A754E"/>
<path d="M129 194.617H137C141.42 194.617 145 191.037 145 186.617C145 182.197 141.42 178.617 137 178.617H129V194.617Z" fill="#043121"/>
<path d="M25 178.617C29.4183 178.617 33 175.035 33 170.617C33 166.199 29.4183 162.617 25 162.617C20.5817 162.617 17 166.199 17 170.617C17 175.035 20.5817 178.617 25 178.617Z" fill="#043121"/>
<path d="M129 178.617H113V194.617H129V178.617Z" fill="#043121"/>
<path d="M73 98.6172C86.26 98.6172 97 87.8672 97 74.6172C97 61.3672 86.26 50.6172 73 50.6172C59.74 50.6172 49 61.3672 49 74.6172C49 87.8672 59.75 98.6172 73 98.6172Z" fill="#F5B237"/>
<path d="M25 290.617C29.42 290.617 33 287.037 33 282.617V210.617H25C20.58 210.617 17 214.197 17 218.617V282.617C17 287.037 20.58 290.617 25 290.617Z" fill="#043121"/>
<path d="M41 338.617C45.42 338.617 49 335.037 49 330.617C49 326.197 45.42 322.617 41 322.617H33V338.617H41Z" fill="#043121"/>
<path d="M57 226.617C61.42 226.617 65 223.037 65 218.617C65 214.197 61.42 210.617 57 210.617H49V226.617H57Z" fill="#043121"/>
<path d="M41 274.617C45.42 274.617 49 271.037 49 266.617C49 262.197 45.42 258.617 41 258.617H33V274.617H41Z" fill="#043121"/>
<path d="M25 354.617C29.42 354.617 33 351.037 33 346.617V322.617H25C20.58 322.617 17 326.197 17 330.617V346.617C17 351.037 20.58 354.617 25 354.617Z" fill="#043121"/>
<path d="M121 162.617C125.42 162.617 129 159.037 129 154.617C129 150.197 125.42 146.617 121 146.617H113V162.617H121Z" fill="#043121"/>
<path d="M177 162.617V130.617H169C164.58 130.617 161 134.197 161 138.617V162.617H177Z" fill="#043121"/>
<path d="M177 162.617V170.617C177 175.037 180.58 178.617 185 178.617C189.42 178.617 193 175.037 193 170.617V98.6172H177V162.617Z" fill="#043121"/>
<path d="M153 162.617H161V146.617H153C148.58 146.617 145 150.197 145 154.617C145 159.037 148.58 162.617 153 162.617Z" fill="#043121"/>
<path d="M201 114.617C205.42 114.617 209 111.037 209 106.617V90.6172C209 86.1972 205.42 82.6172 201 82.6172C196.58 82.6172 193 86.1972 193 90.6172V114.617H201Z" fill="#043121"/>
<path d="M177 82.6172V74.6172C177 70.1972 173.42 66.6172 169 66.6172C164.58 66.6172 161 70.1972 161 74.6172V106.617C161 111.037 164.58 114.617 169 114.617H177V82.6172Z" fill="#043121"/>
<path d="M65 162.617V194.617H73C77.42 194.617 81 191.037 81 186.617V162.617H65Z" fill="#043121"/>
<path d="M97 146.617H89C84.58 146.617 81 150.197 81 154.617V178.617H97V146.617Z" fill="#043121"/>
<path d="M153 130.617C157.42 130.617 161 127.037 161 122.617C161 118.197 157.42 114.617 153 114.617C148.58 114.617 145 118.197 145 122.617C145 127.037 148.58 130.617 153 130.617Z" fill="#043121"/>
<path d="M153 82.6172C148.58 82.6172 145 86.1972 145 90.6172C145 95.0372 148.58 98.6172 153 98.6172H161V82.6172H153Z" fill="#043121"/>
<path d="M65 162.617V154.617C65 150.197 61.42 146.617 57 146.617C52.58 146.617 49 150.197 49 154.617V186.617C49 191.037 52.58 194.617 57 194.617H65V162.617Z" fill="#043121"/>
</g>
<defs>
<clipPath id="clip0_758_3579">
<rect width="500" height="500" fill="white"/>
</clipPath>
</defs>
</svg>
