<svg width="500" height="500" viewBox="0 0 500 500" fill="none" xmlns="http://www.w3.org/2000/svg">
<g clip-path="url(#clip0_758_3918)">
<mask id="mask0_758_3918" style="mask-type:luminance" maskUnits="userSpaceOnUse" x="0" y="0" width="500" height="500">
<path d="M500 0H0V500H500V0Z" fill="white"/>
</mask>
<g mask="url(#mask0_758_3918)">
<path d="M500 0H0V500H500V0Z" fill="white"/>
<mask id="mask1_758_3918" style="mask-type:luminance" maskUnits="userSpaceOnUse" x="18" y="18" width="464" height="464">
<path d="M34 162V146H26C23.8783 146 21.8434 146.843 20.3431 148.343C18.8429 149.843 18 151.878 18 154C18 156.122 18.8429 158.157 20.3431 159.657C21.8434 161.157 23.8783 162 26 162" fill="white"/>
<path d="M18 210H34V202C34 199.878 33.1572 197.843 31.6569 196.343C30.1566 194.843 28.1217 194 26 194C23.8783 194 21.8434 194.843 20.3431 196.343C18.8428 197.843 18 199.878 18 202" fill="white"/>
<path d="M34 210H18V218C18 220.122 18.8428 222.157 20.3431 223.657C21.8434 225.157 23.8783 226 26 226C28.1217 226 30.1566 225.157 31.6569 223.657C33.1572 222.157 34 220.122 34 218" fill="white"/>
<path d="M34 258V242H26C23.8783 242 21.8434 242.843 20.3431 244.343C18.8429 245.843 18 247.878 18 250C18 252.122 18.8429 254.157 20.3431 255.657C21.8434 257.157 23.8783 258 26 258" fill="white"/>
<path d="M34 354V338H26C23.8783 338 21.8434 338.843 20.3431 340.343C18.8429 341.843 18 343.878 18 346C18 348.122 18.8429 350.157 20.3431 351.657C21.8434 353.157 23.8783 354 26 354" fill="white"/>
<path d="M50 146H34V162H50V146Z" fill="white"/>
<path d="M50 162H34V178H50V162Z" fill="white"/>
<path d="M50 178H34V186C34 188.122 34.8428 190.157 36.3431 191.657C37.8434 193.157 39.8783 194 42 194C44.1217 194 46.1566 193.157 47.6569 191.657C49.1572 190.157 50 188.122 50 186" fill="white"/>
<path d="M34 242H50V226H42C39.8783 226 37.8434 226.843 36.3431 228.343C34.8428 229.843 34 231.878 34 234" fill="white"/>
<path d="M50 242H34V258H50V242Z" fill="white"/>
<path d="M50 290V274H42C39.8783 274 37.8434 274.843 36.3431 276.343C34.8429 277.843 34 279.878 34 282C34 284.122 34.8429 286.157 36.3431 287.657C37.8434 289.157 39.8783 290 42 290" fill="white"/>
<path d="M34 322H50V314C50 311.878 49.1572 309.843 47.6569 308.343C46.1566 306.843 44.1217 306 42 306C39.8783 306 37.8434 306.843 36.3431 308.343C34.8428 309.843 34 311.878 34 314" fill="white"/>
<path d="M50 322H34V338H50V322Z" fill="white"/>
<path d="M50 338H34V354H50V338Z" fill="white"/>
<path d="M66 146H50V162H66V146Z" fill="white"/>
<path d="M50 226V242H66V234C66 231.878 65.1571 229.843 63.6569 228.343C62.1566 226.843 60.1217 226 58 226" fill="white"/>
<path d="M66 242H50V258H66V242Z" fill="white"/>
<path d="M66 274H50V290H66V274Z" fill="white"/>
<path d="M66 338H50V354H66V338Z" fill="white"/>
<path d="M82 146H66V162H82V146Z" fill="white"/>
<path d="M82 162H66V178H82V162Z" fill="white"/>
<path d="M82 194V178H66V186C66 188.122 66.8429 190.157 68.3431 191.657C69.8434 193.157 71.8783 194 74 194" fill="white"/>
<path d="M82 226V210H74C71.8783 210 69.8434 210.843 68.3431 212.343C66.8429 213.843 66 215.878 66 218C66 220.122 66.8429 222.157 68.3431 223.657C69.8434 225.157 71.8783 226 74 226" fill="white"/>
<path d="M82 242H66V258H82V242Z" fill="white"/>
<path d="M82 274H66V290H82V274Z" fill="white"/>
<path d="M66 338H82V322H74C71.8783 322 69.8434 322.843 68.3431 324.343C66.8428 325.843 66 327.878 66 330" fill="white"/>
<path d="M82 338H66V354H74C76.1217 354 78.1566 353.157 79.6569 351.657C81.1572 350.157 82 348.122 82 346" fill="white"/>
<path d="M82 146V162H90C92.1217 162 94.1566 161.157 95.6569 159.657C97.1571 158.157 98 156.122 98 154C98 151.878 97.1571 149.843 95.6569 148.343C94.1566 146.843 92.1217 146 90 146" fill="white"/>
<path d="M98 178H82V194H98V178Z" fill="white"/>
<path d="M82 210V226H90C92.1217 226 94.1566 225.157 95.6569 223.657C97.1571 222.157 98 220.122 98 218C98 215.878 97.1571 213.843 95.6569 212.343C94.1566 210.843 92.1217 210 90 210" fill="white"/>
<path d="M98 242H82V258H98V242Z" fill="white"/>
<path d="M98 258H82V274H98V258Z" fill="white"/>
<path d="M98 274H82V290H98V274Z" fill="white"/>
<path d="M98 290H82V306H98V290Z" fill="white"/>
<path d="M98 306H82V322H98V306Z" fill="white"/>
<path d="M98 322H82V338H98V322Z" fill="white"/>
<path d="M98 178H114V170C114 167.878 113.157 165.843 111.657 164.343C110.157 162.843 108.122 162 106 162C103.878 162 101.843 162.843 100.343 164.343C98.8428 165.843 98 167.878 98 170" fill="white"/>
<path d="M114 178H98V194H114V178Z" fill="white"/>
<path d="M114 194H98V202C98 204.122 98.8428 206.157 100.343 207.657C101.843 209.157 103.878 210 106 210C108.122 210 110.157 209.157 111.657 207.657C113.157 206.157 114 204.122 114 202" fill="white"/>
<path d="M98 242H114V234C114 231.878 113.157 229.843 111.657 228.343C110.157 226.843 108.122 226 106 226C103.878 226 101.843 226.843 100.343 228.343C98.8428 229.843 98 231.878 98 234" fill="white"/>
<path d="M114 242H98V258H114V242Z" fill="white"/>
<path d="M114 306H98V322H114V306Z" fill="white"/>
<path d="M114 322H98V338H114V322Z" fill="white"/>
<path d="M114 354V338H98V346C98 348.122 98.8429 350.157 100.343 351.657C101.843 353.157 103.878 354 106 354" fill="white"/>
<path d="M130 162V146H122C119.878 146 117.843 146.843 116.343 148.343C114.843 149.843 114 151.878 114 154C114 156.122 114.843 158.157 116.343 159.657C117.843 161.157 119.878 162 122 162" fill="white"/>
<path d="M114 178V194H122C124.122 194 126.157 193.157 127.657 191.657C129.157 190.157 130 188.122 130 186C130 183.878 129.157 181.843 127.657 180.343C126.157 178.843 124.122 178 122 178" fill="white"/>
<path d="M130 226V210H122C119.878 210 117.843 210.843 116.343 212.343C114.843 213.843 114 215.878 114 218C114 220.122 114.843 222.157 116.343 223.657C117.843 225.157 119.878 226 122 226" fill="white"/>
<path d="M130 242H114V258H130V242Z" fill="white"/>
<path d="M130 290V274H122C119.878 274 117.843 274.843 116.343 276.343C114.843 277.843 114 279.878 114 282C114 284.122 114.843 286.157 116.343 287.657C117.843 289.157 119.878 290 122 290" fill="white"/>
<path d="M114 306V322H122C124.122 322 126.157 321.157 127.657 319.657C129.157 318.157 130 316.122 130 314C130 311.878 129.157 309.843 127.657 308.343C126.157 306.843 124.122 306 122 306" fill="white"/>
<path d="M130 338H114V354H130V338Z" fill="white"/>
<path d="M130 146V162H146V154C146 151.878 145.157 149.843 143.657 148.343C142.157 146.843 140.122 146 138 146" fill="white"/>
<path d="M146 178V162H130V170C130 172.122 130.843 174.157 132.343 175.657C133.843 177.157 135.878 178 138 178" fill="white"/>
<path d="M130 210V226H138C140.122 226 142.157 225.157 143.657 223.657C145.157 222.157 146 220.122 146 218C146 215.878 145.157 213.843 143.657 212.343C142.157 210.843 140.122 210 138 210" fill="white"/>
<path d="M146 242H130V258H146V242Z" fill="white"/>
<path d="M146 258H130V274H146V258Z" fill="white"/>
<path d="M146 274H130V290H138C140.122 290 142.157 289.157 143.657 287.657C145.157 286.157 146 284.122 146 282" fill="white"/>
<path d="M146 338H130V354H146V338Z" fill="white"/>
<path d="M146 50H162V34H154C151.878 34 149.843 34.8428 148.343 36.3431C146.843 37.8434 146 39.8783 146 42" fill="white"/>
<path d="M162 66V50H146V58C146 60.1217 146.843 62.1566 148.343 63.6569C149.843 65.1571 151.878 66 154 66" fill="white"/>
<path d="M162 98V82H154C151.878 82 149.843 82.8429 148.343 84.3431C146.843 85.8434 146 87.8783 146 90C146 92.1217 146.843 94.1566 148.343 95.6569C149.843 97.1571 151.878 98 154 98" fill="white"/>
<path d="M146 130H162V122C162 119.878 161.157 117.843 159.657 116.343C158.157 114.843 156.122 114 154 114C151.878 114 149.843 114.843 148.343 116.343C146.843 117.843 146 119.878 146 122" fill="white"/>
<path d="M162 146V130H146V138C146 140.122 146.843 142.157 148.343 143.657C149.843 145.157 151.878 146 154 146" fill="white"/>
<path d="M146 162V178H162V170C162 167.878 161.157 165.843 159.657 164.343C158.157 162.843 156.122 162 154 162" fill="white"/>
<path d="M162 194V178H146V186C146 188.122 146.843 190.157 148.343 191.657C149.843 193.157 151.878 194 154 194" fill="white"/>
<path d="M146 242H162V226H154C151.878 226 149.843 226.843 148.343 228.343C146.843 229.843 146 231.878 146 234" fill="white"/>
<path d="M162 242H146V258H154C156.122 258 158.157 257.157 159.657 255.657C161.157 254.157 162 252.122 162 250" fill="white"/>
<path d="M162 338H146V354H162V338Z" fill="white"/>
<path d="M162 386V370H154C151.878 370 149.843 370.843 148.343 372.343C146.843 373.843 146 375.878 146 378C146 380.122 146.843 382.157 148.343 383.657C149.843 385.157 151.878 386 154 386" fill="white"/>
<path d="M146 418H162V410C162 407.878 161.157 405.843 159.657 404.343C158.157 402.843 156.122 402 154 402C151.878 402 149.843 402.843 148.343 404.343C146.843 405.843 146 407.878 146 410" fill="white"/>
<path d="M162 418H146V434H162V418Z" fill="white"/>
<path d="M162 434H146V450H162V434Z" fill="white"/>
<path d="M162 450H146V466H162V450Z" fill="white"/>
<path d="M162 482V466H146V474C146 476.122 146.843 478.157 148.343 479.657C149.843 481.157 151.878 482 154 482" fill="white"/>
<path d="M162 34V50H178V42C178 39.8783 177.157 37.8434 175.657 36.3431C174.157 34.8429 172.122 34 170 34" fill="white"/>
<path d="M178 50H162V66H178V50Z" fill="white"/>
<path d="M178 66H162V82H178V66Z" fill="white"/>
<path d="M178 82H162V98H178V82Z" fill="white"/>
<path d="M178 130H162V146H178V130Z" fill="white"/>
<path d="M178 178H162V194H178V178Z" fill="white"/>
<path d="M178 226H162V242H178V226Z" fill="white"/>
<path d="M162 338H178V322H170C167.878 322 165.843 322.843 164.343 324.343C162.843 325.843 162 327.878 162 330" fill="white"/>
<path d="M178 338H162V354H178V338Z" fill="white"/>
<path d="M178 354H162V370H178V354Z" fill="white"/>
<path d="M178 370H162V386H170C172.122 386 174.157 385.157 175.657 383.657C177.157 382.157 178 380.122 178 378" fill="white"/>
<path d="M178 418H162V434H178V418Z" fill="white"/>
<path d="M178 466H162V482H178V466Z" fill="white"/>
<path d="M178 82V98H194V90C194 87.8783 193.157 85.8434 191.657 84.3431C190.157 82.8429 188.122 82 186 82" fill="white"/>
<path d="M194 98H178V114H194V98Z" fill="white"/>
<path d="M194 114H178V130H194V114Z" fill="white"/>
<path d="M194 130H178V146H194V130Z" fill="white"/>
<path d="M194 146H178V154C178 156.122 178.843 158.157 180.343 159.657C181.843 161.157 183.878 162 186 162C188.122 162 190.157 161.157 191.657 159.657C193.157 158.157 194 156.122 194 154" fill="white"/>
<path d="M194 178H178V194H194V178Z" fill="white"/>
<path d="M194 194H178V202C178 204.122 178.843 206.157 180.343 207.657C181.843 209.157 183.878 210 186 210C188.122 210 190.157 209.157 191.657 207.657C193.157 206.157 194 204.122 194 202" fill="white"/>
<path d="M194 226H178V242H194V226Z" fill="white"/>
<path d="M194 242H178V258H194V242Z" fill="white"/>
<path d="M194 258H178V274H194V258Z" fill="white"/>
<path d="M194 274H178V290H194V274Z" fill="white"/>
<path d="M194 306V290H178V298C178 300.122 178.843 302.157 180.343 303.657C181.843 305.157 183.878 306 186 306" fill="white"/>
<path d="M178 322V338H194V330C194 327.878 193.157 325.843 191.657 324.343C190.157 322.843 188.122 322 186 322" fill="white"/>
<path d="M194 338H178V354H194V338Z" fill="white"/>
<path d="M186 402C190.418 402 194 398.418 194 394C194 389.582 190.418 386 186 386C181.582 386 178 389.582 178 394C178 398.418 181.582 402 186 402Z" fill="white"/>
<path d="M178 418V434H194V426C194 423.878 193.157 421.843 191.657 420.343C190.157 418.843 188.122 418 186 418" fill="white"/>
<path d="M194 434H178V450H194V434Z" fill="white"/>
<path d="M194 450H178V466H194V450Z" fill="white"/>
<path d="M194 466H178V482H186C188.122 482 190.157 481.157 191.657 479.657C193.157 478.157 194 476.122 194 474" fill="white"/>
<path d="M210 50V34H202C199.878 34 197.843 34.8429 196.343 36.3431C194.843 37.8434 194 39.8783 194 42C194 44.1217 194.843 46.1566 196.343 47.6569C197.843 49.1571 199.878 50 202 50" fill="white"/>
<path d="M210 82V66H202C199.878 66 197.843 66.8429 196.343 68.3431C194.843 69.8434 194 71.8783 194 74C194 76.1217 194.843 78.1566 196.343 79.6569C197.843 81.1571 199.878 82 202 82" fill="white"/>
<path d="M194 130V146H202C204.122 146 206.157 145.157 207.657 143.657C209.157 142.157 210 140.122 210 138C210 135.878 209.157 133.843 207.657 132.343C206.157 130.843 204.122 130 202 130" fill="white"/>
<path d="M194 178H210V162H202C199.878 162 197.843 162.843 196.343 164.343C194.843 165.843 194 167.878 194 170" fill="white"/>
<path d="M210 178H194V194H210V178Z" fill="white"/>
<path d="M194 226V242H210V234C210 231.878 209.157 229.843 207.657 228.343C206.157 226.843 204.122 226 202 226" fill="white"/>
<path d="M210 242H194V258H210V242Z" fill="white"/>
<path d="M194 274V290H210V282C210 279.878 209.157 277.843 207.657 276.343C206.157 274.843 204.122 274 202 274" fill="white"/>
<path d="M210 290H194V306H210V290Z" fill="white"/>
<path d="M194 338V354H210V346C210 343.878 209.157 341.843 207.657 340.343C206.157 338.843 204.122 338 202 338" fill="white"/>
<path d="M210 354H194V370H210V354Z" fill="white"/>
<path d="M210 386V370H194V378C194 380.122 194.843 382.157 196.343 383.657C197.843 385.157 199.878 386 202 386" fill="white"/>
<path d="M202 418C206.418 418 210 414.418 210 410C210 405.582 206.418 402 202 402C197.582 402 194 405.582 194 410C194 414.418 197.582 418 202 418Z" fill="white"/>
<path d="M194 450V466H202C204.122 466 206.157 465.157 207.657 463.657C209.157 462.157 210 460.122 210 458C210 455.878 209.157 453.843 207.657 452.343C206.157 450.843 204.122 450 202 450" fill="white"/>
<path d="M210 34H226V18H218C215.878 18 213.843 18.8428 212.343 20.3431C210.843 21.8434 210 23.8783 210 26" fill="white"/>
<path d="M226 34H210V50H226V34Z" fill="white"/>
<path d="M226 50H210V66H226V50Z" fill="white"/>
<path d="M226 66H210V82H226V66Z" fill="white"/>
<path d="M226 82H210V98H226V82Z" fill="white"/>
<path d="M226 98H210V114H226V98Z" fill="white"/>
<path d="M226 114H210V122C210 124.122 210.843 126.157 212.343 127.657C213.843 129.157 215.878 130 218 130C220.122 130 222.157 129.157 223.657 127.657C225.157 126.157 226 124.122 226 122" fill="white"/>
<path d="M210 162H226V154C226 151.878 225.157 149.843 223.657 148.343C222.157 146.843 220.122 146 218 146C215.878 146 213.843 146.843 212.343 148.343C210.843 149.843 210 151.878 210 154" fill="white"/>
<path d="M226 162H210V178H226V162Z" fill="white"/>
<path d="M226 178H210V194H226V178Z" fill="white"/>
<path d="M226 194H210V210H226V194Z" fill="white"/>
<path d="M226 210H210V218C210 220.122 210.843 222.157 212.343 223.657C213.843 225.157 215.878 226 218 226C220.122 226 222.157 225.157 223.657 223.657C225.157 222.157 226 220.122 226 218" fill="white"/>
<path d="M226 242H210V258H226V242Z" fill="white"/>
<path d="M226 274V258H210V266C210 268.122 210.843 270.157 212.343 271.657C213.843 273.157 215.878 274 218 274" fill="white"/>
<path d="M226 290H210V306H226V290Z" fill="white"/>
<path d="M218 338C222.418 338 226 334.418 226 330C226 325.582 222.418 322 218 322C213.582 322 210 325.582 210 330C210 334.418 213.582 338 218 338Z" fill="white"/>
<path d="M226 370H210V386H226V370Z" fill="white"/>
<path d="M226 402V386H210V394C210 396.122 210.843 398.157 212.343 399.657C213.843 401.157 215.878 402 218 402" fill="white"/>
<path d="M218 434C222.418 434 226 430.418 226 426C226 421.582 222.418 418 218 418C213.582 418 210 421.582 210 426C210 430.418 213.582 434 218 434Z" fill="white"/>
<path d="M226 18V34H242V26C242 23.8783 241.157 21.8434 239.657 20.3431C238.157 18.8429 236.122 18 234 18" fill="white"/>
<path d="M242 34H226V50H234C236.122 50 238.157 49.1572 239.657 47.6569C241.157 46.1566 242 44.1217 242 42" fill="white"/>
<path d="M242 146V130H234C231.878 130 229.843 130.843 228.343 132.343C226.843 133.843 226 135.878 226 138C226 140.122 226.843 142.157 228.343 143.657C229.843 145.157 231.878 146 234 146" fill="white"/>
<path d="M226 162V178H242V170C242 167.878 241.157 165.843 239.657 164.343C238.157 162.843 236.122 162 234 162" fill="white"/>
<path d="M242 178H226V194H242V178Z" fill="white"/>
<path d="M242 194H226V210H242V194Z" fill="white"/>
<path d="M226 242V258H242V250C242 247.878 241.157 245.843 239.657 244.343C238.157 242.843 236.122 242 234 242" fill="white"/>
<path d="M242 258H226V274H242V258Z" fill="white"/>
<path d="M242 274H226V290H242V274Z" fill="white"/>
<path d="M242 290H226V306H242V290Z" fill="white"/>
<path d="M242 322V306H226V314C226 316.122 226.843 318.157 228.343 319.657C229.843 321.157 231.878 322 234 322" fill="white"/>
<path d="M226 354H242V346C242 343.878 241.157 341.843 239.657 340.343C238.157 338.843 236.122 338 234 338C231.878 338 229.843 338.843 228.343 340.343C226.843 341.843 226 343.878 226 346" fill="white"/>
<path d="M242 354H226V370H242V354Z" fill="white"/>
<path d="M242 370H226V386H242V370Z" fill="white"/>
<path d="M242 386H226V402H242V386Z" fill="white"/>
<path d="M226 466H242V450H234C231.878 450 229.843 450.843 228.343 452.343C226.843 453.843 226 455.878 226 458" fill="white"/>
<path d="M242 482V466H226V474C226 476.122 226.843 478.157 228.343 479.657C229.843 481.157 231.878 482 234 482" fill="white"/>
<path d="M250 66C254.418 66 258 62.4183 258 58C258 53.5817 254.418 50 250 50C245.582 50 242 53.5817 242 58C242 62.4183 245.582 66 250 66Z" fill="white"/>
<path d="M242 98H258V90C258 87.8783 257.157 85.8434 255.657 84.3431C254.157 82.8428 252.122 82 250 82C247.878 82 245.843 82.8428 244.343 84.3431C242.843 85.8434 242 87.8783 242 90" fill="white"/>
<path d="M258 98H242V114H258V98Z" fill="white"/>
<path d="M258 114H242V130H258V114Z" fill="white"/>
<path d="M258 130H242V146H258V130Z" fill="white"/>
<path d="M258 146H242V154C242 156.122 242.843 158.157 244.343 159.657C245.843 161.157 247.878 162 250 162C252.122 162 254.157 161.157 255.657 159.657C257.157 158.157 258 156.122 258 154" fill="white"/>
<path d="M258 194H242V210H258V194Z" fill="white"/>
<path d="M250 242C254.418 242 258 238.418 258 234C258 229.582 254.418 226 250 226C245.582 226 242 229.582 242 234C242 238.418 245.582 242 250 242Z" fill="white"/>
<path d="M258 306H242V322H258V306Z" fill="white"/>
<path d="M242 354V370H250C252.122 370 254.157 369.157 255.657 367.657C257.157 366.157 258 364.122 258 362C258 359.878 257.157 357.843 255.657 356.343C254.157 354.843 252.122 354 250 354" fill="white"/>
<path d="M258 386H242V402H258V386Z" fill="white"/>
<path d="M242 450H258V442C258 439.878 257.157 437.843 255.657 436.343C254.157 434.843 252.122 434 250 434C247.878 434 245.843 434.843 244.343 436.343C242.843 437.843 242 439.878 242 442" fill="white"/>
<path d="M258 450H242V466H258V450Z" fill="white"/>
<path d="M258 466H242V482H250C252.122 482 254.157 481.157 255.657 479.657C257.157 478.157 258 476.122 258 474" fill="white"/>
<path d="M266 50C270.418 50 274 46.4183 274 42C274 37.5817 270.418 34 266 34C261.582 34 258 37.5817 258 42C258 46.4183 261.582 50 266 50Z" fill="white"/>
<path d="M266 82C270.418 82 274 78.4183 274 74C274 69.5817 270.418 66 266 66C261.582 66 258 69.5817 258 74C258 78.4183 261.582 82 266 82Z" fill="white"/>
<path d="M274 98H258V114H274V98Z" fill="white"/>
<path d="M258 178H274V170C274 167.878 273.157 165.843 271.657 164.343C270.157 162.843 268.122 162 266 162C263.878 162 261.843 162.843 260.343 164.343C258.843 165.843 258 167.878 258 170" fill="white"/>
<path d="M274 178H258V194H274V178Z" fill="white"/>
<path d="M274 194H258V210H266C268.122 210 270.157 209.157 271.657 207.657C273.157 206.157 274 204.122 274 202" fill="white"/>
<path d="M258 258H274V242H266C263.878 242 261.843 242.843 260.343 244.343C258.843 245.843 258 247.878 258 250" fill="white"/>
<path d="M274 274V258H258V266C258 268.122 258.843 270.157 260.343 271.657C261.843 273.157 263.878 274 266 274" fill="white"/>
<path d="M258 306H274V298C274 295.878 273.157 293.843 271.657 292.343C270.157 290.843 268.122 290 266 290C263.878 290 261.843 290.843 260.343 292.343C258.843 293.843 258 295.878 258 298" fill="white"/>
<path d="M274 306H258V322H274V306Z" fill="white"/>
<path d="M266 354C270.418 354 274 350.418 274 346C274 341.582 270.418 338 266 338C261.582 338 258 341.582 258 346C258 350.418 261.582 354 266 354Z" fill="white"/>
<path d="M258 386V402H266C268.122 402 270.157 401.157 271.657 399.657C273.157 398.157 274 396.122 274 394C274 391.878 273.157 389.843 271.657 388.343C270.157 386.843 268.122 386 266 386" fill="white"/>
<path d="M274 450H258V466H274V450Z" fill="white"/>
<path d="M282 34C286.418 34 290 30.4183 290 26C290 21.5817 286.418 18 282 18C277.582 18 274 21.5817 274 26C274 30.4183 277.582 34 282 34Z" fill="white"/>
<path d="M282 66C286.418 66 290 62.4183 290 58C290 53.5817 286.418 50 282 50C277.582 50 274 53.5817 274 58C274 62.4183 277.582 66 282 66Z" fill="white"/>
<path d="M274 98H290V82H282C279.878 82 277.843 82.8428 276.343 84.3431C274.843 85.8434 274 87.8783 274 90" fill="white"/>
<path d="M290 98H274V114H290V98Z" fill="white"/>
<path d="M290 114H274V122C274 124.122 274.843 126.157 276.343 127.657C277.843 129.157 279.878 130 282 130C284.122 130 286.157 129.157 287.657 127.657C289.157 126.157 290 124.122 290 122" fill="white"/>
<path d="M290 162V146H282C279.878 146 277.843 146.843 276.343 148.343C274.843 149.843 274 151.878 274 154C274 156.122 274.843 158.157 276.343 159.657C277.843 161.157 279.878 162 282 162" fill="white"/>
<path d="M274 178V194H282C284.122 194 286.157 193.157 287.657 191.657C289.157 190.157 290 188.122 290 186C290 183.878 289.157 181.843 287.657 180.343C286.157 178.843 284.122 178 282 178" fill="white"/>
<path d="M290 242H274V258H290V242Z" fill="white"/>
<path d="M290 258H274V274H290V258Z" fill="white"/>
<path d="M290 290V274H274V282C274 284.122 274.843 286.157 276.343 287.657C277.843 289.157 279.878 290 282 290" fill="white"/>
<path d="M290 306H274V322H290V306Z" fill="white"/>
<path d="M282 386C286.418 386 290 382.418 290 378C290 373.582 286.418 370 282 370C277.582 370 274 373.582 274 378C274 382.418 277.582 386 282 386Z" fill="white"/>
<path d="M290 434V418H282C279.878 418 277.843 418.843 276.343 420.343C274.843 421.843 274 423.878 274 426C274 428.122 274.843 430.157 276.343 431.657C277.843 433.157 279.878 434 282 434" fill="white"/>
<path d="M290 450H274V466H290V450Z" fill="white"/>
<path d="M290 482V466H274V474C274 476.122 274.843 478.157 276.343 479.657C277.843 481.157 279.878 482 282 482" fill="white"/>
<path d="M290 82H306V74C306 71.8783 305.157 69.8434 303.657 68.3431C302.157 66.8428 300.122 66 298 66C295.878 66 293.843 66.8428 292.343 68.3431C290.843 69.8434 290 71.8783 290 74" fill="white"/>
<path d="M306 82H290V98H306V82Z" fill="white"/>
<path d="M290 146V162H306V154C306 151.878 305.157 149.843 303.657 148.343C302.157 146.843 300.122 146 298 146" fill="white"/>
<path d="M306 162H290V170C290 172.122 290.843 174.157 292.343 175.657C293.843 177.157 295.878 178 298 178C300.122 178 302.157 177.157 303.657 175.657C305.157 174.157 306 172.122 306 170" fill="white"/>
<path d="M306 210V194H298C295.878 194 293.843 194.843 292.343 196.343C290.843 197.843 290 199.878 290 202C290 204.122 290.843 206.157 292.343 207.657C293.843 209.157 295.878 210 298 210" fill="white"/>
<path d="M290 242V258H306V250C306 247.878 305.157 245.843 303.657 244.343C302.157 242.843 300.122 242 298 242" fill="white"/>
<path d="M306 258H290V274H306V258Z" fill="white"/>
<path d="M306 274H290V290H306V274Z" fill="white"/>
<path d="M306 290H290V306H306V290Z" fill="white"/>
<path d="M306 306H290V322H306V306Z" fill="white"/>
<path d="M306 322H290V330C290 332.122 290.843 334.157 292.343 335.657C293.843 337.157 295.878 338 298 338C300.122 338 302.157 337.157 303.657 335.657C305.157 334.157 306 332.122 306 330" fill="white"/>
<path d="M306 370V354H298C295.878 354 293.843 354.843 292.343 356.343C290.843 357.843 290 359.878 290 362C290 364.122 290.843 366.157 292.343 367.657C293.843 369.157 295.878 370 298 370" fill="white"/>
<path d="M290 418V434H298C300.122 434 302.157 433.157 303.657 431.657C305.157 430.157 306 428.122 306 426C306 423.878 305.157 421.843 303.657 420.343C302.157 418.843 300.122 418 298 418" fill="white"/>
<path d="M306 450H290V466H306V450Z" fill="white"/>
<path d="M306 466H290V482H306V466Z" fill="white"/>
<path d="M314 34C318.418 34 322 30.4183 322 26C322 21.5817 318.418 18 314 18C309.582 18 306 21.5817 306 26C306 30.4183 309.582 34 314 34Z" fill="white"/>
<path d="M314 66C318.418 66 322 62.4183 322 58C322 53.5817 318.418 50 314 50C309.582 50 306 53.5817 306 58C306 62.4183 309.582 66 314 66Z" fill="white"/>
<path d="M306 82V98H322V90C322 87.8783 321.157 85.8434 319.657 84.3431C318.157 82.8429 316.122 82 314 82" fill="white"/>
<path d="M322 98H306V114H322V98Z" fill="white"/>
<path d="M322 114H306V130H322V114Z" fill="white"/>
<path d="M322 146V130H306V138C306 140.122 306.843 142.157 308.343 143.657C309.843 145.157 311.878 146 314 146" fill="white"/>
<path d="M306 194V210H314C316.122 210 318.157 209.157 319.657 207.657C321.157 206.157 322 204.122 322 202C322 199.878 321.157 197.843 319.657 196.343C318.157 194.843 316.122 194 314 194" fill="white"/>
<path d="M322 242V226H314C311.878 226 309.843 226.843 308.343 228.343C306.843 229.843 306 231.878 306 234C306 236.122 306.843 238.157 308.343 239.657C309.843 241.157 311.878 242 314 242" fill="white"/>
<path d="M306 258V274H322V266C322 263.878 321.157 261.843 319.657 260.343C318.157 258.843 316.122 258 314 258" fill="white"/>
<path d="M322 274H306V290H322V274Z" fill="white"/>
<path d="M322 290H306V306H322V290Z" fill="white"/>
<path d="M306 354V370H314C316.122 370 318.157 369.157 319.657 367.657C321.157 366.157 322 364.122 322 362C322 359.878 321.157 357.843 319.657 356.343C318.157 354.843 316.122 354 314 354" fill="white"/>
<path d="M322 402V386H314C311.878 386 309.843 386.843 308.343 388.343C306.843 389.843 306 391.878 306 394C306 396.122 306.843 398.157 308.343 399.657C309.843 401.157 311.878 402 314 402" fill="white"/>
<path d="M306 450V466H322V458C322 455.878 321.157 453.843 319.657 452.343C318.157 450.843 316.122 450 314 450" fill="white"/>
<path d="M322 466H306V482H322V466Z" fill="white"/>
<path d="M330 50C334.418 50 338 46.4183 338 42C338 37.5817 334.418 34 330 34C325.582 34 322 37.5817 322 42C322 46.4183 325.582 50 330 50Z" fill="white"/>
<path d="M338 130H322V146H338V130Z" fill="white"/>
<path d="M338 146H322V154C322 156.122 322.843 158.157 324.343 159.657C325.843 161.157 327.878 162 330 162C332.122 162 334.157 161.157 335.657 159.657C337.157 158.157 338 156.122 338 154" fill="white"/>
<path d="M330 194C334.418 194 338 190.418 338 186C338 181.582 334.418 178 330 178C325.582 178 322 181.582 322 186C322 190.418 325.582 194 330 194Z" fill="white"/>
<path d="M322 226H338V218C338 215.878 337.157 213.843 335.657 212.343C334.157 210.843 332.122 210 330 210C327.878 210 325.843 210.843 324.343 212.343C322.843 213.843 322 215.878 322 218" fill="white"/>
<path d="M338 226H322V242H330C332.122 242 334.157 241.157 335.657 239.657C337.157 238.157 338 236.122 338 234" fill="white"/>
<path d="M338 274H322V290H338V274Z" fill="white"/>
<path d="M338 290H322V306H338V290Z" fill="white"/>
<path d="M330 338C334.418 338 338 334.418 338 330C338 325.582 334.418 322 330 322C325.582 322 322 325.582 322 330C322 334.418 325.582 338 330 338Z" fill="white"/>
<path d="M322 386H338V370H330C327.878 370 325.843 370.843 324.343 372.343C322.843 373.843 322 375.878 322 378" fill="white"/>
<path d="M338 386H322V402H338V386Z" fill="white"/>
<path d="M330 434C334.418 434 338 430.418 338 426C338 421.582 334.418 418 330 418C325.582 418 322 421.582 322 426C322 430.418 325.582 434 330 434Z" fill="white"/>
<path d="M338 466H322V482H338V466Z" fill="white"/>
<path d="M346 34C350.418 34 354 30.4183 354 26C354 21.5817 350.418 18 346 18C341.582 18 338 21.5817 338 26C338 30.4183 341.582 34 346 34Z" fill="white"/>
<path d="M346 66C350.418 66 354 62.4183 354 58C354 53.5817 350.418 50 346 50C341.582 50 338 53.5817 338 58C338 62.4183 341.582 66 346 66Z" fill="white"/>
<path d="M338 114H354V106C354 103.878 353.157 101.843 351.657 100.343C350.157 98.8428 348.122 98 346 98C343.878 98 341.843 98.8428 340.343 100.343C338.843 101.843 338 103.878 338 106" fill="white"/>
<path d="M354 114H338V130H354V114Z" fill="white"/>
<path d="M354 130H338V146H346C348.122 146 350.157 145.157 351.657 143.657C353.157 142.157 354 140.122 354 138" fill="white"/>
<path d="M346 178C350.418 178 354 174.418 354 170C354 165.582 350.418 162 346 162C341.582 162 338 165.582 338 170C338 174.418 341.582 178 346 178Z" fill="white"/>
<path d="M354 210V194H346C343.878 194 341.843 194.843 340.343 196.343C338.843 197.843 338 199.878 338 202C338 204.122 338.843 206.157 340.343 207.657C341.843 209.157 343.878 210 346 210" fill="white"/>
<path d="M338 274H354V266C354 263.878 353.157 261.843 351.657 260.343C350.157 258.843 348.122 258 346 258C343.878 258 341.843 258.843 340.343 260.343C338.843 261.843 338 263.878 338 266" fill="white"/>
<path d="M354 274H338V290H354V274Z" fill="white"/>
<path d="M354 290H338V306H346C348.122 306 350.157 305.157 351.657 303.657C353.157 302.157 354 300.122 354 298" fill="white"/>
<path d="M338 354H354V338H346C343.878 338 341.843 338.843 340.343 340.343C338.843 341.843 338 343.878 338 346" fill="white"/>
<path d="M354 354H338V370H354V354Z" fill="white"/>
<path d="M354 370H338V386H354V370Z" fill="white"/>
<path d="M354 386H338V402H354V386Z" fill="white"/>
<path d="M354 418V402H338V410C338 412.122 338.843 414.157 340.343 415.657C341.843 417.157 343.878 418 346 418" fill="white"/>
<path d="M338 466H354V450H346C343.878 450 341.843 450.843 340.343 452.343C338.843 453.843 338 455.878 338 458" fill="white"/>
<path d="M354 466H338V482H354V466Z" fill="white"/>
<path d="M370 162V146H362C359.878 146 357.843 146.843 356.343 148.343C354.843 149.843 354 151.878 354 154C354 156.122 354.843 158.157 356.343 159.657C357.843 161.157 359.878 162 362 162" fill="white"/>
<path d="M370 194H354V210H370V194Z" fill="white"/>
<path d="M370 242V226H362C359.878 226 357.843 226.843 356.343 228.343C354.843 229.843 354 231.878 354 234C354 236.122 354.843 238.157 356.343 239.657C357.843 241.157 359.878 242 362 242" fill="white"/>
<path d="M354 274V290H362C364.122 290 366.157 289.157 367.657 287.657C369.157 286.157 370 284.122 370 282C370 279.878 369.157 277.843 367.657 276.343C366.157 274.843 364.122 274 362 274" fill="white"/>
<path d="M370 338H354V354H370V338Z" fill="white"/>
<path d="M370 402H354V418H370V402Z" fill="white"/>
<path d="M370 450H354V466H370V450Z" fill="white"/>
<path d="M370 466H354V482H370V466Z" fill="white"/>
<path d="M370 146V162H378C380.122 162 382.157 161.157 383.657 159.657C385.157 158.157 386 156.122 386 154C386 151.878 385.157 149.843 383.657 148.343C382.157 146.843 380.122 146 378 146" fill="white"/>
<path d="M370 194H386V178H378C375.878 178 373.843 178.843 372.343 180.343C370.843 181.843 370 183.878 370 186" fill="white"/>
<path d="M386 194H370V210H386V194Z" fill="white"/>
<path d="M386 210H370V226H386V210Z" fill="white"/>
<path d="M386 226H370V242H386V226Z" fill="white"/>
<path d="M386 242H370V250C370 252.122 370.843 254.157 372.343 255.657C373.843 257.157 375.878 258 378 258C380.122 258 382.157 257.157 383.657 255.657C385.157 254.157 386 252.122 386 250" fill="white"/>
<path d="M378 306C382.418 306 386 302.418 386 298C386 293.582 382.418 290 378 290C373.582 290 370 293.582 370 298C370 302.418 373.582 306 378 306Z" fill="white"/>
<path d="M370 338H386V330C386 327.878 385.157 325.843 383.657 324.343C382.157 322.843 380.122 322 378 322C375.878 322 373.843 322.843 372.343 324.343C370.843 325.843 370 327.878 370 330" fill="white"/>
<path d="M386 338H370V354H386V338Z" fill="white"/>
<path d="M378 386C382.418 386 386 382.418 386 378C386 373.582 382.418 370 378 370C373.582 370 370 373.582 370 378C370 382.418 373.582 386 378 386Z" fill="white"/>
<path d="M386 402H370V418H386V402Z" fill="white"/>
<path d="M370 450H386V442C386 439.878 385.157 437.843 383.657 436.343C382.157 434.843 380.122 434 378 434C375.878 434 373.843 434.843 372.343 436.343C370.843 437.843 370 439.878 370 442" fill="white"/>
<path d="M386 450H370V466H386V450Z" fill="white"/>
<path d="M386 466H370V482H386V466Z" fill="white"/>
<path d="M386 178H402V170C402 167.878 401.157 165.843 399.657 164.343C398.157 162.843 396.122 162 394 162C391.878 162 389.843 162.843 388.343 164.343C386.843 165.843 386 167.878 386 170" fill="white"/>
<path d="M402 178H386V194H402V178Z" fill="white"/>
<path d="M402 194H386V210H402V194Z" fill="white"/>
<path d="M402 210H386V226H394C396.122 226 398.157 225.157 399.657 223.657C401.157 222.157 402 220.122 402 218" fill="white"/>
<path d="M394 274C398.418 274 402 270.418 402 266C402 261.582 398.418 258 394 258C389.582 258 386 261.582 386 266C386 270.418 389.582 274 394 274Z" fill="white"/>
<path d="M402 338H386V354H402V338Z" fill="white"/>
<path d="M402 402H386V418H402V402Z" fill="white"/>
<path d="M402 450H386V466H402V450Z" fill="white"/>
<path d="M402 466H386V482H394C396.122 482 398.157 481.157 399.657 479.657C401.157 478.157 402 476.122 402 474" fill="white"/>
<path d="M410 162C414.418 162 418 158.418 418 154C418 149.582 414.418 146 410 146C405.582 146 402 149.582 402 154C402 158.418 405.582 162 410 162Z" fill="white"/>
<path d="M418 178H402V194H418V178Z" fill="white"/>
<path d="M402 242H418V226H410C407.878 226 405.843 226.843 404.343 228.343C402.843 229.843 402 231.878 402 234" fill="white"/>
<path d="M418 242H402V250C402 252.122 402.843 254.157 404.343 255.657C405.843 257.157 407.878 258 410 258C412.122 258 414.157 257.157 415.657 255.657C417.157 254.157 418 252.122 418 250" fill="white"/>
<path d="M418 338H402V354H418V338Z" fill="white"/>
<path d="M418 354H402V370H418V354Z" fill="white"/>
<path d="M418 370H402V386H418V370Z" fill="white"/>
<path d="M418 386H402V402H418V386Z" fill="white"/>
<path d="M418 402H402V418H418V402Z" fill="white"/>
<path d="M418 418H402V426C402 428.122 402.843 430.157 404.343 431.657C405.843 433.157 407.878 434 410 434C412.122 434 414.157 433.157 415.657 431.657C417.157 430.157 418 428.122 418 426" fill="white"/>
<path d="M402 450V466H410C412.122 466 414.157 465.157 415.657 463.657C417.157 462.157 418 460.122 418 458C418 455.878 417.157 453.843 415.657 452.343C414.157 450.843 412.122 450 410 450" fill="white"/>
<path d="M434 178H418V194H434V178Z" fill="white"/>
<path d="M418 226V242H426C428.122 242 430.157 241.157 431.657 239.657C433.157 238.157 434 236.122 434 234C434 231.878 433.157 229.843 431.657 228.343C430.157 226.843 428.122 226 426 226" fill="white"/>
<path d="M426 274C430.418 274 434 270.418 434 266C434 261.582 430.418 258 426 258C421.582 258 418 261.582 418 266C418 270.418 421.582 274 426 274Z" fill="white"/>
<path d="M418 338V354H434V346C434 343.878 433.157 341.843 431.657 340.343C430.157 338.843 428.122 338 426 338" fill="white"/>
<path d="M434 354H418V370H426C428.122 370 430.157 369.157 431.657 367.657C433.157 366.157 434 364.122 434 362" fill="white"/>
<path d="M434 402H418V418H434V402Z" fill="white"/>
<path d="M426 450C430.418 450 434 446.418 434 442C434 437.582 430.418 434 426 434C421.582 434 418 437.582 418 442C418 446.418 421.582 450 426 450Z" fill="white"/>
<path d="M434 162H450V146H442C439.878 146 437.843 146.843 436.343 148.343C434.843 149.843 434 151.878 434 154" fill="white"/>
<path d="M450 162H434V178H450V162Z" fill="white"/>
<path d="M450 178H434V194H442C444.122 194 446.157 193.157 447.657 191.657C449.157 190.157 450 188.122 450 186" fill="white"/>
<path d="M442 226C446.418 226 450 222.418 450 218C450 213.582 446.418 210 442 210C437.582 210 434 213.582 434 218C434 222.418 437.582 226 442 226Z" fill="white"/>
<path d="M442 258C446.418 258 450 254.418 450 250C450 245.582 446.418 242 442 242C437.582 242 434 245.582 434 250C434 254.418 437.582 258 442 258Z" fill="white"/>
<path d="M434 322H450V314C450 311.878 449.157 309.843 447.657 308.343C446.157 306.843 444.122 306 442 306C439.878 306 437.843 306.843 436.343 308.343C434.843 309.843 434 311.878 434 314" fill="white"/>
<path d="M450 338V322H434V330C434 332.122 434.843 334.157 436.343 335.657C437.843 337.157 439.878 338 442 338" fill="white"/>
<path d="M434 402H450V386H442C439.878 386 437.843 386.843 436.343 388.343C434.843 389.843 434 391.878 434 394" fill="white"/>
<path d="M450 402H434V418H442C444.122 418 446.157 417.157 447.657 415.657C449.157 414.157 450 412.122 450 410" fill="white"/>
<path d="M442 482C446.418 482 450 478.418 450 474C450 469.582 446.418 466 442 466C437.582 466 434 469.582 434 474C434 478.418 437.582 482 442 482Z" fill="white"/>
<path d="M450 146V162H458C460.122 162 462.157 161.157 463.657 159.657C465.157 158.157 466 156.122 466 154C466 151.878 465.157 149.843 463.657 148.343C462.157 146.843 460.122 146 458 146" fill="white"/>
<path d="M458 210C462.418 210 466 206.418 466 202C466 197.582 462.418 194 458 194C453.582 194 450 197.582 450 202C450 206.418 453.582 210 458 210Z" fill="white"/>
<path d="M458 274C462.418 274 466 270.418 466 266C466 261.582 462.418 258 458 258C453.582 258 450 261.582 450 266C450 270.418 453.582 274 458 274Z" fill="white"/>
<path d="M466 306V290H458C455.878 290 453.843 290.843 452.343 292.343C450.843 293.843 450 295.878 450 298C450 300.122 450.843 302.157 452.343 303.657C453.843 305.157 455.878 306 458 306" fill="white"/>
<path d="M466 322H450V338H466V322Z" fill="white"/>
<path d="M450 386H466V378C466 375.878 465.157 373.843 463.657 372.343C462.157 370.843 460.122 370 458 370C455.878 370 453.843 370.843 452.343 372.343C450.843 373.843 450 375.878 450 378" fill="white"/>
<path d="M466 386H450V402H458C460.122 402 462.157 401.157 463.657 399.657C465.157 398.157 466 396.122 466 394" fill="white"/>
<path d="M466 466V450H458C455.878 450 453.843 450.843 452.343 452.343C450.843 453.843 450 455.878 450 458C450 460.122 450.843 462.157 452.343 463.657C453.843 465.157 455.878 466 458 466" fill="white"/>
<path d="M466 178H482V170C482 167.878 481.157 165.843 479.657 164.343C478.157 162.843 476.122 162 474 162C471.878 162 469.843 162.843 468.343 164.343C466.843 165.843 466 167.878 466 170" fill="white"/>
<path d="M482 178H466V186C466 188.122 466.843 190.157 468.343 191.657C469.843 193.157 471.878 194 474 194C476.122 194 478.157 193.157 479.657 191.657C481.157 190.157 482 188.122 482 186" fill="white"/>
<path d="M466 290H482V282C482 279.878 481.157 277.843 479.657 276.343C478.157 274.843 476.122 274 474 274C471.878 274 469.843 274.843 468.343 276.343C466.843 277.843 466 279.878 466 282" fill="white"/>
<path d="M482 290H466V306H474C476.122 306 478.157 305.157 479.657 303.657C481.157 302.157 482 300.122 482 298" fill="white"/>
<path d="M466 322V338H474C476.122 338 478.157 337.157 479.657 335.657C481.157 334.157 482 332.122 482 330C482 327.878 481.157 325.843 479.657 324.343C478.157 322.843 476.122 322 474 322" fill="white"/>
<path d="M474 418C478.418 418 482 414.418 482 410C482 405.582 478.418 402 474 402C469.582 402 466 405.582 466 410C466 414.418 469.582 418 474 418Z" fill="white"/>
<path d="M466 450V466H482V458C482 455.878 481.157 453.843 479.657 452.343C478.157 450.843 476.122 450 474 450" fill="white"/>
<path d="M482 466H466V474C466 476.122 466.843 478.157 468.343 479.657C469.843 481.157 471.878 482 474 482C476.122 482 478.157 481.157 479.657 479.657C481.157 478.157 482 476.122 482 474" fill="white"/>
</mask>
<g mask="url(#mask1_758_3918)">
<path d="M500 0H0V500H500V0Z" fill="#043121"/>
</g>
<mask id="mask2_758_3918" style="mask-type:luminance" maskUnits="userSpaceOnUse" x="18" y="18" width="112" height="112">
<path fill-rule="evenodd" clip-rule="evenodd" d="M18 58V90C18 100.609 22.2143 110.783 29.7157 118.284C33.4301 121.999 37.8396 124.945 42.6927 126.955C47.5457 128.965 52.7471 130 58 130H90C100.609 130 110.783 125.786 118.284 118.284C125.786 110.783 130 100.609 130 90V58C130 52.7471 128.965 47.5457 126.955 42.6927C124.945 37.8396 121.999 33.4301 118.284 29.7157C114.57 26.0014 110.16 23.055 105.307 21.0448C100.454 19.0346 95.2529 18 90 18H58C52.7471 18 47.5457 19.0346 42.6927 21.0448C37.8396 23.055 33.4301 26.0014 29.7157 29.7157C22.2143 37.2172 18 47.3913 18 58ZM58 34H90C96.3652 34 102.47 36.5286 106.971 41.0294C111.471 45.5303 114 51.6348 114 58V90C114 96.3652 111.471 102.47 106.971 106.971C102.47 111.471 96.3652 114 90 114H58C51.6348 114 45.5303 111.471 41.0294 106.971C36.5286 102.47 34 96.3652 34 90V58C34 51.6348 36.5286 45.5303 41.0294 41.0294C45.5303 36.5286 51.6348 34 58 34Z" fill="white"/>
</mask>
<g mask="url(#mask2_758_3918)">
<path d="M130 18H18V130H130V18Z" fill="#0A754E"/>
</g>
<mask id="mask3_758_3918" style="mask-type:luminance" maskUnits="userSpaceOnUse" x="50" y="50" width="48" height="48">
<path d="M74 98C87.2548 98 98 87.2548 98 74C98 60.7452 87.2548 50 74 50C60.7452 50 50 60.7452 50 74C50 87.2548 60.7452 98 74 98Z" fill="white"/>
</mask>
<g mask="url(#mask3_758_3918)">
<path d="M98 50H50V98H98V50Z" fill="#F5B237"/>
</g>
<mask id="mask4_758_3918" style="mask-type:luminance" maskUnits="userSpaceOnUse" x="370" y="18" width="112" height="112">
<path fill-rule="evenodd" clip-rule="evenodd" d="M442 18H410C399.391 18 389.217 22.2143 381.716 29.7157C374.214 37.2172 370 47.3913 370 58V90C370 100.609 374.214 110.783 381.716 118.284C389.217 125.786 399.391 130 410 130H442C447.253 130 452.454 128.965 457.307 126.955C462.16 124.945 466.57 121.999 470.284 118.284C473.999 114.57 476.945 110.16 478.955 105.307C480.965 100.454 482 95.2529 482 90V58C482 47.3913 477.786 37.2172 470.284 29.7157C462.783 22.2143 452.609 18 442 18ZM466 58V90C466 96.3652 463.471 102.47 458.971 106.971C454.47 111.471 448.365 114 442 114H410C403.635 114 397.53 111.471 393.029 106.971C388.529 102.47 386 96.3652 386 90V58C386 51.6348 388.529 45.5303 393.029 41.0294C397.53 36.5286 403.635 34 410 34H442C448.365 34 454.47 36.5286 458.971 41.0294C463.471 45.5303 466 51.6348 466 58Z" fill="white"/>
</mask>
<g mask="url(#mask4_758_3918)">
<path d="M482 18H370V130H482V18Z" fill="#0A754E"/>
</g>
<mask id="mask5_758_3918" style="mask-type:luminance" maskUnits="userSpaceOnUse" x="402" y="50" width="48" height="48">
<path d="M402 74C402 87.2548 412.745 98 426 98C439.255 98 450 87.2548 450 74C450 60.7452 439.255 50 426 50C412.745 50 402 60.7452 402 74Z" fill="white"/>
</mask>
<g mask="url(#mask5_758_3918)">
<path d="M450 50H402V98H450V50Z" fill="#075337"/>
</g>
<mask id="mask6_758_3918" style="mask-type:luminance" maskUnits="userSpaceOnUse" x="18" y="370" width="112" height="112">
<path fill-rule="evenodd" clip-rule="evenodd" d="M58 482H90C100.609 482 110.783 477.786 118.284 470.284C121.999 466.57 124.945 462.16 126.955 457.307C128.965 452.454 130 447.253 130 442V410C130 399.391 125.786 389.217 118.284 381.716C110.783 374.214 100.609 370 90 370H58C47.3913 370 37.2172 374.214 29.7157 381.716C22.2143 389.217 18 399.391 18 410V442C18 447.253 19.0346 452.454 21.0448 457.307C23.055 462.16 26.0014 466.57 29.7157 470.284C37.2172 477.786 47.3913 482 58 482ZM34 442V410C34 403.635 36.5286 397.53 41.0294 393.029C45.5303 388.529 51.6348 386 58 386H90C96.3652 386 102.47 388.529 106.971 393.029C111.471 397.53 114 403.635 114 410V442C114 448.365 111.471 454.47 106.971 458.971C102.47 463.471 96.3652 466 90 466H58C51.6348 466 45.5303 463.471 41.0294 458.971C36.5286 454.47 34 448.365 34 442Z" fill="white"/>
</mask>
<g mask="url(#mask6_758_3918)">
<path d="M130 370H18V482H130V370Z" fill="#0A754E"/>
</g>
<mask id="mask7_758_3918" style="mask-type:luminance" maskUnits="userSpaceOnUse" x="50" y="402" width="48" height="48">
<path d="M98 426C98 412.745 87.2548 402 74 402C60.7452 402 50 412.745 50 426C50 439.255 60.7452 450 74 450C87.2548 450 98 439.255 98 426Z" fill="white"/>
</mask>
<g mask="url(#mask7_758_3918)">
<path d="M98 402H50V450H98V402Z" fill="#075337"/>
</g>
</g>
</g>
<defs>
<clipPath id="clip0_758_3918">
<rect width="500" height="500" fill="white"/>
</clipPath>
</defs>
</svg>
